<?xml version="1.0" encoding="utf-8" standalone="no"?>
<!DOCTYPE svg PUBLIC "-//W3C//DTD SVG 1.1//EN"
  "http://www.w3.org/Graphics/SVG/1.1/DTD/svg11.dtd">
<!-- Created with matplotlib (http://matplotlib.org/) -->
<svg height="196pt" version="1.1" viewBox="0 0 317 196" width="317pt" xmlns="http://www.w3.org/2000/svg" xmlns:xlink="http://www.w3.org/1999/xlink">
 <defs>
  <style type="text/css">
*{stroke-linecap:butt;stroke-linejoin:round;}
  </style>
 </defs>
 <g id="figure_1">
  <g id="patch_1">
   <path d="M 0 196.217214 
L 317.479452 196.217214 
L 317.479452 0 
L 0 0 
z
" style="fill:#ffffff;"/>
  </g>
  <g id="axes_1">
   <g id="patch_2">
    <path d="M 39.684932 87.363379 
L 156.849967 87.363379 
L 156.849967 19.621721 
L 39.684932 19.621721 
z
" style="fill:#ffffff;"/>
   </g>
   <g id="matplotlib.axis_1">
    <g id="xtick_1">
     <g id="line2d_1">
      <defs>
       <path d="M 0 0 
L 0 3.5 
" id="me3adc89383" style="stroke:#000000;stroke-width:0.8;"/>
      </defs>
      <g>
       <use style="stroke:#000000;stroke-width:0.8;" x="40.782807" xlink:href="#me3adc89383" y="87.363379"/>
      </g>
     </g>
    </g>
    <g id="xtick_2">
     <g id="line2d_2">
      <g>
       <use style="stroke:#000000;stroke-width:0.8;" x="98.267449" xlink:href="#me3adc89383" y="87.363379"/>
      </g>
     </g>
    </g>
    <g id="xtick_3">
     <g id="line2d_3">
      <g>
       <use style="stroke:#000000;stroke-width:0.8;" x="155.752092" xlink:href="#me3adc89383" y="87.363379"/>
      </g>
     </g>
    </g>
   </g>
   <g id="matplotlib.axis_2">
    <g id="ytick_1">
     <g id="line2d_4">
      <defs>
       <path d="M 0 0 
L -3.5 0 
" id="m522996f41e" style="stroke:#000000;stroke-width:0.8;"/>
      </defs>
      <g>
       <use style="stroke:#000000;stroke-width:0.8;" x="39.684932" xlink:href="#m522996f41e" y="87.363379"/>
      </g>
     </g>
     <g id="text_1">
      <!-- 0 -->
      <defs>
       <path d="M 31.78125 66.40625 
Q 24.171875 66.40625 20.328125 58.90625 
Q 16.5 51.421875 16.5 36.375 
Q 16.5 21.390625 20.328125 13.890625 
Q 24.171875 6.390625 31.78125 6.390625 
Q 39.453125 6.390625 43.28125 13.890625 
Q 47.125 21.390625 47.125 36.375 
Q 47.125 51.421875 43.28125 58.90625 
Q 39.453125 66.40625 31.78125 66.40625 
M 31.78125 74.21875 
Q 44.046875 74.21875 50.515625 64.515625 
Q 56.984375 54.828125 56.984375 36.375 
Q 56.984375 17.96875 50.515625 8.265625 
Q 44.046875 -1.421875 31.78125 -1.421875 
Q 19.53125 -1.421875 13.0625 8.265625 
Q 6.59375 17.96875 6.59375 36.375 
Q 6.59375 54.828125 13.0625 64.515625 
Q 19.53125 74.21875 31.78125 74.21875 
" id="DejaVuSans-30"/>
      </defs>
      <g transform="translate(27.594932 90.402754)scale(0.08 -0.08)">
       <use xlink:href="#DejaVuSans-30"/>
      </g>
     </g>
    </g>
    <g id="ytick_2">
     <g id="line2d_5">
      <g>
       <use style="stroke:#000000;stroke-width:0.8;" x="39.684932" xlink:href="#m522996f41e" y="54.156684"/>
      </g>
     </g>
     <g id="text_2">
      <!-- $\frac{1}{2}$ -->
      <defs>
       <path d="M 12.40625 8.296875 
L 28.515625 8.296875 
L 28.515625 63.921875 
L 10.984375 60.40625 
L 10.984375 69.390625 
L 28.421875 72.90625 
L 38.28125 72.90625 
L 38.28125 8.296875 
L 54.390625 8.296875 
L 54.390625 0 
L 12.40625 0 
z
" id="DejaVuSans-31"/>
       <path d="M 19.1875 8.296875 
L 53.609375 8.296875 
L 53.609375 0 
L 7.328125 0 
L 7.328125 8.296875 
Q 12.9375 14.109375 22.625 23.890625 
Q 32.328125 33.6875 34.8125 36.53125 
Q 39.546875 41.84375 41.421875 45.53125 
Q 43.3125 49.21875 43.3125 52.78125 
Q 43.3125 58.59375 39.234375 62.25 
Q 35.15625 65.921875 28.609375 65.921875 
Q 23.96875 65.921875 18.8125 64.3125 
Q 13.671875 62.703125 7.8125 59.421875 
L 7.8125 69.390625 
Q 13.765625 71.78125 18.9375 73 
Q 24.125 74.21875 28.421875 74.21875 
Q 39.75 74.21875 46.484375 68.546875 
Q 53.21875 62.890625 53.21875 53.421875 
Q 53.21875 48.921875 51.53125 44.890625 
Q 49.859375 40.875 45.40625 35.40625 
Q 44.1875 33.984375 37.640625 27.21875 
Q 31.109375 20.453125 19.1875 8.296875 
" id="DejaVuSans-32"/>
      </defs>
      <g transform="translate(28.044932 57.956684)scale(0.08 -0.08)">
       <use transform="translate(0 43.965625)scale(0.7)" xlink:href="#DejaVuSans-31"/>
       <use transform="translate(0 -39.2375)scale(0.7)" xlink:href="#DejaVuSans-32"/>
       <path d="M 0 18.965625 
L 0 25.215625 
L 44.536133 25.215625 
L 44.536133 18.965625 
L 0 18.965625 
z
"/>
      </g>
     </g>
    </g>
    <g id="ytick_3">
     <g id="line2d_6">
      <g>
       <use style="stroke:#000000;stroke-width:0.8;" x="39.684932" xlink:href="#m522996f41e" y="20.949989"/>
      </g>
     </g>
     <g id="text_3">
      <!-- 1 -->
      <g transform="translate(27.594932 23.989364)scale(0.08 -0.08)">
       <use xlink:href="#DejaVuSans-31"/>
      </g>
     </g>
    </g>
    <g id="text_4">
     <!-- $P(\theta)$ -->
     <defs>
      <path d="M 16.890625 72.90625 
L 39.703125 72.90625 
Q 49.65625 72.90625 54.875 68.265625 
Q 60.109375 63.625 60.109375 54.6875 
Q 60.109375 42.671875 52.390625 35.984375 
Q 44.671875 29.296875 30.71875 29.296875 
L 18.3125 29.296875 
L 12.59375 0 
L 2.6875 0 
z
M 25.203125 64.796875 
L 19.921875 37.40625 
L 32.328125 37.40625 
Q 40.71875 37.40625 45.203125 41.703125 
Q 49.703125 46 49.703125 54 
Q 49.703125 59.125 46.65625 61.953125 
Q 43.609375 64.796875 38.09375 64.796875 
z
" id="DejaVuSans-Oblique-50"/>
      <path d="M 31 75.875 
Q 24.46875 64.65625 21.28125 53.65625 
Q 18.109375 42.671875 18.109375 31.390625 
Q 18.109375 20.125 21.3125 9.0625 
Q 24.515625 -2 31 -13.1875 
L 23.1875 -13.1875 
Q 15.875 -1.703125 12.234375 9.375 
Q 8.59375 20.453125 8.59375 31.390625 
Q 8.59375 42.28125 12.203125 53.3125 
Q 15.828125 64.359375 23.1875 75.875 
z
" id="DejaVuSans-28"/>
      <path d="M 45.515625 34.671875 
L 14.453125 34.671875 
Q 12.359375 20.0625 14.5 13.875 
Q 17.1875 6.25 24.46875 6.25 
Q 31.78125 6.25 37.359375 13.921875 
Q 42.234375 20.65625 45.515625 34.671875 
M 47.015625 42.96875 
Q 48.34375 56.84375 46.625 61.71875 
Q 43.953125 69.4375 36.765625 69.4375 
Q 29.296875 69.4375 23.828125 61.8125 
Q 19.53125 55.671875 16.15625 42.96875 
z
M 38.1875 76.765625 
Q 49.90625 76.765625 54.59375 66.40625 
Q 59.28125 56.109375 55.71875 37.84375 
Q 52.203125 19.625 43.453125 9.28125 
Q 34.765625 -1.125 23.046875 -1.125 
Q 11.28125 -1.125 6.640625 9.28125 
Q 2 19.625 5.515625 37.84375 
Q 9.078125 56.109375 17.71875 66.40625 
Q 26.421875 76.765625 38.1875 76.765625 
" id="DejaVuSans-Oblique-3b8"/>
      <path d="M 8.015625 75.875 
L 15.828125 75.875 
Q 23.140625 64.359375 26.78125 53.3125 
Q 30.421875 42.28125 30.421875 31.390625 
Q 30.421875 20.453125 26.78125 9.375 
Q 23.140625 -1.703125 15.828125 -13.1875 
L 8.015625 -13.1875 
Q 14.5 -2 17.703125 9.0625 
Q 20.90625 20.125 20.90625 31.390625 
Q 20.90625 42.671875 17.703125 53.65625 
Q 14.5 64.65625 8.015625 75.875 
" id="DejaVuSans-29"/>
     </defs>
     <g transform="translate(21.931182 61.49255)rotate(-90)scale(0.08 -0.08)">
      <use transform="translate(0 0.234375)" xlink:href="#DejaVuSans-Oblique-50"/>
      <use transform="translate(60.302734 0.234375)" xlink:href="#DejaVuSans-28"/>
      <use transform="translate(99.316406 0.234375)" xlink:href="#DejaVuSans-Oblique-3b8"/>
      <use transform="translate(160.498047 0.234375)" xlink:href="#DejaVuSans-29"/>
     </g>
    </g>
   </g>
   <g id="LineCollection_1">
    <path clip-path="url(#pa0092e218d)" d="M 47.968388 87.363379 
L 47.968388 80.22269 
" style="fill:none;stroke:#000000;stroke-opacity:0.6;stroke-width:0.5;"/>
    <path clip-path="url(#pa0092e218d)" d="M 52.758774 87.363379 
L 52.758774 78.235535 
" style="fill:none;stroke:#000000;stroke-opacity:0.6;stroke-width:0.5;"/>
    <path clip-path="url(#pa0092e218d)" d="M 57.549161 87.363379 
L 57.549161 76.320908 
" style="fill:none;stroke:#000000;stroke-opacity:0.6;stroke-width:0.5;"/>
    <path clip-path="url(#pa0092e218d)" d="M 62.339548 87.363379 
L 62.339548 74.395971 
" style="fill:none;stroke:#000000;stroke-opacity:0.6;stroke-width:0.5;"/>
    <path clip-path="url(#pa0092e218d)" d="M 67.129935 87.363379 
L 67.129935 72.36001 
" style="fill:none;stroke:#000000;stroke-opacity:0.6;stroke-width:0.5;"/>
    <path clip-path="url(#pa0092e218d)" d="M 71.920322 87.363379 
L 71.920322 70.403557 
" style="fill:none;stroke:#000000;stroke-opacity:0.6;stroke-width:0.5;"/>
    <path clip-path="url(#pa0092e218d)" d="M 76.710709 87.363379 
L 76.710709 68.362332 
" style="fill:none;stroke:#000000;stroke-opacity:0.6;stroke-width:0.5;"/>
    <path clip-path="url(#pa0092e218d)" d="M 81.501095 87.363379 
L 81.501095 66.227897 
" style="fill:none;stroke:#000000;stroke-opacity:0.6;stroke-width:0.5;"/>
    <path clip-path="url(#pa0092e218d)" d="M 86.291482 87.363379 
L 86.291482 63.95624 
" style="fill:none;stroke:#000000;stroke-opacity:0.6;stroke-width:0.5;"/>
    <path clip-path="url(#pa0092e218d)" d="M 91.081869 87.363379 
L 91.081869 61.366115 
" style="fill:none;stroke:#000000;stroke-opacity:0.6;stroke-width:0.5;"/>
    <path clip-path="url(#pa0092e218d)" d="M 95.872256 87.363379 
L 95.872256 57.520976 
" style="fill:none;stroke:#000000;stroke-opacity:0.6;stroke-width:0.5;"/>
    <path clip-path="url(#pa0092e218d)" d="M 100.662643 87.363379 
L 100.662643 49.946793 
" style="fill:none;stroke:#000000;stroke-opacity:0.6;stroke-width:0.5;"/>
    <path clip-path="url(#pa0092e218d)" d="M 105.45303 87.363379 
L 105.45303 46.368852 
" style="fill:none;stroke:#000000;stroke-opacity:0.6;stroke-width:0.5;"/>
    <path clip-path="url(#pa0092e218d)" d="M 110.243417 87.363379 
L 110.243417 43.880249 
" style="fill:none;stroke:#000000;stroke-opacity:0.6;stroke-width:0.5;"/>
    <path clip-path="url(#pa0092e218d)" d="M 115.033803 87.363379 
L 115.033803 41.614961 
" style="fill:none;stroke:#000000;stroke-opacity:0.6;stroke-width:0.5;"/>
    <path clip-path="url(#pa0092e218d)" d="M 119.82419 87.363379 
L 119.82419 39.554839 
" style="fill:none;stroke:#000000;stroke-opacity:0.6;stroke-width:0.5;"/>
    <path clip-path="url(#pa0092e218d)" d="M 124.614577 87.363379 
L 124.614577 37.539811 
" style="fill:none;stroke:#000000;stroke-opacity:0.6;stroke-width:0.5;"/>
    <path clip-path="url(#pa0092e218d)" d="M 129.404964 87.363379 
L 129.404964 35.677443 
" style="fill:none;stroke:#000000;stroke-opacity:0.6;stroke-width:0.5;"/>
    <path clip-path="url(#pa0092e218d)" d="M 134.195351 87.363379 
L 134.195351 33.749668 
" style="fill:none;stroke:#000000;stroke-opacity:0.6;stroke-width:0.5;"/>
    <path clip-path="url(#pa0092e218d)" d="M 138.985738 87.363379 
L 138.985738 31.831069 
" style="fill:none;stroke:#000000;stroke-opacity:0.6;stroke-width:0.5;"/>
    <path clip-path="url(#pa0092e218d)" d="M 143.776124 87.363379 
L 143.776124 29.866959 
" style="fill:none;stroke:#000000;stroke-opacity:0.6;stroke-width:0.5;"/>
    <path clip-path="url(#pa0092e218d)" d="M 148.566511 87.363379 
L 148.566511 27.903301 
" style="fill:none;stroke:#000000;stroke-opacity:0.6;stroke-width:0.5;"/>
    <path clip-path="url(#pa0092e218d)" d="M 153.356898 87.363379 
L 153.356898 25.131784 
" style="fill:none;stroke:#000000;stroke-opacity:0.6;stroke-width:0.5;"/>
   </g>
   <g id="line2d_7">
    <path clip-path="url(#pa0092e218d)" d="M 43.178001 83.181584 
L 43.178001 80.22269 
L 47.968388 80.22269 
L 47.968388 78.235535 
L 52.758774 78.235535 
L 52.758774 76.320908 
L 57.549161 76.320908 
L 57.549161 74.395971 
L 62.339548 74.395971 
L 62.339548 72.36001 
L 67.129935 72.36001 
L 67.129935 70.403557 
L 71.920322 70.403557 
L 71.920322 68.362332 
L 76.710709 68.362332 
L 76.710709 66.227897 
L 81.501095 66.227897 
L 81.501095 63.95624 
L 86.291482 63.95624 
L 86.291482 61.366115 
L 91.081869 61.366115 
L 91.081869 57.520976 
L 95.872256 57.520976 
L 95.872256 49.946793 
L 100.662643 49.946793 
L 100.662643 46.368852 
L 105.45303 46.368852 
L 105.45303 43.880249 
L 110.243417 43.880249 
L 110.243417 41.614961 
L 115.033803 41.614961 
L 115.033803 39.554839 
L 119.82419 39.554839 
L 119.82419 37.539811 
L 124.614577 37.539811 
L 124.614577 35.677443 
L 129.404964 35.677443 
L 129.404964 33.749668 
L 134.195351 33.749668 
L 134.195351 31.831069 
L 138.985738 31.831069 
L 138.985738 29.866959 
L 143.776124 29.866959 
L 143.776124 27.903301 
L 148.566511 27.903301 
L 148.566511 25.131784 
L 153.356898 25.131784 
L 153.356898 20.949989 
L 158.147285 20.949989 
" style="fill:none;stroke:#1f77b4;stroke-linecap:square;stroke-width:1.5;"/>
   </g>
   <g id="patch_3">
    <path d="M 39.684932 87.363379 
L 39.684932 19.621721 
" style="fill:none;stroke:#000000;stroke-linecap:square;stroke-linejoin:miter;stroke-width:0.8;"/>
   </g>
   <g id="patch_4">
    <path d="M 39.684932 87.363379 
L 156.849967 87.363379 
" style="fill:none;stroke:#000000;stroke-linecap:square;stroke-linejoin:miter;stroke-width:0.8;"/>
   </g>
  </g>
  <g id="axes_2">
   <g id="patch_5">
    <path d="M 168.566471 87.363379 
L 285.731507 87.363379 
L 285.731507 19.621721 
L 168.566471 19.621721 
z
" style="fill:#ffffff;"/>
   </g>
   <g id="matplotlib.axis_3">
    <g id="xtick_4">
     <g id="line2d_8">
      <g>
       <use style="stroke:#000000;stroke-width:0.8;" x="169.664347" xlink:href="#me3adc89383" y="87.363379"/>
      </g>
     </g>
    </g>
    <g id="xtick_5">
     <g id="line2d_9">
      <g>
       <use style="stroke:#000000;stroke-width:0.8;" x="227.148989" xlink:href="#me3adc89383" y="87.363379"/>
      </g>
     </g>
    </g>
    <g id="xtick_6">
     <g id="line2d_10">
      <g>
       <use style="stroke:#000000;stroke-width:0.8;" x="284.633631" xlink:href="#me3adc89383" y="87.363379"/>
      </g>
     </g>
    </g>
   </g>
   <g id="matplotlib.axis_4">
    <g id="ytick_4">
     <g id="line2d_11">
      <g>
       <use style="stroke:#000000;stroke-width:0.8;" x="168.566471" xlink:href="#m522996f41e" y="87.363379"/>
      </g>
     </g>
    </g>
    <g id="ytick_5">
     <g id="line2d_12">
      <g>
       <use style="stroke:#000000;stroke-width:0.8;" x="168.566471" xlink:href="#m522996f41e" y="54.156684"/>
      </g>
     </g>
    </g>
    <g id="ytick_6">
     <g id="line2d_13">
      <g>
       <use style="stroke:#000000;stroke-width:0.8;" x="168.566471" xlink:href="#m522996f41e" y="20.949989"/>
      </g>
     </g>
    </g>
   </g>
   <g id="LineCollection_2">
    <path clip-path="url(#pfcd33e668f)" d="M 169.664347 84.596154 
L 171.249321 84.596154 
" style="fill:none;stroke:#000000;stroke-width:0.5;"/>
    <path clip-path="url(#pfcd33e668f)" d="M 169.664347 81.828929 
L 174.249459 81.828929 
" style="fill:none;stroke:#000000;stroke-width:0.5;"/>
    <path clip-path="url(#pfcd33e668f)" d="M 169.664347 79.061705 
L 179.648686 79.061705 
" style="fill:none;stroke:#000000;stroke-width:0.5;"/>
    <path clip-path="url(#pfcd33e668f)" d="M 169.664347 76.29448 
L 186.496469 76.29448 
" style="fill:none;stroke:#000000;stroke-width:0.5;"/>
    <path clip-path="url(#pfcd33e668f)" d="M 169.664347 73.527256 
L 193.265077 73.527256 
" style="fill:none;stroke:#000000;stroke-width:0.5;"/>
    <path clip-path="url(#pfcd33e668f)" d="M 169.664347 70.760031 
L 199.929032 70.760031 
" style="fill:none;stroke:#000000;stroke-width:0.5;"/>
    <path clip-path="url(#pfcd33e668f)" d="M 169.664347 67.992807 
L 206.421587 67.992807 
" style="fill:none;stroke:#000000;stroke-width:0.5;"/>
    <path clip-path="url(#pfcd33e668f)" d="M 169.664347 65.225582 
L 212.49628 65.225582 
" style="fill:none;stroke:#000000;stroke-width:0.5;"/>
    <path clip-path="url(#pfcd33e668f)" d="M 169.664347 62.458358 
L 217.943327 62.458358 
" style="fill:none;stroke:#000000;stroke-width:0.5;"/>
    <path clip-path="url(#pfcd33e668f)" d="M 169.664347 59.691133 
L 222.050151 59.691133 
" style="fill:none;stroke:#000000;stroke-width:0.5;"/>
    <path clip-path="url(#pfcd33e668f)" d="M 169.664347 56.923908 
L 225.131418 56.923908 
" style="fill:none;stroke:#000000;stroke-width:0.5;"/>
    <path clip-path="url(#pfcd33e668f)" d="M 169.664347 54.156684 
L 226.881584 54.156684 
" style="fill:none;stroke:#000000;stroke-width:0.5;"/>
    <path clip-path="url(#pfcd33e668f)" d="M 169.664347 51.389459 
L 228.63175 51.389459 
" style="fill:none;stroke:#000000;stroke-width:0.5;"/>
    <path clip-path="url(#pfcd33e668f)" d="M 169.664347 48.622235 
L 231.31759 48.622235 
" style="fill:none;stroke:#000000;stroke-width:0.5;"/>
    <path clip-path="url(#pfcd33e668f)" d="M 169.664347 45.85501 
L 235.323679 45.85501 
" style="fill:none;stroke:#000000;stroke-width:0.5;"/>
    <path clip-path="url(#pfcd33e668f)" d="M 169.664347 43.087786 
L 240.800772 43.087786 
" style="fill:none;stroke:#000000;stroke-width:0.5;"/>
    <path clip-path="url(#pfcd33e668f)" d="M 169.664347 40.320561 
L 246.925201 40.320561 
" style="fill:none;stroke:#000000;stroke-width:0.5;"/>
    <path clip-path="url(#pfcd33e668f)" d="M 169.664347 37.553337 
L 253.463961 37.553337 
" style="fill:none;stroke:#000000;stroke-width:0.5;"/>
    <path clip-path="url(#pfcd33e668f)" d="M 169.664347 34.786112 
L 260.501399 34.786112 
" style="fill:none;stroke:#000000;stroke-width:0.5;"/>
    <path clip-path="url(#pfcd33e668f)" d="M 169.664347 32.018887 
L 267.39833 32.018887 
" style="fill:none;stroke:#000000;stroke-width:0.5;"/>
    <path clip-path="url(#pfcd33e668f)" d="M 169.664347 29.251663 
L 274.158693 29.251663 
" style="fill:none;stroke:#000000;stroke-width:0.5;"/>
    <path clip-path="url(#pfcd33e668f)" d="M 169.664347 26.484438 
L 279.900463 26.484438 
" style="fill:none;stroke:#000000;stroke-width:0.5;"/>
    <path clip-path="url(#pfcd33e668f)" d="M 169.664347 23.717214 
L 283.048657 23.717214 
" style="fill:none;stroke:#000000;stroke-width:0.5;"/>
   </g>
   <g id="LineCollection_3">
    <path clip-path="url(#pfcd33e668f)" d="M 169.664347 20.949989 
L 284.633631 20.949989 
" style="fill:none;stroke:#000000;stroke-width:0.5;"/>
   </g>
   <g id="LineCollection_4">
    <path clip-path="url(#pfcd33e668f)" d="M 171.249321 87.363379 
L 171.249321 84.596154 
" style="fill:none;stroke:#ff0000;stroke-opacity:0.6;stroke-width:0.5;"/>
    <path clip-path="url(#pfcd33e668f)" d="M 174.249459 87.363379 
L 174.249459 81.828929 
" style="fill:none;stroke:#ff0000;stroke-opacity:0.6;stroke-width:0.5;"/>
    <path clip-path="url(#pfcd33e668f)" d="M 179.648686 87.363379 
L 179.648686 79.061705 
" style="fill:none;stroke:#ff0000;stroke-opacity:0.6;stroke-width:0.5;"/>
    <path clip-path="url(#pfcd33e668f)" d="M 186.496469 87.363379 
L 186.496469 76.29448 
" style="fill:none;stroke:#ff0000;stroke-opacity:0.6;stroke-width:0.5;"/>
    <path clip-path="url(#pfcd33e668f)" d="M 193.265077 87.363379 
L 193.265077 73.527256 
" style="fill:none;stroke:#ff0000;stroke-opacity:0.6;stroke-width:0.5;"/>
    <path clip-path="url(#pfcd33e668f)" d="M 199.929032 87.363379 
L 199.929032 70.760031 
" style="fill:none;stroke:#ff0000;stroke-opacity:0.6;stroke-width:0.5;"/>
    <path clip-path="url(#pfcd33e668f)" d="M 206.421587 87.363379 
L 206.421587 67.992807 
" style="fill:none;stroke:#ff0000;stroke-opacity:0.6;stroke-width:0.5;"/>
    <path clip-path="url(#pfcd33e668f)" d="M 212.49628 87.363379 
L 212.49628 65.225582 
" style="fill:none;stroke:#ff0000;stroke-opacity:0.6;stroke-width:0.5;"/>
    <path clip-path="url(#pfcd33e668f)" d="M 217.943327 87.363379 
L 217.943327 62.458358 
" style="fill:none;stroke:#ff0000;stroke-opacity:0.6;stroke-width:0.5;"/>
    <path clip-path="url(#pfcd33e668f)" d="M 222.050151 87.363379 
L 222.050151 59.691133 
" style="fill:none;stroke:#ff0000;stroke-opacity:0.6;stroke-width:0.5;"/>
    <path clip-path="url(#pfcd33e668f)" d="M 225.131418 87.363379 
L 225.131418 56.923908 
" style="fill:none;stroke:#ff0000;stroke-opacity:0.6;stroke-width:0.5;"/>
    <path clip-path="url(#pfcd33e668f)" d="M 226.881584 87.363379 
L 226.881584 54.156684 
" style="fill:none;stroke:#ff0000;stroke-opacity:0.6;stroke-width:0.5;"/>
    <path clip-path="url(#pfcd33e668f)" d="M 228.63175 87.363379 
L 228.63175 51.389459 
" style="fill:none;stroke:#ff0000;stroke-opacity:0.6;stroke-width:0.5;"/>
    <path clip-path="url(#pfcd33e668f)" d="M 231.31759 87.363379 
L 231.31759 48.622235 
" style="fill:none;stroke:#ff0000;stroke-opacity:0.6;stroke-width:0.5;"/>
    <path clip-path="url(#pfcd33e668f)" d="M 235.323679 87.363379 
L 235.323679 45.85501 
" style="fill:none;stroke:#ff0000;stroke-opacity:0.6;stroke-width:0.5;"/>
    <path clip-path="url(#pfcd33e668f)" d="M 240.800772 87.363379 
L 240.800772 43.087786 
" style="fill:none;stroke:#ff0000;stroke-opacity:0.6;stroke-width:0.5;"/>
    <path clip-path="url(#pfcd33e668f)" d="M 246.925201 87.363379 
L 246.925201 40.320561 
" style="fill:none;stroke:#ff0000;stroke-opacity:0.6;stroke-width:0.5;"/>
    <path clip-path="url(#pfcd33e668f)" d="M 253.463961 87.363379 
L 253.463961 37.553337 
" style="fill:none;stroke:#ff0000;stroke-opacity:0.6;stroke-width:0.5;"/>
    <path clip-path="url(#pfcd33e668f)" d="M 260.501399 87.363379 
L 260.501399 34.786112 
" style="fill:none;stroke:#ff0000;stroke-opacity:0.6;stroke-width:0.5;"/>
    <path clip-path="url(#pfcd33e668f)" d="M 267.39833 87.363379 
L 267.39833 32.018887 
" style="fill:none;stroke:#ff0000;stroke-opacity:0.6;stroke-width:0.5;"/>
    <path clip-path="url(#pfcd33e668f)" d="M 274.158693 87.363379 
L 274.158693 29.251663 
" style="fill:none;stroke:#ff0000;stroke-opacity:0.6;stroke-width:0.5;"/>
    <path clip-path="url(#pfcd33e668f)" d="M 279.900463 87.363379 
L 279.900463 26.484438 
" style="fill:none;stroke:#ff0000;stroke-opacity:0.6;stroke-width:0.5;"/>
    <path clip-path="url(#pfcd33e668f)" d="M 283.048657 87.363379 
L 283.048657 23.717214 
" style="fill:none;stroke:#ff0000;stroke-opacity:0.6;stroke-width:0.5;"/>
    <path clip-path="url(#pfcd33e668f)" d="M 284.633631 87.363379 
L 284.633631 84.596154 
" style="fill:none;stroke:#ff0000;stroke-opacity:0.6;stroke-width:0.5;"/>
   </g>
   <g id="LineCollection_5">
    <path clip-path="url(#pfcd33e668f)" d="M 284.633631 87.363379 
L 284.633631 20.949989 
" style="fill:none;stroke:#ff0000;stroke-opacity:0.6;stroke-width:0.5;"/>
   </g>
   <g id="line2d_14">
    <path clip-path="url(#pfcd33e668f)" d="M 172.05954 83.181584 
L 176.849927 80.22269 
L 181.640314 78.235535 
L 186.430701 76.320908 
L 191.221088 74.395971 
L 196.011474 72.36001 
L 200.801861 70.403557 
L 205.592248 68.362332 
L 210.382635 66.227897 
L 215.173022 63.95624 
L 219.963409 61.366115 
L 224.753795 57.520976 
L 229.544182 49.946793 
L 234.334569 46.368852 
L 239.124956 43.880249 
L 243.915343 41.614961 
L 248.70573 39.554839 
L 253.496117 37.539811 
L 258.286503 35.677443 
L 263.07689 33.749668 
L 267.867277 31.831069 
L 272.657664 29.866959 
L 277.448051 27.903301 
L 282.238438 25.131784 
L 287.028824 20.949989 
" style="fill:none;stroke:#1f77b4;stroke-linecap:square;stroke-width:1.5;"/>
   </g>
   <g id="patch_6">
    <path d="M 168.566471 87.363379 
L 168.566471 19.621721 
" style="fill:none;stroke:#000000;stroke-linecap:square;stroke-linejoin:miter;stroke-width:0.8;"/>
   </g>
   <g id="patch_7">
    <path d="M 168.566471 87.363379 
L 285.731507 87.363379 
" style="fill:none;stroke:#000000;stroke-linecap:square;stroke-linejoin:miter;stroke-width:0.8;"/>
   </g>
  </g>
  <g id="axes_3">
   <g id="patch_8">
    <path d="M 39.684932 161.879201 
L 156.849967 161.879201 
L 156.849967 94.137544 
L 39.684932 94.137544 
z
" style="fill:#ffffff;"/>
   </g>
   <g id="patch_9">
    <path clip-path="url(#p560b2af3e0)" d="M 38.387614 161.879201 
L 43.178001 161.879201 
L 43.178001 97.363337 
L 38.387614 97.363337 
z
" style="fill:#1f77b4;opacity:0.6;"/>
   </g>
   <g id="patch_10">
    <path clip-path="url(#p560b2af3e0)" d="M 43.178001 161.879201 
L 47.968388 161.879201 
L 47.968388 139.054603 
L 43.178001 139.054603 
z
" style="fill:#1f77b4;opacity:0.6;"/>
   </g>
   <g id="patch_11">
    <path clip-path="url(#p560b2af3e0)" d="M 47.968388 161.879201 
L 52.758774 161.879201 
L 52.758774 146.550493 
L 47.968388 146.550493 
z
" style="fill:#1f77b4;opacity:0.6;"/>
   </g>
   <g id="patch_12">
    <path clip-path="url(#p560b2af3e0)" d="M 52.758774 161.879201 
L 57.549161 161.879201 
L 57.549161 147.109969 
L 52.758774 147.109969 
z
" style="fill:#1f77b4;opacity:0.6;"/>
   </g>
   <g id="patch_13">
    <path clip-path="url(#p560b2af3e0)" d="M 57.549161 161.879201 
L 62.339548 161.879201 
L 62.339548 147.030437 
L 57.549161 147.030437 
z
" style="fill:#1f77b4;opacity:0.6;"/>
   </g>
   <g id="patch_14">
    <path clip-path="url(#p560b2af3e0)" d="M 62.339548 161.879201 
L 67.129935 161.879201 
L 67.129935 146.174009 
L 62.339548 146.174009 
z
" style="fill:#1f77b4;opacity:0.6;"/>
   </g>
   <g id="patch_15">
    <path clip-path="url(#p560b2af3e0)" d="M 67.129935 161.879201 
L 71.920322 161.879201 
L 71.920322 146.787326 
L 67.129935 146.787326 
z
" style="fill:#1f77b4;opacity:0.6;"/>
   </g>
   <g id="patch_16">
    <path clip-path="url(#p560b2af3e0)" d="M 71.920322 161.879201 
L 76.710709 161.879201 
L 76.710709 146.133406 
L 71.920322 146.133406 
z
" style="fill:#1f77b4;opacity:0.6;"/>
   </g>
   <g id="patch_17">
    <path clip-path="url(#p560b2af3e0)" d="M 76.710709 161.879201 
L 81.501095 161.879201 
L 81.501095 145.414391 
L 76.710709 145.414391 
z
" style="fill:#1f77b4;opacity:0.6;"/>
   </g>
   <g id="patch_18">
    <path clip-path="url(#p560b2af3e0)" d="M 81.501095 161.879201 
L 86.291482 161.879201 
L 86.291482 144.355871 
L 81.501095 144.355871 
z
" style="fill:#1f77b4;opacity:0.6;"/>
   </g>
   <g id="patch_19">
    <path clip-path="url(#p560b2af3e0)" d="M 86.291482 161.879201 
L 91.081869 161.879201 
L 91.081869 141.89925 
L 86.291482 141.89925 
z
" style="fill:#1f77b4;opacity:0.6;"/>
   </g>
   <g id="patch_20">
    <path clip-path="url(#p560b2af3e0)" d="M 91.081869 161.879201 
L 95.872256 161.879201 
L 95.872256 132.218197 
L 91.081869 132.218197 
z
" style="fill:#1f77b4;opacity:0.6;"/>
   </g>
   <g id="patch_21">
    <path clip-path="url(#p560b2af3e0)" d="M 95.872256 161.879201 
L 100.662643 161.879201 
L 100.662643 103.452739 
L 95.872256 103.452739 
z
" style="fill:#1f77b4;opacity:0.6;"/>
   </g>
   <g id="patch_22">
    <path clip-path="url(#p560b2af3e0)" d="M 100.662643 161.879201 
L 105.45303 161.879201 
L 105.45303 134.279339 
L 100.662643 134.279339 
z
" style="fill:#1f77b4;opacity:0.6;"/>
   </g>
   <g id="patch_23">
    <path clip-path="url(#p560b2af3e0)" d="M 105.45303 161.879201 
L 110.243417 161.879201 
L 110.243417 142.682374 
L 105.45303 142.682374 
z
" style="fill:#1f77b4;opacity:0.6;"/>
   </g>
   <g id="patch_24">
    <path clip-path="url(#p560b2af3e0)" d="M 110.243417 161.879201 
L 115.033803 161.879201 
L 115.033803 144.405005 
L 110.243417 144.405005 
z
" style="fill:#1f77b4;opacity:0.6;"/>
   </g>
   <g id="patch_25">
    <path clip-path="url(#p560b2af3e0)" d="M 115.033803 161.879201 
L 119.82419 161.879201 
L 119.82419 145.987631 
L 115.033803 145.987631 
z
" style="fill:#1f77b4;opacity:0.6;"/>
   </g>
   <g id="patch_26">
    <path clip-path="url(#p560b2af3e0)" d="M 119.82419 161.879201 
L 124.614577 161.879201 
L 124.614577 146.335485 
L 119.82419 146.335485 
z
" style="fill:#1f77b4;opacity:0.6;"/>
   </g>
   <g id="patch_27">
    <path clip-path="url(#p560b2af3e0)" d="M 124.614577 161.879201 
L 129.404964 161.879201 
L 129.404964 147.513091 
L 124.614577 147.513091 
z
" style="fill:#1f77b4;opacity:0.6;"/>
   </g>
   <g id="patch_28">
    <path clip-path="url(#p560b2af3e0)" d="M 129.404964 161.879201 
L 134.195351 161.879201 
L 134.195351 147.008542 
L 129.404964 147.008542 
z
" style="fill:#1f77b4;opacity:0.6;"/>
   </g>
   <g id="patch_29">
    <path clip-path="url(#p560b2af3e0)" d="M 134.195351 161.879201 
L 138.985738 161.879201 
L 138.985738 147.079334 
L 134.195351 147.079334 
z
" style="fill:#1f77b4;opacity:0.6;"/>
   </g>
   <g id="patch_30">
    <path clip-path="url(#p560b2af3e0)" d="M 138.985738 161.879201 
L 143.776124 161.879201 
L 143.776124 146.728259 
L 138.985738 146.728259 
z
" style="fill:#1f77b4;opacity:0.6;"/>
   </g>
   <g id="patch_31">
    <path clip-path="url(#p560b2af3e0)" d="M 143.776124 161.879201 
L 148.566511 161.879201 
L 148.566511 146.731749 
L 143.776124 146.731749 
z
" style="fill:#1f77b4;opacity:0.6;"/>
   </g>
   <g id="patch_32">
    <path clip-path="url(#p560b2af3e0)" d="M 148.566511 161.879201 
L 153.356898 161.879201 
L 153.356898 140.500005 
L 148.566511 140.500005 
z
" style="fill:#1f77b4;opacity:0.6;"/>
   </g>
   <g id="patch_33">
    <path clip-path="url(#p560b2af3e0)" d="M 153.356898 161.879201 
L 158.147285 161.879201 
L 158.147285 97.363337 
L 153.356898 97.363337 
z
" style="fill:#1f77b4;opacity:0.6;"/>
   </g>
   <g id="matplotlib.axis_5">
    <g id="xtick_7">
     <g id="line2d_15">
      <g>
       <use style="stroke:#000000;stroke-width:0.8;" x="40.782807" xlink:href="#me3adc89383" y="161.879201"/>
      </g>
     </g>
     <g id="text_5">
      <!-- $\frac{-\pi}{2}$ -->
      <defs>
       <path d="M 10.59375 35.5 
L 73.1875 35.5 
L 73.1875 27.203125 
L 10.59375 27.203125 
z
" id="DejaVuSans-2212"/>
       <path d="M 9.125 54.6875 
L 61.53125 54.6875 
L 59.765625 45.703125 
L 52.875 45.703125 
L 46.34375 12.109375 
Q 45.65625 8.59375 46.578125 7.03125 
Q 47.46875 5.515625 50.140625 5.515625 
Q 50.875 5.515625 51.953125 5.671875 
Q 53.078125 5.765625 53.421875 5.8125 
L 52.15625 -0.6875 
Q 50.34375 -1.3125 48.484375 -1.609375 
Q 46.578125 -1.90625 44.78125 -1.90625 
Q 38.921875 -1.90625 37.3125 1.265625 
Q 35.6875 4.5 37.359375 13.09375 
L 43.703125 45.703125 
L 23.53125 45.703125 
L 14.65625 0 
L 5.46875 0 
L 14.359375 45.703125 
L 7.375 45.703125 
z
" id="DejaVuSans-Oblique-3c0"/>
      </defs>
      <g transform="translate(36.222807 175.599201)scale(0.08 -0.08)">
       <use transform="translate(0 45.71875)scale(0.7)" xlink:href="#DejaVuSans-2212"/>
       <use transform="translate(58.652344 45.71875)scale(0.7)" xlink:href="#DejaVuSans-Oblique-3c0"/>
       <use transform="translate(28 -38.81875)scale(0.7)" xlink:href="#DejaVuSans-32"/>
       <path d="M 0 19.384375 
L 0 25.634375 
L 100.795898 25.634375 
L 100.795898 19.384375 
L 0 19.384375 
z
"/>
      </g>
     </g>
    </g>
    <g id="xtick_8">
     <g id="line2d_16">
      <g>
       <use style="stroke:#000000;stroke-width:0.8;" x="98.267449" xlink:href="#me3adc89383" y="161.879201"/>
      </g>
     </g>
     <g id="text_6">
      <!-- $0$ -->
      <g transform="translate(95.707449 174.957951)scale(0.08 -0.08)">
       <use transform="translate(0 0.78125)" xlink:href="#DejaVuSans-30"/>
      </g>
     </g>
    </g>
    <g id="xtick_9">
     <g id="line2d_17">
      <g>
       <use style="stroke:#000000;stroke-width:0.8;" x="155.752092" xlink:href="#me3adc89383" y="161.879201"/>
      </g>
     </g>
     <g id="text_7">
      <!-- $\frac{\pi}{2}$ -->
      <g transform="translate(153.432092 175.599201)scale(0.08 -0.08)">
       <use transform="translate(1 45.71875)scale(0.7)" xlink:href="#DejaVuSans-Oblique-3c0"/>
       <use transform="translate(0 -38.81875)scale(0.7)" xlink:href="#DejaVuSans-32"/>
       <path d="M 0 19.384375 
L 0 25.634375 
L 44.536133 25.634375 
L 44.536133 19.384375 
L 0 19.384375 
z
"/>
      </g>
     </g>
    </g>
    <g id="text_8">
     <!-- $\theta$ (rad) -->
     <defs>
      <path id="DejaVuSans-20"/>
      <path d="M 41.109375 46.296875 
Q 39.59375 47.171875 37.8125 47.578125 
Q 36.03125 48 33.890625 48 
Q 26.265625 48 22.1875 43.046875 
Q 18.109375 38.09375 18.109375 28.8125 
L 18.109375 0 
L 9.078125 0 
L 9.078125 54.6875 
L 18.109375 54.6875 
L 18.109375 46.1875 
Q 20.953125 51.171875 25.484375 53.578125 
Q 30.03125 56 36.53125 56 
Q 37.453125 56 38.578125 55.875 
Q 39.703125 55.765625 41.0625 55.515625 
z
" id="DejaVuSans-72"/>
      <path d="M 34.28125 27.484375 
Q 23.390625 27.484375 19.1875 25 
Q 14.984375 22.515625 14.984375 16.5 
Q 14.984375 11.71875 18.140625 8.90625 
Q 21.296875 6.109375 26.703125 6.109375 
Q 34.1875 6.109375 38.703125 11.40625 
Q 43.21875 16.703125 43.21875 25.484375 
L 43.21875 27.484375 
z
M 52.203125 31.203125 
L 52.203125 0 
L 43.21875 0 
L 43.21875 8.296875 
Q 40.140625 3.328125 35.546875 0.953125 
Q 30.953125 -1.421875 24.3125 -1.421875 
Q 15.921875 -1.421875 10.953125 3.296875 
Q 6 8.015625 6 15.921875 
Q 6 25.140625 12.171875 29.828125 
Q 18.359375 34.515625 30.609375 34.515625 
L 43.21875 34.515625 
L 43.21875 35.40625 
Q 43.21875 41.609375 39.140625 45 
Q 35.0625 48.390625 27.6875 48.390625 
Q 23 48.390625 18.546875 47.265625 
Q 14.109375 46.140625 10.015625 43.890625 
L 10.015625 52.203125 
Q 14.9375 54.109375 19.578125 55.046875 
Q 24.21875 56 28.609375 56 
Q 40.484375 56 46.34375 49.84375 
Q 52.203125 43.703125 52.203125 31.203125 
" id="DejaVuSans-61"/>
      <path d="M 45.40625 46.390625 
L 45.40625 75.984375 
L 54.390625 75.984375 
L 54.390625 0 
L 45.40625 0 
L 45.40625 8.203125 
Q 42.578125 3.328125 38.25 0.953125 
Q 33.9375 -1.421875 27.875 -1.421875 
Q 17.96875 -1.421875 11.734375 6.484375 
Q 5.515625 14.40625 5.515625 27.296875 
Q 5.515625 40.1875 11.734375 48.09375 
Q 17.96875 56 27.875 56 
Q 33.9375 56 38.25 53.625 
Q 42.578125 51.265625 45.40625 46.390625 
M 14.796875 27.296875 
Q 14.796875 17.390625 18.875 11.75 
Q 22.953125 6.109375 30.078125 6.109375 
Q 37.203125 6.109375 41.296875 11.75 
Q 45.40625 17.390625 45.40625 27.296875 
Q 45.40625 37.203125 41.296875 42.84375 
Q 37.203125 48.484375 30.078125 48.484375 
Q 22.953125 48.484375 18.875 42.84375 
Q 14.796875 37.203125 14.796875 27.296875 
" id="DejaVuSans-64"/>
     </defs>
     <g transform="translate(84.787449 188.877951)scale(0.08 -0.08)">
      <use transform="translate(0 0.234375)" xlink:href="#DejaVuSans-Oblique-3b8"/>
      <use transform="translate(61.181641 0.234375)" xlink:href="#DejaVuSans-20"/>
      <use transform="translate(92.96875 0.234375)" xlink:href="#DejaVuSans-28"/>
      <use transform="translate(131.982422 0.234375)" xlink:href="#DejaVuSans-72"/>
      <use transform="translate(173.095703 0.234375)" xlink:href="#DejaVuSans-61"/>
      <use transform="translate(234.375 0.234375)" xlink:href="#DejaVuSans-64"/>
      <use transform="translate(297.851562 0.234375)" xlink:href="#DejaVuSans-29"/>
     </g>
    </g>
   </g>
   <g id="matplotlib.axis_6">
    <g id="ytick_7">
     <g id="line2d_18">
      <g>
       <use style="stroke:#000000;stroke-width:0.8;" x="39.684932" xlink:href="#m522996f41e" y="161.879201"/>
      </g>
     </g>
    </g>
    <g id="ytick_8">
     <g id="line2d_19">
      <g>
       <use style="stroke:#000000;stroke-width:0.8;" x="39.684932" xlink:href="#m522996f41e" y="136.263902"/>
      </g>
     </g>
    </g>
    <g id="ytick_9">
     <g id="line2d_20">
      <g>
       <use style="stroke:#000000;stroke-width:0.8;" x="39.684932" xlink:href="#m522996f41e" y="110.648602"/>
      </g>
     </g>
    </g>
    <g id="text_9">
     <!-- $p(\theta)$ -->
     <defs>
      <path d="M 49.609375 33.6875 
Q 49.609375 40.875 46.484375 44.671875 
Q 43.359375 48.484375 37.5 48.484375 
Q 33.5 48.484375 29.859375 46.4375 
Q 26.21875 44.390625 23.390625 40.484375 
Q 20.609375 36.625 18.9375 31.15625 
Q 17.28125 25.6875 17.28125 20.3125 
Q 17.28125 13.484375 20.40625 9.796875 
Q 23.53125 6.109375 29.296875 6.109375 
Q 33.546875 6.109375 37.1875 8.109375 
Q 40.828125 10.109375 43.40625 13.921875 
Q 46.1875 17.921875 47.890625 23.34375 
Q 49.609375 28.765625 49.609375 33.6875 
M 21.78125 46.390625 
Q 25.390625 51.125 30.296875 53.5625 
Q 35.203125 56 41.21875 56 
Q 49.609375 56 54.25 50.5 
Q 58.890625 45.015625 58.890625 35.109375 
Q 58.890625 27 56 19.65625 
Q 53.125 12.3125 47.703125 6.5 
Q 44.09375 2.640625 39.546875 0.609375 
Q 35.015625 -1.421875 29.984375 -1.421875 
Q 24.171875 -1.421875 20.21875 1 
Q 16.265625 3.421875 14.3125 8.203125 
L 8.6875 -20.796875 
L -0.296875 -20.796875 
L 14.40625 54.6875 
L 23.390625 54.6875 
z
" id="DejaVuSans-Oblique-70"/>
     </defs>
     <g transform="translate(27.004932 136.128373)rotate(-90)scale(0.08 -0.08)">
      <use transform="translate(0 0.234375)" xlink:href="#DejaVuSans-Oblique-70"/>
      <use transform="translate(63.476562 0.234375)" xlink:href="#DejaVuSans-28"/>
      <use transform="translate(102.490234 0.234375)" xlink:href="#DejaVuSans-Oblique-3b8"/>
      <use transform="translate(163.671875 0.234375)" xlink:href="#DejaVuSans-29"/>
     </g>
    </g>
   </g>
   <g id="LineCollection_6">
    <path clip-path="url(#p560b2af3e0)" d="M 42.579202 140.533118 
L 158.746083 140.533118 
" style="fill:none;stroke:#ff0000;stroke-dasharray:5.6,2.4;stroke-dashoffset:0;stroke-opacity:0.6;stroke-width:0.5;"/>
   </g>
   <g id="patch_34">
    <path d="M 39.684932 161.879201 
L 39.684932 94.137544 
" style="fill:none;stroke:#000000;stroke-linecap:square;stroke-linejoin:miter;stroke-width:0.8;"/>
   </g>
   <g id="patch_35">
    <path d="M 39.684932 161.879201 
L 156.849967 161.879201 
" style="fill:none;stroke:#000000;stroke-linecap:square;stroke-linejoin:miter;stroke-width:0.8;"/>
   </g>
  </g>
  <g id="axes_4">
   <g id="patch_36">
    <path d="M 168.566471 161.879201 
L 285.731507 161.879201 
L 285.731507 94.137544 
L 168.566471 94.137544 
z
" style="fill:#ffffff;"/>
   </g>
   <g id="matplotlib.axis_7">
    <g id="xtick_10">
     <g id="line2d_21">
      <g>
       <use style="stroke:#000000;stroke-width:0.8;" x="169.664347" xlink:href="#me3adc89383" y="161.879201"/>
      </g>
     </g>
     <g id="text_10">
      <!-- $\frac{-\pi}{2}$ -->
      <g transform="translate(165.104347 175.599201)scale(0.08 -0.08)">
       <use transform="translate(0 45.71875)scale(0.7)" xlink:href="#DejaVuSans-2212"/>
       <use transform="translate(58.652344 45.71875)scale(0.7)" xlink:href="#DejaVuSans-Oblique-3c0"/>
       <use transform="translate(28 -38.81875)scale(0.7)" xlink:href="#DejaVuSans-32"/>
       <path d="M 0 19.384375 
L 0 25.634375 
L 100.795898 25.634375 
L 100.795898 19.384375 
L 0 19.384375 
z
"/>
      </g>
     </g>
    </g>
    <g id="xtick_11">
     <g id="line2d_22">
      <g>
       <use style="stroke:#000000;stroke-width:0.8;" x="227.148989" xlink:href="#me3adc89383" y="161.879201"/>
      </g>
     </g>
     <g id="text_11">
      <!-- $0$ -->
      <g transform="translate(224.588989 174.957951)scale(0.08 -0.08)">
       <use transform="translate(0 0.78125)" xlink:href="#DejaVuSans-30"/>
      </g>
     </g>
    </g>
    <g id="xtick_12">
     <g id="line2d_23">
      <g>
       <use style="stroke:#000000;stroke-width:0.8;" x="284.633631" xlink:href="#me3adc89383" y="161.879201"/>
      </g>
     </g>
     <g id="text_12">
      <!-- $\frac{\pi}{2}$ -->
      <g transform="translate(282.313631 175.599201)scale(0.08 -0.08)">
       <use transform="translate(1 45.71875)scale(0.7)" xlink:href="#DejaVuSans-Oblique-3c0"/>
       <use transform="translate(0 -38.81875)scale(0.7)" xlink:href="#DejaVuSans-32"/>
       <path d="M 0 19.384375 
L 0 25.634375 
L 44.536133 25.634375 
L 44.536133 19.384375 
L 0 19.384375 
z
"/>
      </g>
     </g>
    </g>
    <g id="text_13">
     <!-- $\theta$ (rad) -->
     <g transform="translate(213.668989 188.877951)scale(0.08 -0.08)">
      <use transform="translate(0 0.234375)" xlink:href="#DejaVuSans-Oblique-3b8"/>
      <use transform="translate(61.181641 0.234375)" xlink:href="#DejaVuSans-20"/>
      <use transform="translate(92.96875 0.234375)" xlink:href="#DejaVuSans-28"/>
      <use transform="translate(131.982422 0.234375)" xlink:href="#DejaVuSans-72"/>
      <use transform="translate(173.095703 0.234375)" xlink:href="#DejaVuSans-61"/>
      <use transform="translate(234.375 0.234375)" xlink:href="#DejaVuSans-64"/>
      <use transform="translate(297.851562 0.234375)" xlink:href="#DejaVuSans-29"/>
     </g>
    </g>
   </g>
   <g id="matplotlib.axis_8"/>
   <g id="LineCollection_7">
    <path clip-path="url(#p3a829a8b20)" d="M 169.664347 161.879201 
L 169.664347 100.295877 
" style="fill:none;stroke:#ff0000;stroke-opacity:0.6;stroke-width:0.5;"/>
    <path clip-path="url(#p3a829a8b20)" d="M 171.249321 161.879201 
L 171.249321 100.295877 
" style="fill:none;stroke:#ff0000;stroke-opacity:0.6;stroke-width:0.5;"/>
    <path clip-path="url(#p3a829a8b20)" d="M 174.249459 161.879201 
L 174.249459 100.295877 
" style="fill:none;stroke:#ff0000;stroke-opacity:0.6;stroke-width:0.5;"/>
    <path clip-path="url(#p3a829a8b20)" d="M 179.648686 161.879201 
L 179.648686 100.295877 
" style="fill:none;stroke:#ff0000;stroke-opacity:0.6;stroke-width:0.5;"/>
    <path clip-path="url(#p3a829a8b20)" d="M 186.496469 161.879201 
L 186.496469 100.295877 
" style="fill:none;stroke:#ff0000;stroke-opacity:0.6;stroke-width:0.5;"/>
    <path clip-path="url(#p3a829a8b20)" d="M 193.265077 161.879201 
L 193.265077 100.295877 
" style="fill:none;stroke:#ff0000;stroke-opacity:0.6;stroke-width:0.5;"/>
    <path clip-path="url(#p3a829a8b20)" d="M 199.929032 161.879201 
L 199.929032 100.295877 
" style="fill:none;stroke:#ff0000;stroke-opacity:0.6;stroke-width:0.5;"/>
    <path clip-path="url(#p3a829a8b20)" d="M 206.421587 161.879201 
L 206.421587 100.295877 
" style="fill:none;stroke:#ff0000;stroke-opacity:0.6;stroke-width:0.5;"/>
    <path clip-path="url(#p3a829a8b20)" d="M 212.49628 161.879201 
L 212.49628 100.295877 
" style="fill:none;stroke:#ff0000;stroke-opacity:0.6;stroke-width:0.5;"/>
    <path clip-path="url(#p3a829a8b20)" d="M 217.943327 161.879201 
L 217.943327 100.295877 
" style="fill:none;stroke:#ff0000;stroke-opacity:0.6;stroke-width:0.5;"/>
    <path clip-path="url(#p3a829a8b20)" d="M 222.050151 161.879201 
L 222.050151 100.295877 
" style="fill:none;stroke:#ff0000;stroke-opacity:0.6;stroke-width:0.5;"/>
    <path clip-path="url(#p3a829a8b20)" d="M 225.131418 161.879201 
L 225.131418 100.295877 
" style="fill:none;stroke:#ff0000;stroke-opacity:0.6;stroke-width:0.5;"/>
    <path clip-path="url(#p3a829a8b20)" d="M 226.881584 161.879201 
L 226.881584 100.295877 
" style="fill:none;stroke:#ff0000;stroke-opacity:0.6;stroke-width:0.5;"/>
    <path clip-path="url(#p3a829a8b20)" d="M 228.63175 161.879201 
L 228.63175 100.295877 
" style="fill:none;stroke:#ff0000;stroke-opacity:0.6;stroke-width:0.5;"/>
    <path clip-path="url(#p3a829a8b20)" d="M 231.31759 161.879201 
L 231.31759 100.295877 
" style="fill:none;stroke:#ff0000;stroke-opacity:0.6;stroke-width:0.5;"/>
    <path clip-path="url(#p3a829a8b20)" d="M 235.323679 161.879201 
L 235.323679 100.295877 
" style="fill:none;stroke:#ff0000;stroke-opacity:0.6;stroke-width:0.5;"/>
    <path clip-path="url(#p3a829a8b20)" d="M 240.800772 161.879201 
L 240.800772 100.295877 
" style="fill:none;stroke:#ff0000;stroke-opacity:0.6;stroke-width:0.5;"/>
    <path clip-path="url(#p3a829a8b20)" d="M 246.925201 161.879201 
L 246.925201 100.295877 
" style="fill:none;stroke:#ff0000;stroke-opacity:0.6;stroke-width:0.5;"/>
    <path clip-path="url(#p3a829a8b20)" d="M 253.463961 161.879201 
L 253.463961 100.295877 
" style="fill:none;stroke:#ff0000;stroke-opacity:0.6;stroke-width:0.5;"/>
    <path clip-path="url(#p3a829a8b20)" d="M 260.501399 161.879201 
L 260.501399 100.295877 
" style="fill:none;stroke:#ff0000;stroke-opacity:0.6;stroke-width:0.5;"/>
    <path clip-path="url(#p3a829a8b20)" d="M 267.39833 161.879201 
L 267.39833 100.295877 
" style="fill:none;stroke:#ff0000;stroke-opacity:0.6;stroke-width:0.5;"/>
    <path clip-path="url(#p3a829a8b20)" d="M 274.158693 161.879201 
L 274.158693 100.295877 
" style="fill:none;stroke:#ff0000;stroke-opacity:0.6;stroke-width:0.5;"/>
    <path clip-path="url(#p3a829a8b20)" d="M 279.900463 161.879201 
L 279.900463 100.295877 
" style="fill:none;stroke:#ff0000;stroke-opacity:0.6;stroke-width:0.5;"/>
    <path clip-path="url(#p3a829a8b20)" d="M 283.048657 161.879201 
L 283.048657 100.295877 
" style="fill:none;stroke:#ff0000;stroke-opacity:0.6;stroke-width:0.5;"/>
    <path clip-path="url(#p3a829a8b20)" d="M 284.633631 161.879201 
L 284.633631 100.295877 
" style="fill:none;stroke:#ff0000;stroke-opacity:0.6;stroke-width:0.5;"/>
   </g>
   <g id="LineCollection_8">
    <path clip-path="url(#p3a829a8b20)" d="M 169.664347 161.879201 
L 169.664347 100.295877 
" style="fill:none;stroke:#ff0000;stroke-opacity:0.6;stroke-width:0.5;"/>
    <path clip-path="url(#p3a829a8b20)" d="M 284.633631 161.879201 
L 284.633631 100.295877 
" style="fill:none;stroke:#ff0000;stroke-opacity:0.6;stroke-width:0.5;"/>
   </g>
   <g id="patch_37">
    <path d="M 168.566471 161.879201 
L 168.566471 94.137544 
" style="fill:none;stroke:#000000;stroke-linecap:square;stroke-linejoin:miter;stroke-width:0.8;"/>
   </g>
   <g id="patch_38">
    <path d="M 168.566471 161.879201 
L 285.731507 161.879201 
" style="fill:none;stroke:#000000;stroke-linecap:square;stroke-linejoin:miter;stroke-width:0.8;"/>
   </g>
  </g>
 </g>
 <defs>
  <clipPath id="pa0092e218d">
   <rect height="67.741657" width="117.165036" x="39.684932" y="19.621721"/>
  </clipPath>
  <clipPath id="pfcd33e668f">
   <rect height="67.741657" width="117.165036" x="168.566471" y="19.621721"/>
  </clipPath>
  <clipPath id="p560b2af3e0">
   <rect height="67.741657" width="117.165036" x="39.684932" y="94.137544"/>
  </clipPath>
  <clipPath id="p3a829a8b20">
   <rect height="67.741657" width="117.165036" x="168.566471" y="94.137544"/>
  </clipPath>
 </defs>
</svg>
