<?xml version="1.0" encoding="utf-8" standalone="no"?>
<!DOCTYPE svg PUBLIC "-//W3C//DTD SVG 1.1//EN"
  "http://www.w3.org/Graphics/SVG/1.1/DTD/svg11.dtd">
<!-- Created with matplotlib (http://matplotlib.org/) -->
<svg height="196.217737pt" version="1.1" viewBox="0 0 317.480299 196.217737" width="317.480299pt" xmlns="http://www.w3.org/2000/svg" xmlns:xlink="http://www.w3.org/1999/xlink">
 <defs>
  <style type="text/css">
*{stroke-linecap:butt;stroke-linejoin:round;}
  </style>
 </defs>
 <g id="figure_1">
  <g id="patch_1">
   <path d="M 0 196.217737 
L 317.480299 196.217737 
L 317.480299 0 
L 0 0 
z
" style="fill:#ffffff;"/>
  </g>
  <g id="axes_1">
   <g id="patch_2">
    <path d="M 47.622045 162.860722 
L 285.732269 162.860722 
L 285.732269 23.546128 
L 47.622045 23.546128 
z
" style="fill:#ffffff;"/>
   </g>
   <g id="matplotlib.axis_1">
    <g id="xtick_1">
     <g id="line2d_1">
      <defs>
       <path d="M 0 0 
L 0 3.5 
" id="mc75ad53a65" style="stroke:#000000;stroke-width:0.8;"/>
      </defs>
      <g>
       <use style="stroke:#000000;stroke-width:0.8;" x="58.445237" xlink:href="#mc75ad53a65" y="160.181595"/>
      </g>
     </g>
     <g id="text_1">
      <!-- 0 -->
      <defs>
       <path d="M 31.78125 66.40625 
Q 24.171875 66.40625 20.328125 58.90625 
Q 16.5 51.421875 16.5 36.375 
Q 16.5 21.390625 20.328125 13.890625 
Q 24.171875 6.390625 31.78125 6.390625 
Q 39.453125 6.390625 43.28125 13.890625 
Q 47.125 21.390625 47.125 36.375 
Q 47.125 51.421875 43.28125 58.90625 
Q 39.453125 66.40625 31.78125 66.40625 
z
M 31.78125 74.21875 
Q 44.046875 74.21875 50.515625 64.515625 
Q 56.984375 54.828125 56.984375 36.375 
Q 56.984375 17.96875 50.515625 8.265625 
Q 44.046875 -1.421875 31.78125 -1.421875 
Q 19.53125 -1.421875 13.0625 8.265625 
Q 6.59375 17.96875 6.59375 36.375 
Q 6.59375 54.828125 13.0625 64.515625 
Q 19.53125 74.21875 31.78125 74.21875 
z
" id="DejaVuSans-30"/>
      </defs>
      <g transform="translate(55.900237 173.260345)scale(0.08 -0.08)">
       <use xlink:href="#DejaVuSans-30"/>
      </g>
     </g>
    </g>
    <g id="xtick_2">
     <g id="line2d_2">
      <g>
       <use style="stroke:#000000;stroke-width:0.8;" x="87.253793" xlink:href="#mc75ad53a65" y="160.181595"/>
      </g>
     </g>
     <g id="text_2">
      <!-- 1 -->
      <defs>
       <path d="M 12.40625 8.296875 
L 28.515625 8.296875 
L 28.515625 63.921875 
L 10.984375 60.40625 
L 10.984375 69.390625 
L 28.421875 72.90625 
L 38.28125 72.90625 
L 38.28125 8.296875 
L 54.390625 8.296875 
L 54.390625 0 
L 12.40625 0 
z
" id="DejaVuSans-31"/>
      </defs>
      <g transform="translate(84.708793 173.260345)scale(0.08 -0.08)">
       <use xlink:href="#DejaVuSans-31"/>
      </g>
     </g>
    </g>
    <g id="xtick_3">
     <g id="line2d_3">
      <g>
       <use style="stroke:#000000;stroke-width:0.8;" x="116.06235" xlink:href="#mc75ad53a65" y="160.181595"/>
      </g>
     </g>
     <g id="text_3">
      <!-- 2 -->
      <defs>
       <path d="M 19.1875 8.296875 
L 53.609375 8.296875 
L 53.609375 0 
L 7.328125 0 
L 7.328125 8.296875 
Q 12.9375 14.109375 22.625 23.890625 
Q 32.328125 33.6875 34.8125 36.53125 
Q 39.546875 41.84375 41.421875 45.53125 
Q 43.3125 49.21875 43.3125 52.78125 
Q 43.3125 58.59375 39.234375 62.25 
Q 35.15625 65.921875 28.609375 65.921875 
Q 23.96875 65.921875 18.8125 64.3125 
Q 13.671875 62.703125 7.8125 59.421875 
L 7.8125 69.390625 
Q 13.765625 71.78125 18.9375 73 
Q 24.125 74.21875 28.421875 74.21875 
Q 39.75 74.21875 46.484375 68.546875 
Q 53.21875 62.890625 53.21875 53.421875 
Q 53.21875 48.921875 51.53125 44.890625 
Q 49.859375 40.875 45.40625 35.40625 
Q 44.1875 33.984375 37.640625 27.21875 
Q 31.109375 20.453125 19.1875 8.296875 
z
" id="DejaVuSans-32"/>
      </defs>
      <g transform="translate(113.51735 173.260345)scale(0.08 -0.08)">
       <use xlink:href="#DejaVuSans-32"/>
      </g>
     </g>
    </g>
    <g id="xtick_4">
     <g id="line2d_4">
      <g>
       <use style="stroke:#000000;stroke-width:0.8;" x="144.870907" xlink:href="#mc75ad53a65" y="160.181595"/>
      </g>
     </g>
     <g id="text_4">
      <!-- 3 -->
      <defs>
       <path d="M 40.578125 39.3125 
Q 47.65625 37.796875 51.625 33 
Q 55.609375 28.21875 55.609375 21.1875 
Q 55.609375 10.40625 48.1875 4.484375 
Q 40.765625 -1.421875 27.09375 -1.421875 
Q 22.515625 -1.421875 17.65625 -0.515625 
Q 12.796875 0.390625 7.625 2.203125 
L 7.625 11.71875 
Q 11.71875 9.328125 16.59375 8.109375 
Q 21.484375 6.890625 26.8125 6.890625 
Q 36.078125 6.890625 40.9375 10.546875 
Q 45.796875 14.203125 45.796875 21.1875 
Q 45.796875 27.640625 41.28125 31.265625 
Q 36.765625 34.90625 28.71875 34.90625 
L 20.21875 34.90625 
L 20.21875 43.015625 
L 29.109375 43.015625 
Q 36.375 43.015625 40.234375 45.921875 
Q 44.09375 48.828125 44.09375 54.296875 
Q 44.09375 59.90625 40.109375 62.90625 
Q 36.140625 65.921875 28.71875 65.921875 
Q 24.65625 65.921875 20.015625 65.03125 
Q 15.375 64.15625 9.8125 62.3125 
L 9.8125 71.09375 
Q 15.4375 72.65625 20.34375 73.4375 
Q 25.25 74.21875 29.59375 74.21875 
Q 40.828125 74.21875 47.359375 69.109375 
Q 53.90625 64.015625 53.90625 55.328125 
Q 53.90625 49.265625 50.4375 45.09375 
Q 46.96875 40.921875 40.578125 39.3125 
z
" id="DejaVuSans-33"/>
      </defs>
      <g transform="translate(142.325907 173.260345)scale(0.08 -0.08)">
       <use xlink:href="#DejaVuSans-33"/>
      </g>
     </g>
    </g>
    <g id="xtick_5">
     <g id="line2d_5">
      <g>
       <use style="stroke:#000000;stroke-width:0.8;" x="173.679463" xlink:href="#mc75ad53a65" y="160.181595"/>
      </g>
     </g>
     <g id="text_5">
      <!-- 4 -->
      <defs>
       <path d="M 37.796875 64.3125 
L 12.890625 25.390625 
L 37.796875 25.390625 
z
M 35.203125 72.90625 
L 47.609375 72.90625 
L 47.609375 25.390625 
L 58.015625 25.390625 
L 58.015625 17.1875 
L 47.609375 17.1875 
L 47.609375 0 
L 37.796875 0 
L 37.796875 17.1875 
L 4.890625 17.1875 
L 4.890625 26.703125 
z
" id="DejaVuSans-34"/>
      </defs>
      <g transform="translate(171.134463 173.260345)scale(0.08 -0.08)">
       <use xlink:href="#DejaVuSans-34"/>
      </g>
     </g>
    </g>
    <g id="xtick_6">
     <g id="line2d_6">
      <g>
       <use style="stroke:#000000;stroke-width:0.8;" x="202.48802" xlink:href="#mc75ad53a65" y="160.181595"/>
      </g>
     </g>
     <g id="text_6">
      <!-- 5 -->
      <defs>
       <path d="M 10.796875 72.90625 
L 49.515625 72.90625 
L 49.515625 64.59375 
L 19.828125 64.59375 
L 19.828125 46.734375 
Q 21.96875 47.46875 24.109375 47.828125 
Q 26.265625 48.1875 28.421875 48.1875 
Q 40.625 48.1875 47.75 41.5 
Q 54.890625 34.8125 54.890625 23.390625 
Q 54.890625 11.625 47.5625 5.09375 
Q 40.234375 -1.421875 26.90625 -1.421875 
Q 22.3125 -1.421875 17.546875 -0.640625 
Q 12.796875 0.140625 7.71875 1.703125 
L 7.71875 11.625 
Q 12.109375 9.234375 16.796875 8.0625 
Q 21.484375 6.890625 26.703125 6.890625 
Q 35.15625 6.890625 40.078125 11.328125 
Q 45.015625 15.765625 45.015625 23.390625 
Q 45.015625 31 40.078125 35.4375 
Q 35.15625 39.890625 26.703125 39.890625 
Q 22.75 39.890625 18.8125 39.015625 
Q 14.890625 38.140625 10.796875 36.28125 
z
" id="DejaVuSans-35"/>
      </defs>
      <g transform="translate(199.94302 173.260345)scale(0.08 -0.08)">
       <use xlink:href="#DejaVuSans-35"/>
      </g>
     </g>
    </g>
    <g id="xtick_7">
     <g id="line2d_7">
      <g>
       <use style="stroke:#000000;stroke-width:0.8;" x="231.296576" xlink:href="#mc75ad53a65" y="160.181595"/>
      </g>
     </g>
     <g id="text_7">
      <!-- 6 -->
      <defs>
       <path d="M 33.015625 40.375 
Q 26.375 40.375 22.484375 35.828125 
Q 18.609375 31.296875 18.609375 23.390625 
Q 18.609375 15.53125 22.484375 10.953125 
Q 26.375 6.390625 33.015625 6.390625 
Q 39.65625 6.390625 43.53125 10.953125 
Q 47.40625 15.53125 47.40625 23.390625 
Q 47.40625 31.296875 43.53125 35.828125 
Q 39.65625 40.375 33.015625 40.375 
z
M 52.59375 71.296875 
L 52.59375 62.3125 
Q 48.875 64.0625 45.09375 64.984375 
Q 41.3125 65.921875 37.59375 65.921875 
Q 27.828125 65.921875 22.671875 59.328125 
Q 17.53125 52.734375 16.796875 39.40625 
Q 19.671875 43.65625 24.015625 45.921875 
Q 28.375 48.1875 33.59375 48.1875 
Q 44.578125 48.1875 50.953125 41.515625 
Q 57.328125 34.859375 57.328125 23.390625 
Q 57.328125 12.15625 50.6875 5.359375 
Q 44.046875 -1.421875 33.015625 -1.421875 
Q 20.359375 -1.421875 13.671875 8.265625 
Q 6.984375 17.96875 6.984375 36.375 
Q 6.984375 53.65625 15.1875 63.9375 
Q 23.390625 74.21875 37.203125 74.21875 
Q 40.921875 74.21875 44.703125 73.484375 
Q 48.484375 72.75 52.59375 71.296875 
z
" id="DejaVuSans-36"/>
      </defs>
      <g transform="translate(228.751576 173.260345)scale(0.08 -0.08)">
       <use xlink:href="#DejaVuSans-36"/>
      </g>
     </g>
    </g>
    <g id="xtick_8">
     <g id="line2d_8">
      <g>
       <use style="stroke:#000000;stroke-width:0.8;" x="260.105133" xlink:href="#mc75ad53a65" y="160.181595"/>
      </g>
     </g>
     <g id="text_8">
      <!-- 7 -->
      <defs>
       <path d="M 8.203125 72.90625 
L 55.078125 72.90625 
L 55.078125 68.703125 
L 28.609375 0 
L 18.3125 0 
L 43.21875 64.59375 
L 8.203125 64.59375 
z
" id="DejaVuSans-37"/>
      </defs>
      <g transform="translate(257.560133 173.260345)scale(0.08 -0.08)">
       <use xlink:href="#DejaVuSans-37"/>
      </g>
     </g>
    </g>
    <g id="text_9">
     <!-- relative $\ell_0$ pseudo-norm (bits / pixel) -->
     <defs>
      <path d="M 41.109375 46.296875 
Q 39.59375 47.171875 37.8125 47.578125 
Q 36.03125 48 33.890625 48 
Q 26.265625 48 22.1875 43.046875 
Q 18.109375 38.09375 18.109375 28.8125 
L 18.109375 0 
L 9.078125 0 
L 9.078125 54.6875 
L 18.109375 54.6875 
L 18.109375 46.1875 
Q 20.953125 51.171875 25.484375 53.578125 
Q 30.03125 56 36.53125 56 
Q 37.453125 56 38.578125 55.875 
Q 39.703125 55.765625 41.0625 55.515625 
z
" id="DejaVuSans-72"/>
      <path d="M 56.203125 29.59375 
L 56.203125 25.203125 
L 14.890625 25.203125 
Q 15.484375 15.921875 20.484375 11.0625 
Q 25.484375 6.203125 34.421875 6.203125 
Q 39.59375 6.203125 44.453125 7.46875 
Q 49.3125 8.734375 54.109375 11.28125 
L 54.109375 2.78125 
Q 49.265625 0.734375 44.1875 -0.34375 
Q 39.109375 -1.421875 33.890625 -1.421875 
Q 20.796875 -1.421875 13.15625 6.1875 
Q 5.515625 13.8125 5.515625 26.8125 
Q 5.515625 40.234375 12.765625 48.109375 
Q 20.015625 56 32.328125 56 
Q 43.359375 56 49.78125 48.890625 
Q 56.203125 41.796875 56.203125 29.59375 
z
M 47.21875 32.234375 
Q 47.125 39.59375 43.09375 43.984375 
Q 39.0625 48.390625 32.421875 48.390625 
Q 24.90625 48.390625 20.390625 44.140625 
Q 15.875 39.890625 15.1875 32.171875 
z
" id="DejaVuSans-65"/>
      <path d="M 9.421875 75.984375 
L 18.40625 75.984375 
L 18.40625 0 
L 9.421875 0 
z
" id="DejaVuSans-6c"/>
      <path d="M 34.28125 27.484375 
Q 23.390625 27.484375 19.1875 25 
Q 14.984375 22.515625 14.984375 16.5 
Q 14.984375 11.71875 18.140625 8.90625 
Q 21.296875 6.109375 26.703125 6.109375 
Q 34.1875 6.109375 38.703125 11.40625 
Q 43.21875 16.703125 43.21875 25.484375 
L 43.21875 27.484375 
z
M 52.203125 31.203125 
L 52.203125 0 
L 43.21875 0 
L 43.21875 8.296875 
Q 40.140625 3.328125 35.546875 0.953125 
Q 30.953125 -1.421875 24.3125 -1.421875 
Q 15.921875 -1.421875 10.953125 3.296875 
Q 6 8.015625 6 15.921875 
Q 6 25.140625 12.171875 29.828125 
Q 18.359375 34.515625 30.609375 34.515625 
L 43.21875 34.515625 
L 43.21875 35.40625 
Q 43.21875 41.609375 39.140625 45 
Q 35.0625 48.390625 27.6875 48.390625 
Q 23 48.390625 18.546875 47.265625 
Q 14.109375 46.140625 10.015625 43.890625 
L 10.015625 52.203125 
Q 14.9375 54.109375 19.578125 55.046875 
Q 24.21875 56 28.609375 56 
Q 40.484375 56 46.34375 49.84375 
Q 52.203125 43.703125 52.203125 31.203125 
z
" id="DejaVuSans-61"/>
      <path d="M 18.3125 70.21875 
L 18.3125 54.6875 
L 36.8125 54.6875 
L 36.8125 47.703125 
L 18.3125 47.703125 
L 18.3125 18.015625 
Q 18.3125 11.328125 20.140625 9.421875 
Q 21.96875 7.515625 27.59375 7.515625 
L 36.8125 7.515625 
L 36.8125 0 
L 27.59375 0 
Q 17.1875 0 13.234375 3.875 
Q 9.28125 7.765625 9.28125 18.015625 
L 9.28125 47.703125 
L 2.6875 47.703125 
L 2.6875 54.6875 
L 9.28125 54.6875 
L 9.28125 70.21875 
z
" id="DejaVuSans-74"/>
      <path d="M 9.421875 54.6875 
L 18.40625 54.6875 
L 18.40625 0 
L 9.421875 0 
z
M 9.421875 75.984375 
L 18.40625 75.984375 
L 18.40625 64.59375 
L 9.421875 64.59375 
z
" id="DejaVuSans-69"/>
      <path d="M 2.984375 54.6875 
L 12.5 54.6875 
L 29.59375 8.796875 
L 46.6875 54.6875 
L 56.203125 54.6875 
L 35.6875 0 
L 23.484375 0 
z
" id="DejaVuSans-76"/>
      <path id="DejaVuSans-20"/>
      <path d="M 14.84375 13.09375 
Q 16.84375 3.328125 21.09375 3.328125 
Q 23.921875 3.328125 27.59375 8.9375 
L 34.078125 8.9375 
Q 31.15625 3.953125 27.734375 1.375 
Q 24.03125 -1.421875 20.609375 -1.421875 
Q 12.984375 -1.421875 9.90625 5.375 
L 6.25 0 
L -1.375 0 
Q 3.90625 7.171875 7.8125 13.875 
Q 7.328125 17.671875 7.328125 21.828125 
Q 7.328125 29.25 8.84375 36.671875 
Q 14.546875 64.546875 19.625 70.265625 
Q 23.140625 74.21875 29.15625 74.21875 
Q 35.25 74.21875 35.25 65.765625 
Q 35.203125 61.96875 34.328125 57.421875 
Q 30.8125 38.8125 14.84375 13.09375 
z
M 14.796875 25.875 
Q 23.921875 42.875 26.703125 56.453125 
Q 28.171875 63.625 28.171875 65.484375 
Q 28.171875 68.84375 26.953125 68.84375 
Q 21.625 64.59375 16.890625 39.3125 
Q 15.578125 32.234375 14.796875 25.875 
z
" id="DejaVuSans-Oblique-2113"/>
      <path d="M 18.109375 8.203125 
L 18.109375 -20.796875 
L 9.078125 -20.796875 
L 9.078125 54.6875 
L 18.109375 54.6875 
L 18.109375 46.390625 
Q 20.953125 51.265625 25.265625 53.625 
Q 29.59375 56 35.59375 56 
Q 45.5625 56 51.78125 48.09375 
Q 58.015625 40.1875 58.015625 27.296875 
Q 58.015625 14.40625 51.78125 6.484375 
Q 45.5625 -1.421875 35.59375 -1.421875 
Q 29.59375 -1.421875 25.265625 0.953125 
Q 20.953125 3.328125 18.109375 8.203125 
z
M 48.6875 27.296875 
Q 48.6875 37.203125 44.609375 42.84375 
Q 40.53125 48.484375 33.40625 48.484375 
Q 26.265625 48.484375 22.1875 42.84375 
Q 18.109375 37.203125 18.109375 27.296875 
Q 18.109375 17.390625 22.1875 11.75 
Q 26.265625 6.109375 33.40625 6.109375 
Q 40.53125 6.109375 44.609375 11.75 
Q 48.6875 17.390625 48.6875 27.296875 
z
" id="DejaVuSans-70"/>
      <path d="M 44.28125 53.078125 
L 44.28125 44.578125 
Q 40.484375 46.53125 36.375 47.5 
Q 32.28125 48.484375 27.875 48.484375 
Q 21.1875 48.484375 17.84375 46.4375 
Q 14.5 44.390625 14.5 40.28125 
Q 14.5 37.15625 16.890625 35.375 
Q 19.28125 33.59375 26.515625 31.984375 
L 29.59375 31.296875 
Q 39.15625 29.25 43.1875 25.515625 
Q 47.21875 21.78125 47.21875 15.09375 
Q 47.21875 7.46875 41.1875 3.015625 
Q 35.15625 -1.421875 24.609375 -1.421875 
Q 20.21875 -1.421875 15.453125 -0.5625 
Q 10.6875 0.296875 5.421875 2 
L 5.421875 11.28125 
Q 10.40625 8.6875 15.234375 7.390625 
Q 20.0625 6.109375 24.8125 6.109375 
Q 31.15625 6.109375 34.5625 8.28125 
Q 37.984375 10.453125 37.984375 14.40625 
Q 37.984375 18.0625 35.515625 20.015625 
Q 33.0625 21.96875 24.703125 23.78125 
L 21.578125 24.515625 
Q 13.234375 26.265625 9.515625 29.90625 
Q 5.8125 33.546875 5.8125 39.890625 
Q 5.8125 47.609375 11.28125 51.796875 
Q 16.75 56 26.8125 56 
Q 31.78125 56 36.171875 55.265625 
Q 40.578125 54.546875 44.28125 53.078125 
z
" id="DejaVuSans-73"/>
      <path d="M 8.5 21.578125 
L 8.5 54.6875 
L 17.484375 54.6875 
L 17.484375 21.921875 
Q 17.484375 14.15625 20.5 10.265625 
Q 23.53125 6.390625 29.59375 6.390625 
Q 36.859375 6.390625 41.078125 11.03125 
Q 45.3125 15.671875 45.3125 23.6875 
L 45.3125 54.6875 
L 54.296875 54.6875 
L 54.296875 0 
L 45.3125 0 
L 45.3125 8.40625 
Q 42.046875 3.421875 37.71875 1 
Q 33.40625 -1.421875 27.6875 -1.421875 
Q 18.265625 -1.421875 13.375 4.4375 
Q 8.5 10.296875 8.5 21.578125 
z
M 31.109375 56 
z
" id="DejaVuSans-75"/>
      <path d="M 45.40625 46.390625 
L 45.40625 75.984375 
L 54.390625 75.984375 
L 54.390625 0 
L 45.40625 0 
L 45.40625 8.203125 
Q 42.578125 3.328125 38.25 0.953125 
Q 33.9375 -1.421875 27.875 -1.421875 
Q 17.96875 -1.421875 11.734375 6.484375 
Q 5.515625 14.40625 5.515625 27.296875 
Q 5.515625 40.1875 11.734375 48.09375 
Q 17.96875 56 27.875 56 
Q 33.9375 56 38.25 53.625 
Q 42.578125 51.265625 45.40625 46.390625 
z
M 14.796875 27.296875 
Q 14.796875 17.390625 18.875 11.75 
Q 22.953125 6.109375 30.078125 6.109375 
Q 37.203125 6.109375 41.296875 11.75 
Q 45.40625 17.390625 45.40625 27.296875 
Q 45.40625 37.203125 41.296875 42.84375 
Q 37.203125 48.484375 30.078125 48.484375 
Q 22.953125 48.484375 18.875 42.84375 
Q 14.796875 37.203125 14.796875 27.296875 
z
" id="DejaVuSans-64"/>
      <path d="M 30.609375 48.390625 
Q 23.390625 48.390625 19.1875 42.75 
Q 14.984375 37.109375 14.984375 27.296875 
Q 14.984375 17.484375 19.15625 11.84375 
Q 23.34375 6.203125 30.609375 6.203125 
Q 37.796875 6.203125 41.984375 11.859375 
Q 46.1875 17.53125 46.1875 27.296875 
Q 46.1875 37.015625 41.984375 42.703125 
Q 37.796875 48.390625 30.609375 48.390625 
z
M 30.609375 56 
Q 42.328125 56 49.015625 48.375 
Q 55.71875 40.765625 55.71875 27.296875 
Q 55.71875 13.875 49.015625 6.21875 
Q 42.328125 -1.421875 30.609375 -1.421875 
Q 18.84375 -1.421875 12.171875 6.21875 
Q 5.515625 13.875 5.515625 27.296875 
Q 5.515625 40.765625 12.171875 48.375 
Q 18.84375 56 30.609375 56 
z
" id="DejaVuSans-6f"/>
      <path d="M 4.890625 31.390625 
L 31.203125 31.390625 
L 31.203125 23.390625 
L 4.890625 23.390625 
z
" id="DejaVuSans-2d"/>
      <path d="M 54.890625 33.015625 
L 54.890625 0 
L 45.90625 0 
L 45.90625 32.71875 
Q 45.90625 40.484375 42.875 44.328125 
Q 39.84375 48.1875 33.796875 48.1875 
Q 26.515625 48.1875 22.3125 43.546875 
Q 18.109375 38.921875 18.109375 30.90625 
L 18.109375 0 
L 9.078125 0 
L 9.078125 54.6875 
L 18.109375 54.6875 
L 18.109375 46.1875 
Q 21.34375 51.125 25.703125 53.5625 
Q 30.078125 56 35.796875 56 
Q 45.21875 56 50.046875 50.171875 
Q 54.890625 44.34375 54.890625 33.015625 
z
" id="DejaVuSans-6e"/>
      <path d="M 52 44.1875 
Q 55.375 50.25 60.0625 53.125 
Q 64.75 56 71.09375 56 
Q 79.640625 56 84.28125 50.015625 
Q 88.921875 44.046875 88.921875 33.015625 
L 88.921875 0 
L 79.890625 0 
L 79.890625 32.71875 
Q 79.890625 40.578125 77.09375 44.375 
Q 74.3125 48.1875 68.609375 48.1875 
Q 61.625 48.1875 57.5625 43.546875 
Q 53.515625 38.921875 53.515625 30.90625 
L 53.515625 0 
L 44.484375 0 
L 44.484375 32.71875 
Q 44.484375 40.625 41.703125 44.40625 
Q 38.921875 48.1875 33.109375 48.1875 
Q 26.21875 48.1875 22.15625 43.53125 
Q 18.109375 38.875 18.109375 30.90625 
L 18.109375 0 
L 9.078125 0 
L 9.078125 54.6875 
L 18.109375 54.6875 
L 18.109375 46.1875 
Q 21.1875 51.21875 25.484375 53.609375 
Q 29.78125 56 35.6875 56 
Q 41.65625 56 45.828125 52.96875 
Q 50 49.953125 52 44.1875 
z
" id="DejaVuSans-6d"/>
      <path d="M 31 75.875 
Q 24.46875 64.65625 21.28125 53.65625 
Q 18.109375 42.671875 18.109375 31.390625 
Q 18.109375 20.125 21.3125 9.0625 
Q 24.515625 -2 31 -13.1875 
L 23.1875 -13.1875 
Q 15.875 -1.703125 12.234375 9.375 
Q 8.59375 20.453125 8.59375 31.390625 
Q 8.59375 42.28125 12.203125 53.3125 
Q 15.828125 64.359375 23.1875 75.875 
z
" id="DejaVuSans-28"/>
      <path d="M 48.6875 27.296875 
Q 48.6875 37.203125 44.609375 42.84375 
Q 40.53125 48.484375 33.40625 48.484375 
Q 26.265625 48.484375 22.1875 42.84375 
Q 18.109375 37.203125 18.109375 27.296875 
Q 18.109375 17.390625 22.1875 11.75 
Q 26.265625 6.109375 33.40625 6.109375 
Q 40.53125 6.109375 44.609375 11.75 
Q 48.6875 17.390625 48.6875 27.296875 
z
M 18.109375 46.390625 
Q 20.953125 51.265625 25.265625 53.625 
Q 29.59375 56 35.59375 56 
Q 45.5625 56 51.78125 48.09375 
Q 58.015625 40.1875 58.015625 27.296875 
Q 58.015625 14.40625 51.78125 6.484375 
Q 45.5625 -1.421875 35.59375 -1.421875 
Q 29.59375 -1.421875 25.265625 0.953125 
Q 20.953125 3.328125 18.109375 8.203125 
L 18.109375 0 
L 9.078125 0 
L 9.078125 75.984375 
L 18.109375 75.984375 
z
" id="DejaVuSans-62"/>
      <path d="M 25.390625 72.90625 
L 33.6875 72.90625 
L 8.296875 -9.28125 
L 0 -9.28125 
z
" id="DejaVuSans-2f"/>
      <path d="M 54.890625 54.6875 
L 35.109375 28.078125 
L 55.90625 0 
L 45.3125 0 
L 29.390625 21.484375 
L 13.484375 0 
L 2.875 0 
L 24.125 28.609375 
L 4.6875 54.6875 
L 15.28125 54.6875 
L 29.78125 35.203125 
L 44.28125 54.6875 
z
" id="DejaVuSans-78"/>
      <path d="M 8.015625 75.875 
L 15.828125 75.875 
Q 23.140625 64.359375 26.78125 53.3125 
Q 30.421875 42.28125 30.421875 31.390625 
Q 30.421875 20.453125 26.78125 9.375 
Q 23.140625 -1.703125 15.828125 -13.1875 
L 8.015625 -13.1875 
Q 14.5 -2 17.703125 9.0625 
Q 20.90625 20.125 20.90625 31.390625 
Q 20.90625 42.671875 17.703125 53.65625 
Q 14.5 64.65625 8.015625 75.875 
z
" id="DejaVuSans-29"/>
     </defs>
     <g transform="translate(93.637157 185.004095)scale(0.08 -0.08)">
      <use transform="translate(0 0.015625)" xlink:href="#DejaVuSans-72"/>
      <use transform="translate(41.113281 0.015625)" xlink:href="#DejaVuSans-65"/>
      <use transform="translate(102.636719 0.015625)" xlink:href="#DejaVuSans-6c"/>
      <use transform="translate(130.419922 0.015625)" xlink:href="#DejaVuSans-61"/>
      <use transform="translate(191.699219 0.015625)" xlink:href="#DejaVuSans-74"/>
      <use transform="translate(230.908203 0.015625)" xlink:href="#DejaVuSans-69"/>
      <use transform="translate(258.691406 0.015625)" xlink:href="#DejaVuSans-76"/>
      <use transform="translate(317.871094 0.015625)" xlink:href="#DejaVuSans-65"/>
      <use transform="translate(379.394531 0.015625)" xlink:href="#DejaVuSans-20"/>
      <use transform="translate(411.181641 0.015625)" xlink:href="#DejaVuSans-Oblique-2113"/>
      <use transform="translate(452.490234 -16.390625)scale(0.7)" xlink:href="#DejaVuSans-30"/>
      <use transform="translate(499.760742 0.015625)" xlink:href="#DejaVuSans-20"/>
      <use transform="translate(531.547852 0.015625)" xlink:href="#DejaVuSans-70"/>
      <use transform="translate(595.024414 0.015625)" xlink:href="#DejaVuSans-73"/>
      <use transform="translate(647.124023 0.015625)" xlink:href="#DejaVuSans-65"/>
      <use transform="translate(708.647461 0.015625)" xlink:href="#DejaVuSans-75"/>
      <use transform="translate(772.026367 0.015625)" xlink:href="#DejaVuSans-64"/>
      <use transform="translate(835.50293 0.015625)" xlink:href="#DejaVuSans-6f"/>
      <use transform="translate(896.68457 0.015625)" xlink:href="#DejaVuSans-2d"/>
      <use transform="translate(932.768555 0.015625)" xlink:href="#DejaVuSans-6e"/>
      <use transform="translate(996.147461 0.015625)" xlink:href="#DejaVuSans-6f"/>
      <use transform="translate(1057.329102 0.015625)" xlink:href="#DejaVuSans-72"/>
      <use transform="translate(1098.442383 0.015625)" xlink:href="#DejaVuSans-6d"/>
      <use transform="translate(1195.854492 0.015625)" xlink:href="#DejaVuSans-20"/>
      <use transform="translate(1227.641602 0.015625)" xlink:href="#DejaVuSans-28"/>
      <use transform="translate(1266.655273 0.015625)" xlink:href="#DejaVuSans-62"/>
      <use transform="translate(1330.131836 0.015625)" xlink:href="#DejaVuSans-69"/>
      <use transform="translate(1357.915039 0.015625)" xlink:href="#DejaVuSans-74"/>
      <use transform="translate(1397.124023 0.015625)" xlink:href="#DejaVuSans-73"/>
      <use transform="translate(1449.223633 0.015625)" xlink:href="#DejaVuSans-20"/>
      <use transform="translate(1481.010742 0.015625)" xlink:href="#DejaVuSans-2f"/>
      <use transform="translate(1514.702148 0.015625)" xlink:href="#DejaVuSans-20"/>
      <use transform="translate(1546.489258 0.015625)" xlink:href="#DejaVuSans-70"/>
      <use transform="translate(1609.96582 0.015625)" xlink:href="#DejaVuSans-69"/>
      <use transform="translate(1637.749023 0.015625)" xlink:href="#DejaVuSans-78"/>
      <use transform="translate(1696.928711 0.015625)" xlink:href="#DejaVuSans-65"/>
      <use transform="translate(1758.452148 0.015625)" xlink:href="#DejaVuSans-6c"/>
      <use transform="translate(1786.235352 0.015625)" xlink:href="#DejaVuSans-29"/>
     </g>
    </g>
    <g id="text_10">
     <!-- 1e−1 -->
     <defs>
      <path d="M 10.59375 35.5 
L 73.1875 35.5 
L 73.1875 27.203125 
L 10.59375 27.203125 
z
" id="DejaVuSans-2212"/>
     </defs>
     <g transform="translate(263.926019 184.002845)scale(0.08 -0.08)">
      <use xlink:href="#DejaVuSans-31"/>
      <use x="63.623047" xlink:href="#DejaVuSans-65"/>
      <use x="125.146484" xlink:href="#DejaVuSans-2212"/>
      <use x="208.935547" xlink:href="#DejaVuSans-31"/>
     </g>
    </g>
   </g>
   <g id="matplotlib.axis_2">
    <g id="ytick_1">
     <g id="line2d_9">
      <defs>
       <path d="M 0 0 
L -3.5 0 
" id="m56d75b7f47" style="stroke:#000000;stroke-width:0.8;"/>
      </defs>
      <g>
       <use style="stroke:#000000;stroke-width:0.8;" x="58.445237" xlink:href="#m56d75b7f47" y="160.181595"/>
      </g>
     </g>
     <g id="text_11">
      <!-- 0.0 -->
      <defs>
       <path d="M 10.6875 12.40625 
L 21 12.40625 
L 21 0 
L 10.6875 0 
z
" id="DejaVuSans-2e"/>
      </defs>
      <g transform="translate(38.722737 163.22097)scale(0.08 -0.08)">
       <use xlink:href="#DejaVuSans-30"/>
       <use x="63.623047" xlink:href="#DejaVuSans-2e"/>
       <use x="95.410156" xlink:href="#DejaVuSans-30"/>
      </g>
     </g>
    </g>
    <g id="ytick_2">
     <g id="line2d_10">
      <g>
       <use style="stroke:#000000;stroke-width:0.8;" x="58.445237" xlink:href="#m56d75b7f47" y="133.390327"/>
      </g>
     </g>
     <g id="text_12">
      <!-- 0.2 -->
      <g transform="translate(38.722737 136.429702)scale(0.08 -0.08)">
       <use xlink:href="#DejaVuSans-30"/>
       <use x="63.623047" xlink:href="#DejaVuSans-2e"/>
       <use x="95.410156" xlink:href="#DejaVuSans-32"/>
      </g>
     </g>
    </g>
    <g id="ytick_3">
     <g id="line2d_11">
      <g>
       <use style="stroke:#000000;stroke-width:0.8;" x="58.445237" xlink:href="#m56d75b7f47" y="106.599059"/>
      </g>
     </g>
     <g id="text_13">
      <!-- 0.4 -->
      <g transform="translate(38.722737 109.638434)scale(0.08 -0.08)">
       <use xlink:href="#DejaVuSans-30"/>
       <use x="63.623047" xlink:href="#DejaVuSans-2e"/>
       <use x="95.410156" xlink:href="#DejaVuSans-34"/>
      </g>
     </g>
    </g>
    <g id="ytick_4">
     <g id="line2d_12">
      <g>
       <use style="stroke:#000000;stroke-width:0.8;" x="58.445237" xlink:href="#m56d75b7f47" y="79.807791"/>
      </g>
     </g>
     <g id="text_14">
      <!-- 0.6 -->
      <g transform="translate(38.722737 82.847166)scale(0.08 -0.08)">
       <use xlink:href="#DejaVuSans-30"/>
       <use x="63.623047" xlink:href="#DejaVuSans-2e"/>
       <use x="95.410156" xlink:href="#DejaVuSans-36"/>
      </g>
     </g>
    </g>
    <g id="ytick_5">
     <g id="line2d_13">
      <g>
       <use style="stroke:#000000;stroke-width:0.8;" x="58.445237" xlink:href="#m56d75b7f47" y="53.016523"/>
      </g>
     </g>
     <g id="text_15">
      <!-- 0.8 -->
      <defs>
       <path d="M 31.78125 34.625 
Q 24.75 34.625 20.71875 30.859375 
Q 16.703125 27.09375 16.703125 20.515625 
Q 16.703125 13.921875 20.71875 10.15625 
Q 24.75 6.390625 31.78125 6.390625 
Q 38.8125 6.390625 42.859375 10.171875 
Q 46.921875 13.96875 46.921875 20.515625 
Q 46.921875 27.09375 42.890625 30.859375 
Q 38.875 34.625 31.78125 34.625 
z
M 21.921875 38.8125 
Q 15.578125 40.375 12.03125 44.71875 
Q 8.5 49.078125 8.5 55.328125 
Q 8.5 64.0625 14.71875 69.140625 
Q 20.953125 74.21875 31.78125 74.21875 
Q 42.671875 74.21875 48.875 69.140625 
Q 55.078125 64.0625 55.078125 55.328125 
Q 55.078125 49.078125 51.53125 44.71875 
Q 48 40.375 41.703125 38.8125 
Q 48.828125 37.15625 52.796875 32.3125 
Q 56.78125 27.484375 56.78125 20.515625 
Q 56.78125 9.90625 50.3125 4.234375 
Q 43.84375 -1.421875 31.78125 -1.421875 
Q 19.734375 -1.421875 13.25 4.234375 
Q 6.78125 9.90625 6.78125 20.515625 
Q 6.78125 27.484375 10.78125 32.3125 
Q 14.796875 37.15625 21.921875 38.8125 
z
M 18.3125 54.390625 
Q 18.3125 48.734375 21.84375 45.5625 
Q 25.390625 42.390625 31.78125 42.390625 
Q 38.140625 42.390625 41.71875 45.5625 
Q 45.3125 48.734375 45.3125 54.390625 
Q 45.3125 60.0625 41.71875 63.234375 
Q 38.140625 66.40625 31.78125 66.40625 
Q 25.390625 66.40625 21.84375 63.234375 
Q 18.3125 60.0625 18.3125 54.390625 
z
" id="DejaVuSans-38"/>
      </defs>
      <g transform="translate(38.722737 56.055898)scale(0.08 -0.08)">
       <use xlink:href="#DejaVuSans-30"/>
       <use x="63.623047" xlink:href="#DejaVuSans-2e"/>
       <use x="95.410156" xlink:href="#DejaVuSans-38"/>
      </g>
     </g>
    </g>
    <g id="ytick_6">
     <g id="line2d_14">
      <g>
       <use style="stroke:#000000;stroke-width:0.8;" x="58.445237" xlink:href="#m56d75b7f47" y="26.225255"/>
      </g>
     </g>
     <g id="text_16">
      <!-- 1.0 -->
      <g transform="translate(38.722737 29.26463)scale(0.08 -0.08)">
       <use xlink:href="#DejaVuSans-31"/>
       <use x="63.623047" xlink:href="#DejaVuSans-2e"/>
       <use x="95.410156" xlink:href="#DejaVuSans-30"/>
      </g>
     </g>
    </g>
    <g id="text_17">
     <!-- Squared error -->
     <defs>
      <path d="M 53.515625 70.515625 
L 53.515625 60.890625 
Q 47.90625 63.578125 42.921875 64.890625 
Q 37.9375 66.21875 33.296875 66.21875 
Q 25.25 66.21875 20.875 63.09375 
Q 16.5 59.96875 16.5 54.203125 
Q 16.5 49.359375 19.40625 46.890625 
Q 22.3125 44.4375 30.421875 42.921875 
L 36.375 41.703125 
Q 47.40625 39.59375 52.65625 34.296875 
Q 57.90625 29 57.90625 20.125 
Q 57.90625 9.515625 50.796875 4.046875 
Q 43.703125 -1.421875 29.984375 -1.421875 
Q 24.8125 -1.421875 18.96875 -0.25 
Q 13.140625 0.921875 6.890625 3.21875 
L 6.890625 13.375 
Q 12.890625 10.015625 18.65625 8.296875 
Q 24.421875 6.59375 29.984375 6.59375 
Q 38.421875 6.59375 43.015625 9.90625 
Q 47.609375 13.234375 47.609375 19.390625 
Q 47.609375 24.75 44.3125 27.78125 
Q 41.015625 30.8125 33.5 32.328125 
L 27.484375 33.5 
Q 16.453125 35.6875 11.515625 40.375 
Q 6.59375 45.0625 6.59375 53.421875 
Q 6.59375 63.09375 13.40625 68.65625 
Q 20.21875 74.21875 32.171875 74.21875 
Q 37.3125 74.21875 42.625 73.28125 
Q 47.953125 72.359375 53.515625 70.515625 
z
" id="DejaVuSans-53"/>
      <path d="M 14.796875 27.296875 
Q 14.796875 17.390625 18.875 11.75 
Q 22.953125 6.109375 30.078125 6.109375 
Q 37.203125 6.109375 41.296875 11.75 
Q 45.40625 17.390625 45.40625 27.296875 
Q 45.40625 37.203125 41.296875 42.84375 
Q 37.203125 48.484375 30.078125 48.484375 
Q 22.953125 48.484375 18.875 42.84375 
Q 14.796875 37.203125 14.796875 27.296875 
z
M 45.40625 8.203125 
Q 42.578125 3.328125 38.25 0.953125 
Q 33.9375 -1.421875 27.875 -1.421875 
Q 17.96875 -1.421875 11.734375 6.484375 
Q 5.515625 14.40625 5.515625 27.296875 
Q 5.515625 40.1875 11.734375 48.09375 
Q 17.96875 56 27.875 56 
Q 33.9375 56 38.25 53.625 
Q 42.578125 51.265625 45.40625 46.390625 
L 45.40625 54.6875 
L 54.390625 54.6875 
L 54.390625 -20.796875 
L 45.40625 -20.796875 
z
" id="DejaVuSans-71"/>
     </defs>
     <g transform="translate(33.058987 121.023425)rotate(-90)scale(0.08 -0.08)">
      <use xlink:href="#DejaVuSans-53"/>
      <use x="63.476562" xlink:href="#DejaVuSans-71"/>
      <use x="126.953125" xlink:href="#DejaVuSans-75"/>
      <use x="190.332031" xlink:href="#DejaVuSans-61"/>
      <use x="251.611328" xlink:href="#DejaVuSans-72"/>
      <use x="292.693359" xlink:href="#DejaVuSans-65"/>
      <use x="354.216797" xlink:href="#DejaVuSans-64"/>
      <use x="417.693359" xlink:href="#DejaVuSans-20"/>
      <use x="449.480469" xlink:href="#DejaVuSans-65"/>
      <use x="511.003906" xlink:href="#DejaVuSans-72"/>
      <use x="552.101562" xlink:href="#DejaVuSans-72"/>
      <use x="593.183594" xlink:href="#DejaVuSans-6f"/>
      <use x="654.365234" xlink:href="#DejaVuSans-72"/>
     </g>
    </g>
   </g>
   <g id="LineCollection_1">
    <path clip-path="url(#pe801229470)" d="M 58.445237 26.225255 
L 58.445237 26.225255 
" style="fill:none;stroke:#000000;stroke-width:1.5;"/>
    <path clip-path="url(#pe801229470)" d="M 77.616933 89.709192 
L 77.616933 48.927982 
" style="fill:none;stroke:#000000;stroke-width:1.5;"/>
    <path clip-path="url(#pe801229470)" d="M 96.78863 107.52919 
L 96.78863 67.101342 
" style="fill:none;stroke:#000000;stroke-width:1.5;"/>
    <path clip-path="url(#pe801229470)" d="M 115.960326 118.073457 
L 115.960326 80.598148 
" style="fill:none;stroke:#000000;stroke-width:1.5;"/>
    <path clip-path="url(#pe801229470)" d="M 135.132023 125.094728 
L 135.132023 90.57149 
" style="fill:none;stroke:#000000;stroke-width:1.5;"/>
    <path clip-path="url(#pe801229470)" d="M 154.303719 130.216072 
L 154.303719 98.377232 
" style="fill:none;stroke:#000000;stroke-width:1.5;"/>
    <path clip-path="url(#pe801229470)" d="M 173.475416 134.012452 
L 173.475416 105.281243 
" style="fill:none;stroke:#000000;stroke-width:1.5;"/>
    <path clip-path="url(#pe801229470)" d="M 192.647112 137.204186 
L 192.647112 110.404685 
" style="fill:none;stroke:#000000;stroke-width:1.5;"/>
   </g>
   <g id="LineCollection_2">
    <path clip-path="url(#pe801229470)" d="M 58.445237 26.225255 
L 58.445237 26.225255 
" style="fill:none;stroke:#390000;stroke-width:1.5;"/>
    <path clip-path="url(#pe801229470)" d="M 73.597885 100.953964 
L 73.597885 57.351229 
" style="fill:none;stroke:#390000;stroke-width:1.5;"/>
    <path clip-path="url(#pe801229470)" d="M 88.750533 118.046294 
L 88.750533 75.352779 
" style="fill:none;stroke:#390000;stroke-width:1.5;"/>
    <path clip-path="url(#pe801229470)" d="M 103.903181 127.023368 
L 103.903181 87.698286 
" style="fill:none;stroke:#390000;stroke-width:1.5;"/>
    <path clip-path="url(#pe801229470)" d="M 119.055829 132.827574 
L 119.055829 97.066406 
" style="fill:none;stroke:#390000;stroke-width:1.5;"/>
    <path clip-path="url(#pe801229470)" d="M 134.208477 138.358563 
L 134.208477 101.947823 
" style="fill:none;stroke:#390000;stroke-width:1.5;"/>
    <path clip-path="url(#pe801229470)" d="M 149.361125 141.465826 
L 149.361125 108.329 
" style="fill:none;stroke:#390000;stroke-width:1.5;"/>
    <path clip-path="url(#pe801229470)" d="M 164.513773 143.428472 
L 164.513773 114.244553 
" style="fill:none;stroke:#390000;stroke-width:1.5;"/>
    <path clip-path="url(#pe801229470)" d="M 179.666421 145.086744 
L 179.666421 119.071299 
" style="fill:none;stroke:#390000;stroke-width:1.5;"/>
    <path clip-path="url(#pe801229470)" d="M 194.819069 146.774927 
L 194.819069 122.771174 
" style="fill:none;stroke:#390000;stroke-width:1.5;"/>
    <path clip-path="url(#pe801229470)" d="M 209.971717 148.150031 
L 209.971717 126.063182 
" style="fill:none;stroke:#390000;stroke-width:1.5;"/>
   </g>
   <g id="LineCollection_3">
    <path clip-path="url(#pe801229470)" d="M 58.445237 26.225255 
L 58.445237 26.225255 
" style="fill:none;stroke:#710000;stroke-width:1.5;"/>
    <path clip-path="url(#pe801229470)" d="M 79.270083 112.205204 
L 79.270083 69.37066 
" style="fill:none;stroke:#710000;stroke-width:1.5;"/>
    <path clip-path="url(#pe801229470)" d="M 100.094929 127.951027 
L 100.094929 88.697299 
" style="fill:none;stroke:#710000;stroke-width:1.5;"/>
    <path clip-path="url(#pe801229470)" d="M 120.919776 136.149187 
L 120.919776 101.324866 
" style="fill:none;stroke:#710000;stroke-width:1.5;"/>
    <path clip-path="url(#pe801229470)" d="M 141.744622 141.31707 
L 141.744622 110.479312 
" style="fill:none;stroke:#710000;stroke-width:1.5;"/>
    <path clip-path="url(#pe801229470)" d="M 162.569468 144.925621 
L 162.569468 117.522836 
" style="fill:none;stroke:#710000;stroke-width:1.5;"/>
    <path clip-path="url(#pe801229470)" d="M 183.394314 147.519115 
L 183.394314 123.175931 
" style="fill:none;stroke:#710000;stroke-width:1.5;"/>
    <path clip-path="url(#pe801229470)" d="M 204.21916 149.531576 
L 204.21916 127.801923 
" style="fill:none;stroke:#710000;stroke-width:1.5;"/>
    <path clip-path="url(#pe801229470)" d="M 225.044007 151.084089 
L 225.044007 131.651421 
" style="fill:none;stroke:#710000;stroke-width:1.5;"/>
   </g>
   <g id="LineCollection_4">
    <path clip-path="url(#pe801229470)" d="M 58.445237 26.225255 
L 58.445237 26.225255 
" style="fill:none;stroke:#aa0000;stroke-width:1.5;"/>
    <path clip-path="url(#pe801229470)" d="M 83.917955 123.060368 
L 83.917955 75.820417 
" style="fill:none;stroke:#aa0000;stroke-width:1.5;"/>
    <path clip-path="url(#pe801229470)" d="M 109.390674 136.925008 
L 109.390674 95.445077 
" style="fill:none;stroke:#aa0000;stroke-width:1.5;"/>
    <path clip-path="url(#pe801229470)" d="M 134.863392 143.686803 
L 134.863392 107.805402 
" style="fill:none;stroke:#aa0000;stroke-width:1.5;"/>
    <path clip-path="url(#pe801229470)" d="M 160.336111 147.725517 
L 160.336111 116.629948 
" style="fill:none;stroke:#aa0000;stroke-width:1.5;"/>
    <path clip-path="url(#pe801229470)" d="M 185.808829 150.408131 
L 185.808829 123.334977 
" style="fill:none;stroke:#aa0000;stroke-width:1.5;"/>
    <path clip-path="url(#pe801229470)" d="M 211.281548 152.313329 
L 211.281548 128.600914 
" style="fill:none;stroke:#aa0000;stroke-width:1.5;"/>
    <path clip-path="url(#pe801229470)" d="M 236.754266 153.733055 
L 236.754266 132.848243 
" style="fill:none;stroke:#aa0000;stroke-width:1.5;"/>
   </g>
   <g id="LineCollection_5">
    <path clip-path="url(#pe801229470)" d="M 58.445237 26.225255 
L 58.445237 26.225255 
" style="fill:none;stroke:#e30000;stroke-width:1.5;"/>
    <path clip-path="url(#pe801229470)" d="M 88.371601 123.798811 
L 88.371601 83.91049 
" style="fill:none;stroke:#e30000;stroke-width:1.5;"/>
    <path clip-path="url(#pe801229470)" d="M 118.297965 139.110855 
L 118.297965 103.30337 
" style="fill:none;stroke:#e30000;stroke-width:1.5;"/>
    <path clip-path="url(#pe801229470)" d="M 148.224328 146.300319 
L 148.224328 115.10213 
" style="fill:none;stroke:#e30000;stroke-width:1.5;"/>
    <path clip-path="url(#pe801229470)" d="M 178.150692 150.468389 
L 178.150692 123.333585 
" style="fill:none;stroke:#e30000;stroke-width:1.5;"/>
    <path clip-path="url(#pe801229470)" d="M 208.077056 153.113325 
L 208.077056 129.453813 
" style="fill:none;stroke:#e30000;stroke-width:1.5;"/>
    <path clip-path="url(#pe801229470)" d="M 238.00342 154.906861 
L 238.00342 134.189754 
" style="fill:none;stroke:#e30000;stroke-width:1.5;"/>
    <path clip-path="url(#pe801229470)" d="M 267.929784 156.159998 
L 267.929784 137.960671 
" style="fill:none;stroke:#e30000;stroke-width:1.5;"/>
   </g>
   <g id="line2d_15">
    <defs>
     <path d="M 0 1.5 
C 0.397805 1.5 0.77937 1.341951 1.06066 1.06066 
C 1.341951 0.77937 1.5 0.397805 1.5 0 
C 1.5 -0.397805 1.341951 -0.77937 1.06066 -1.06066 
C 0.77937 -1.341951 0.397805 -1.5 0 -1.5 
C -0.397805 -1.5 -0.77937 -1.341951 -1.06066 -1.06066 
C -1.341951 -0.77937 -1.5 -0.397805 -1.5 0 
C -1.5 0.397805 -1.341951 0.77937 -1.06066 1.06066 
C -0.77937 1.341951 -0.397805 1.5 0 1.5 
z
" id="ma2a7ec059e" style="stroke:#000000;"/>
    </defs>
    <g clip-path="url(#pe801229470)">
     <use style="stroke:#000000;" x="58.445237" xlink:href="#ma2a7ec059e" y="26.225255"/>
     <use style="stroke:#000000;" x="77.616933" xlink:href="#ma2a7ec059e" y="69.318587"/>
     <use style="stroke:#000000;" x="96.78863" xlink:href="#ma2a7ec059e" y="87.315266"/>
     <use style="stroke:#000000;" x="115.960326" xlink:href="#ma2a7ec059e" y="99.335803"/>
     <use style="stroke:#000000;" x="135.132023" xlink:href="#ma2a7ec059e" y="107.833109"/>
     <use style="stroke:#000000;" x="154.303719" xlink:href="#ma2a7ec059e" y="114.296652"/>
     <use style="stroke:#000000;" x="173.475416" xlink:href="#ma2a7ec059e" y="119.646848"/>
     <use style="stroke:#000000;" x="192.647112" xlink:href="#ma2a7ec059e" y="123.804436"/>
    </g>
   </g>
   <g id="line2d_16">
    <defs>
     <path d="M 0 1.5 
C 0.397805 1.5 0.77937 1.341951 1.06066 1.06066 
C 1.341951 0.77937 1.5 0.397805 1.5 0 
C 1.5 -0.397805 1.341951 -0.77937 1.06066 -1.06066 
C 0.77937 -1.341951 0.397805 -1.5 0 -1.5 
C -0.397805 -1.5 -0.77937 -1.341951 -1.06066 -1.06066 
C -1.341951 -0.77937 -1.5 -0.397805 -1.5 0 
C -1.5 0.397805 -1.341951 0.77937 -1.06066 1.06066 
C -0.77937 1.341951 -0.397805 1.5 0 1.5 
z
" id="m7eb540dd2e" style="stroke:#390000;"/>
    </defs>
    <g clip-path="url(#pe801229470)">
     <use style="fill:#390000;stroke:#390000;" x="58.445237" xlink:href="#m7eb540dd2e" y="26.225255"/>
     <use style="fill:#390000;stroke:#390000;" x="73.597885" xlink:href="#m7eb540dd2e" y="79.152596"/>
     <use style="fill:#390000;stroke:#390000;" x="88.750533" xlink:href="#m7eb540dd2e" y="96.699536"/>
     <use style="fill:#390000;stroke:#390000;" x="103.903181" xlink:href="#m7eb540dd2e" y="107.360827"/>
     <use style="fill:#390000;stroke:#390000;" x="119.055829" xlink:href="#m7eb540dd2e" y="114.94699"/>
     <use style="fill:#390000;stroke:#390000;" x="134.208477" xlink:href="#m7eb540dd2e" y="120.153193"/>
     <use style="fill:#390000;stroke:#390000;" x="149.361125" xlink:href="#m7eb540dd2e" y="124.897413"/>
     <use style="fill:#390000;stroke:#390000;" x="164.513773" xlink:href="#m7eb540dd2e" y="128.836512"/>
     <use style="fill:#390000;stroke:#390000;" x="179.666421" xlink:href="#m7eb540dd2e" y="132.079022"/>
     <use style="fill:#390000;stroke:#390000;" x="194.819069" xlink:href="#m7eb540dd2e" y="134.773051"/>
     <use style="fill:#390000;stroke:#390000;" x="209.971717" xlink:href="#m7eb540dd2e" y="137.106606"/>
    </g>
   </g>
   <g id="line2d_17">
    <defs>
     <path d="M 0 1.5 
C 0.397805 1.5 0.77937 1.341951 1.06066 1.06066 
C 1.341951 0.77937 1.5 0.397805 1.5 0 
C 1.5 -0.397805 1.341951 -0.77937 1.06066 -1.06066 
C 0.77937 -1.341951 0.397805 -1.5 0 -1.5 
C -0.397805 -1.5 -0.77937 -1.341951 -1.06066 -1.06066 
C -1.341951 -0.77937 -1.5 -0.397805 -1.5 0 
C -1.5 0.397805 -1.341951 0.77937 -1.06066 1.06066 
C -0.77937 1.341951 -0.397805 1.5 0 1.5 
z
" id="m53447e7db1" style="stroke:#710000;"/>
    </defs>
    <g clip-path="url(#pe801229470)">
     <use style="fill:#710000;stroke:#710000;" x="58.445237" xlink:href="#m53447e7db1" y="26.225255"/>
     <use style="fill:#710000;stroke:#710000;" x="79.270083" xlink:href="#m53447e7db1" y="90.787932"/>
     <use style="fill:#710000;stroke:#710000;" x="100.094929" xlink:href="#m53447e7db1" y="108.324163"/>
     <use style="fill:#710000;stroke:#710000;" x="120.919776" xlink:href="#m53447e7db1" y="118.737026"/>
     <use style="fill:#710000;stroke:#710000;" x="141.744622" xlink:href="#m53447e7db1" y="125.898191"/>
     <use style="fill:#710000;stroke:#710000;" x="162.569468" xlink:href="#m53447e7db1" y="131.224229"/>
     <use style="fill:#710000;stroke:#710000;" x="183.394314" xlink:href="#m53447e7db1" y="135.347523"/>
     <use style="fill:#710000;stroke:#710000;" x="204.21916" xlink:href="#m53447e7db1" y="138.666749"/>
     <use style="fill:#710000;stroke:#710000;" x="225.044007" xlink:href="#m53447e7db1" y="141.367755"/>
    </g>
   </g>
   <g id="line2d_18">
    <defs>
     <path d="M 0 1.5 
C 0.397805 1.5 0.77937 1.341951 1.06066 1.06066 
C 1.341951 0.77937 1.5 0.397805 1.5 0 
C 1.5 -0.397805 1.341951 -0.77937 1.06066 -1.06066 
C 0.77937 -1.341951 0.397805 -1.5 0 -1.5 
C -0.397805 -1.5 -0.77937 -1.341951 -1.06066 -1.06066 
C -1.341951 -0.77937 -1.5 -0.397805 -1.5 0 
C -1.5 0.397805 -1.341951 0.77937 -1.06066 1.06066 
C -0.77937 1.341951 -0.397805 1.5 0 1.5 
z
" id="m06af5aa387" style="stroke:#aa0000;"/>
    </defs>
    <g clip-path="url(#pe801229470)">
     <use style="fill:#aa0000;stroke:#aa0000;" x="58.445237" xlink:href="#m06af5aa387" y="26.225255"/>
     <use style="fill:#aa0000;stroke:#aa0000;" x="83.917955" xlink:href="#m06af5aa387" y="99.440393"/>
     <use style="fill:#aa0000;stroke:#aa0000;" x="109.390674" xlink:href="#m06af5aa387" y="116.185043"/>
     <use style="fill:#aa0000;stroke:#aa0000;" x="134.863392" xlink:href="#m06af5aa387" y="125.746103"/>
     <use style="fill:#aa0000;stroke:#aa0000;" x="160.336111" xlink:href="#m06af5aa387" y="132.177733"/>
     <use style="fill:#aa0000;stroke:#aa0000;" x="185.808829" xlink:href="#m06af5aa387" y="136.871554"/>
     <use style="fill:#aa0000;stroke:#aa0000;" x="211.281548" xlink:href="#m06af5aa387" y="140.457122"/>
     <use style="fill:#aa0000;stroke:#aa0000;" x="236.754266" xlink:href="#m06af5aa387" y="143.290649"/>
    </g>
   </g>
   <g id="line2d_19">
    <defs>
     <path d="M 0 1.5 
C 0.397805 1.5 0.77937 1.341951 1.06066 1.06066 
C 1.341951 0.77937 1.5 0.397805 1.5 0 
C 1.5 -0.397805 1.341951 -0.77937 1.06066 -1.06066 
C 0.77937 -1.341951 0.397805 -1.5 0 -1.5 
C -0.397805 -1.5 -0.77937 -1.341951 -1.06066 -1.06066 
C -1.341951 -0.77937 -1.5 -0.397805 -1.5 0 
C -1.5 0.397805 -1.341951 0.77937 -1.06066 1.06066 
C -0.77937 1.341951 -0.397805 1.5 0 1.5 
z
" id="m49ad84eded" style="stroke:#e30000;"/>
    </defs>
    <g clip-path="url(#pe801229470)">
     <use style="fill:#e30000;stroke:#e30000;" x="58.445237" xlink:href="#m49ad84eded" y="26.225255"/>
     <use style="fill:#e30000;stroke:#e30000;" x="88.371601" xlink:href="#m49ad84eded" y="103.85465"/>
     <use style="fill:#e30000;stroke:#e30000;" x="118.297965" xlink:href="#m49ad84eded" y="121.207112"/>
     <use style="fill:#e30000;stroke:#e30000;" x="148.224328" xlink:href="#m49ad84eded" y="130.701225"/>
     <use style="fill:#e30000;stroke:#e30000;" x="178.150692" xlink:href="#m49ad84eded" y="136.900987"/>
     <use style="fill:#e30000;stroke:#e30000;" x="208.077056" xlink:href="#m49ad84eded" y="141.283569"/>
     <use style="fill:#e30000;stroke:#e30000;" x="238.00342" xlink:href="#m49ad84eded" y="144.548307"/>
     <use style="fill:#e30000;stroke:#e30000;" x="267.929784" xlink:href="#m49ad84eded" y="147.060335"/>
    </g>
   </g>
   <g id="line2d_20">
    <path clip-path="url(#pe801229470)" d="M 58.445237 26.225255 
L 77.616933 69.318587 
L 96.78863 87.315266 
L 115.960326 99.335803 
L 135.132023 107.833109 
L 154.303719 114.296652 
L 173.475416 119.646848 
L 192.647112 123.804436 
" style="fill:none;stroke:#000000;stroke-linecap:square;stroke-width:1.5;"/>
   </g>
   <g id="line2d_21">
    <path clip-path="url(#pe801229470)" d="M 58.445237 26.225255 
L 63.49612 55.895901 
L 68.547002 69.696112 
L 73.597885 79.152596 
L 78.648768 86.256907 
L 83.69965 91.953775 
L 88.750533 96.699536 
L 93.801416 100.776939 
L 98.852298 104.274734 
L 103.903181 107.360827 
L 108.954064 110.153935 
L 114.004946 112.666881 
L 119.055829 114.94699 
L 124.106712 116.960743 
L 129.157594 118.718122 
L 134.208477 120.153193 
L 139.25936 122.381319 
L 144.310242 123.79236 
L 149.361125 124.897413 
L 154.412008 126.777757 
L 159.46289 127.947628 
L 164.513773 128.836512 
L 169.564656 130.333103 
L 174.615538 131.295374 
L 179.666421 132.079022 
L 184.717304 133.299104 
L 189.768186 134.143641 
L 194.819069 134.773051 
L 199.869952 135.590694 
L 204.920834 136.543723 
L 209.971717 137.106606 
L 215.0226 137.490955 
" style="fill:none;stroke:#390000;stroke-linecap:square;stroke-width:1.5;"/>
   </g>
   <g id="line2d_22">
    <path clip-path="url(#pe801229470)" d="M 58.445237 26.225255 
L 59.83356 40.577593 
L 61.221883 49.361537 
L 62.610206 56.103761 
L 63.998529 61.458528 
L 65.386852 65.847036 
L 66.775175 69.641597 
L 68.163498 72.975765 
L 69.551821 75.963971 
L 70.940145 78.67367 
L 73.716791 83.344533 
L 76.493437 87.31548 
L 79.270083 90.787932 
L 82.046729 93.862847 
L 84.823375 96.638228 
L 87.600022 99.163699 
L 91.764991 102.584366 
L 95.92996 105.626801 
L 100.094929 108.324163 
L 104.259899 110.780615 
L 109.813191 113.726017 
L 115.366483 116.360344 
L 120.919776 118.737026 
L 127.861391 121.390457 
L 133.414683 123.305536 
L 140.356299 125.492726 
L 148.686237 127.844632 
L 158.404499 130.26666 
L 166.734437 132.124139 
L 175.064376 133.8118 
L 184.782637 135.596133 
L 198.665868 137.850387 
L 213.937422 139.990052 
L 225.044007 141.367755 
L 234.762268 142.473457 
L 234.762268 142.473457 
" style="fill:none;stroke:#710000;stroke-linecap:square;stroke-width:1.5;"/>
   </g>
   <g id="line2d_23">
    <path clip-path="url(#pe801229470)" d="M 58.445237 26.225255 
L 59.217137 37.893586 
L 59.989038 45.224363 
L 60.760939 50.746858 
L 61.918789 57.150487 
L 63.07664 62.241809 
L 64.620441 67.691208 
L 66.164242 72.230886 
L 67.708044 76.13466 
L 69.251845 79.511239 
L 71.181596 83.196869 
L 73.497298 87.037269 
L 75.812999 90.384784 
L 78.128701 93.33746 
L 80.830353 96.370865 
L 83.532005 99.074524 
L 86.619607 101.866992 
L 89.707209 104.38132 
L 93.180762 106.928477 
L 97.040265 109.480401 
L 101.285718 112.001125 
L 105.917121 114.483288 
L 110.934475 116.903074 
L 115.951829 119.092021 
L 121.355132 121.222583 
L 127.530337 123.413201 
L 134.477442 125.630215 
L 142.196448 127.834101 
L 150.687354 129.997158 
L 158.406359 131.762066 
L 167.283216 133.593348 
L 178.475774 135.651684 
L 188.124531 137.23738 
L 200.86089 139.09644 
L 213.211299 140.69406 
L 224.789807 142.03897 
L 242.15757 143.81747 
L 255.66583 145.036113 
L 255.66583 145.036113 
" style="fill:none;stroke:#aa0000;stroke-linecap:square;stroke-width:1.5;"/>
   </g>
   <g id="line2d_24">
    <path clip-path="url(#pe801229470)" d="M 58.445237 26.225255 
L 58.868224 33.205234 
L 59.502706 39.897067 
L 60.454427 47.208024 
L 61.406149 52.899852 
L 62.463618 57.999258 
L 63.838327 63.544314 
L 65.318783 68.566287 
L 66.799239 72.839911 
L 68.491189 77.036602 
L 70.288886 80.897154 
L 72.19233 84.464692 
L 74.20152 87.788359 
L 76.422205 91.050218 
L 78.854382 94.21388 
L 81.28656 97.03686 
L 84.035979 99.892289 
L 87.102638 102.756599 
L 90.486538 105.590312 
L 93.976185 108.218168 
L 97.783072 110.79496 
L 101.801453 113.24007 
L 106.242821 115.673532 
L 110.895684 117.975873 
L 116.07728 120.286806 
L 121.787611 122.580747 
L 127.603689 124.683615 
L 134.159995 126.810409 
L 141.139288 128.841557 
L 148.964556 130.884983 
L 157.530053 132.885338 
L 166.835777 134.824611 
L 176.88173 136.681931 
L 187.985151 138.496538 
L 199.934547 140.222178 
L 213.258653 141.916391 
L 227.957467 143.550547 
L 243.925244 145.095944 
L 262.007959 146.610362 
L 274.909077 147.564745 
L 274.909077 147.564745 
" style="fill:none;stroke:#e30000;stroke-linecap:square;stroke-width:1.5;"/>
   </g>
   <g id="patch_3">
    <path d="M 58.445237 162.860722 
L 58.445237 23.546128 
" style="fill:none;stroke:#000000;stroke-linecap:square;stroke-linejoin:miter;stroke-width:0.25;"/>
   </g>
   <g id="patch_4">
    <path d="M 58.445237 160.181595 
L 274.909077 160.181595 
" style="fill:none;stroke:#000000;stroke-linecap:square;stroke-linejoin:miter;stroke-width:0.25;"/>
   </g>
  </g>
  <g id="axes_2">
   <g id="patch_5">
    <path d="M 152.390543 88.297982 
L 279.382663 88.297982 
L 279.382663 9.810887 
L 152.390543 9.810887 
z
" style="fill:#ffffff;"/>
   </g>
   <g id="matplotlib.axis_3">
    <g id="xtick_9">
     <g id="line2d_25">
      <g>
       <use style="stroke:#000000;stroke-width:0.8;" x="158.162913" xlink:href="#mc75ad53a65" y="86.700143"/>
      </g>
     </g>
     <g id="text_18">
      <!-- 0 -->
      <g transform="translate(155.617913 99.778893)scale(0.08 -0.08)">
       <use xlink:href="#DejaVuSans-30"/>
      </g>
     </g>
    </g>
    <g id="xtick_10">
     <g id="line2d_26">
      <g>
       <use style="stroke:#000000;stroke-width:0.8;" x="188.89204" xlink:href="#mc75ad53a65" y="86.700143"/>
      </g>
     </g>
     <g id="text_19">
      <!-- 2 -->
      <g transform="translate(186.34704 99.778893)scale(0.08 -0.08)">
       <use xlink:href="#DejaVuSans-32"/>
      </g>
     </g>
    </g>
    <g id="xtick_11">
     <g id="line2d_27">
      <g>
       <use style="stroke:#000000;stroke-width:0.8;" x="219.621167" xlink:href="#mc75ad53a65" y="86.700143"/>
      </g>
     </g>
     <g id="text_20">
      <!-- 4 -->
      <g transform="translate(217.076167 99.778893)scale(0.08 -0.08)">
       <use xlink:href="#DejaVuSans-34"/>
      </g>
     </g>
    </g>
    <g id="xtick_12">
     <g id="line2d_28">
      <g>
       <use style="stroke:#000000;stroke-width:0.8;" x="250.350294" xlink:href="#mc75ad53a65" y="86.700143"/>
      </g>
     </g>
     <g id="text_21">
      <!-- 6 -->
      <g transform="translate(247.805294 99.778893)scale(0.08 -0.08)">
       <use xlink:href="#DejaVuSans-36"/>
      </g>
     </g>
    </g>
    <g id="text_22">
     <!-- relative $\ell_0$ pseudo-norm (bits / pixel) -->
     <g transform="translate(142.846603 111.522643)scale(0.08 -0.08)">
      <use transform="translate(0 0.015625)" xlink:href="#DejaVuSans-72"/>
      <use transform="translate(41.113281 0.015625)" xlink:href="#DejaVuSans-65"/>
      <use transform="translate(102.636719 0.015625)" xlink:href="#DejaVuSans-6c"/>
      <use transform="translate(130.419922 0.015625)" xlink:href="#DejaVuSans-61"/>
      <use transform="translate(191.699219 0.015625)" xlink:href="#DejaVuSans-74"/>
      <use transform="translate(230.908203 0.015625)" xlink:href="#DejaVuSans-69"/>
      <use transform="translate(258.691406 0.015625)" xlink:href="#DejaVuSans-76"/>
      <use transform="translate(317.871094 0.015625)" xlink:href="#DejaVuSans-65"/>
      <use transform="translate(379.394531 0.015625)" xlink:href="#DejaVuSans-20"/>
      <use transform="translate(411.181641 0.015625)" xlink:href="#DejaVuSans-Oblique-2113"/>
      <use transform="translate(452.490234 -16.390625)scale(0.7)" xlink:href="#DejaVuSans-30"/>
      <use transform="translate(499.760742 0.015625)" xlink:href="#DejaVuSans-20"/>
      <use transform="translate(531.547852 0.015625)" xlink:href="#DejaVuSans-70"/>
      <use transform="translate(595.024414 0.015625)" xlink:href="#DejaVuSans-73"/>
      <use transform="translate(647.124023 0.015625)" xlink:href="#DejaVuSans-65"/>
      <use transform="translate(708.647461 0.015625)" xlink:href="#DejaVuSans-75"/>
      <use transform="translate(772.026367 0.015625)" xlink:href="#DejaVuSans-64"/>
      <use transform="translate(835.50293 0.015625)" xlink:href="#DejaVuSans-6f"/>
      <use transform="translate(896.68457 0.015625)" xlink:href="#DejaVuSans-2d"/>
      <use transform="translate(932.768555 0.015625)" xlink:href="#DejaVuSans-6e"/>
      <use transform="translate(996.147461 0.015625)" xlink:href="#DejaVuSans-6f"/>
      <use transform="translate(1057.329102 0.015625)" xlink:href="#DejaVuSans-72"/>
      <use transform="translate(1098.442383 0.015625)" xlink:href="#DejaVuSans-6d"/>
      <use transform="translate(1195.854492 0.015625)" xlink:href="#DejaVuSans-20"/>
      <use transform="translate(1227.641602 0.015625)" xlink:href="#DejaVuSans-28"/>
      <use transform="translate(1266.655273 0.015625)" xlink:href="#DejaVuSans-62"/>
      <use transform="translate(1330.131836 0.015625)" xlink:href="#DejaVuSans-69"/>
      <use transform="translate(1357.915039 0.015625)" xlink:href="#DejaVuSans-74"/>
      <use transform="translate(1397.124023 0.015625)" xlink:href="#DejaVuSans-73"/>
      <use transform="translate(1449.223633 0.015625)" xlink:href="#DejaVuSans-20"/>
      <use transform="translate(1481.010742 0.015625)" xlink:href="#DejaVuSans-2f"/>
      <use transform="translate(1514.702148 0.015625)" xlink:href="#DejaVuSans-20"/>
      <use transform="translate(1546.489258 0.015625)" xlink:href="#DejaVuSans-70"/>
      <use transform="translate(1609.96582 0.015625)" xlink:href="#DejaVuSans-69"/>
      <use transform="translate(1637.749023 0.015625)" xlink:href="#DejaVuSans-78"/>
      <use transform="translate(1696.928711 0.015625)" xlink:href="#DejaVuSans-65"/>
      <use transform="translate(1758.452148 0.015625)" xlink:href="#DejaVuSans-6c"/>
      <use transform="translate(1786.235352 0.015625)" xlink:href="#DejaVuSans-29"/>
     </g>
    </g>
    <g id="text_23">
     <!-- 1e−1 -->
     <g transform="translate(257.576413 110.521393)scale(0.08 -0.08)">
      <use xlink:href="#DejaVuSans-31"/>
      <use x="63.623047" xlink:href="#DejaVuSans-65"/>
      <use x="125.146484" xlink:href="#DejaVuSans-2212"/>
      <use x="208.935547" xlink:href="#DejaVuSans-31"/>
     </g>
    </g>
   </g>
   <g id="matplotlib.axis_4">
    <g id="ytick_7">
     <g id="line2d_29">
      <g>
       <use style="stroke:#000000;stroke-width:0.8;" x="158.162913" xlink:href="#m56d75b7f47" y="86.700143"/>
      </g>
     </g>
     <g id="text_24">
      <!-- 0.0 -->
      <g transform="translate(138.440413 89.739518)scale(0.08 -0.08)">
       <use xlink:href="#DejaVuSans-30"/>
       <use x="63.623047" xlink:href="#DejaVuSans-2e"/>
       <use x="95.410156" xlink:href="#DejaVuSans-30"/>
      </g>
     </g>
    </g>
    <g id="ytick_8">
     <g id="line2d_30">
      <g>
       <use style="stroke:#000000;stroke-width:0.8;" x="158.162913" xlink:href="#m56d75b7f47" y="59.292208"/>
      </g>
     </g>
     <g id="text_25">
      <!-- 0.5 -->
      <g transform="translate(138.440413 62.331583)scale(0.08 -0.08)">
       <use xlink:href="#DejaVuSans-30"/>
       <use x="63.623047" xlink:href="#DejaVuSans-2e"/>
       <use x="95.410156" xlink:href="#DejaVuSans-35"/>
      </g>
     </g>
    </g>
    <g id="ytick_9">
     <g id="line2d_31">
      <g>
       <use style="stroke:#000000;stroke-width:0.8;" x="158.162913" xlink:href="#m56d75b7f47" y="31.884273"/>
      </g>
     </g>
     <g id="text_26">
      <!-- 1.0 -->
      <g transform="translate(138.440413 34.923648)scale(0.08 -0.08)">
       <use xlink:href="#DejaVuSans-31"/>
       <use x="63.623047" xlink:href="#DejaVuSans-2e"/>
       <use x="95.410156" xlink:href="#DejaVuSans-30"/>
      </g>
     </g>
    </g>
    <g id="text_27">
     <!-- Coefficient -->
     <defs>
      <path d="M 64.40625 67.28125 
L 64.40625 56.890625 
Q 59.421875 61.53125 53.78125 63.8125 
Q 48.140625 66.109375 41.796875 66.109375 
Q 29.296875 66.109375 22.65625 58.46875 
Q 16.015625 50.828125 16.015625 36.375 
Q 16.015625 21.96875 22.65625 14.328125 
Q 29.296875 6.6875 41.796875 6.6875 
Q 48.140625 6.6875 53.78125 8.984375 
Q 59.421875 11.28125 64.40625 15.921875 
L 64.40625 5.609375 
Q 59.234375 2.09375 53.4375 0.328125 
Q 47.65625 -1.421875 41.21875 -1.421875 
Q 24.65625 -1.421875 15.125 8.703125 
Q 5.609375 18.84375 5.609375 36.375 
Q 5.609375 53.953125 15.125 64.078125 
Q 24.65625 74.21875 41.21875 74.21875 
Q 47.75 74.21875 53.53125 72.484375 
Q 59.328125 70.75 64.40625 67.28125 
z
" id="DejaVuSans-43"/>
      <path d="M 37.109375 75.984375 
L 37.109375 68.5 
L 28.515625 68.5 
Q 23.6875 68.5 21.796875 66.546875 
Q 19.921875 64.59375 19.921875 59.515625 
L 19.921875 54.6875 
L 34.71875 54.6875 
L 34.71875 47.703125 
L 19.921875 47.703125 
L 19.921875 0 
L 10.890625 0 
L 10.890625 47.703125 
L 2.296875 47.703125 
L 2.296875 54.6875 
L 10.890625 54.6875 
L 10.890625 58.5 
Q 10.890625 67.625 15.140625 71.796875 
Q 19.390625 75.984375 28.609375 75.984375 
z
" id="DejaVuSans-66"/>
      <path d="M 48.78125 52.59375 
L 48.78125 44.1875 
Q 44.96875 46.296875 41.140625 47.34375 
Q 37.3125 48.390625 33.40625 48.390625 
Q 24.65625 48.390625 19.8125 42.84375 
Q 14.984375 37.3125 14.984375 27.296875 
Q 14.984375 17.28125 19.8125 11.734375 
Q 24.65625 6.203125 33.40625 6.203125 
Q 37.3125 6.203125 41.140625 7.25 
Q 44.96875 8.296875 48.78125 10.40625 
L 48.78125 2.09375 
Q 45.015625 0.34375 40.984375 -0.53125 
Q 36.96875 -1.421875 32.421875 -1.421875 
Q 20.0625 -1.421875 12.78125 6.34375 
Q 5.515625 14.109375 5.515625 27.296875 
Q 5.515625 40.671875 12.859375 48.328125 
Q 20.21875 56 33.015625 56 
Q 37.15625 56 41.109375 55.140625 
Q 45.0625 54.296875 48.78125 52.59375 
z
" id="DejaVuSans-63"/>
     </defs>
     <g transform="translate(132.776663 70.558809)rotate(-90)scale(0.08 -0.08)">
      <use xlink:href="#DejaVuSans-43"/>
      <use x="69.824219" xlink:href="#DejaVuSans-6f"/>
      <use x="131.005859" xlink:href="#DejaVuSans-65"/>
      <use x="192.529297" xlink:href="#DejaVuSans-66"/>
      <use x="227.734375" xlink:href="#DejaVuSans-66"/>
      <use x="262.939453" xlink:href="#DejaVuSans-69"/>
      <use x="290.722656" xlink:href="#DejaVuSans-63"/>
      <use x="345.703125" xlink:href="#DejaVuSans-69"/>
      <use x="373.486328" xlink:href="#DejaVuSans-65"/>
      <use x="435.009766" xlink:href="#DejaVuSans-6e"/>
      <use x="498.388672" xlink:href="#DejaVuSans-74"/>
     </g>
    </g>
   </g>
   <g id="LineCollection_6">
    <path clip-path="url(#p1962652808)" d="M 158.162913 50.390064 
L 158.162913 13.378482 
" style="fill:none;stroke:#000000;stroke-width:1.5;"/>
    <path clip-path="url(#p1962652808)" d="M 168.387817 59.732146 
L 168.387817 42.26167 
" style="fill:none;stroke:#000000;stroke-width:1.5;"/>
    <path clip-path="url(#p1962652808)" d="M 178.612722 64.34299 
L 178.612722 51.045102 
" style="fill:none;stroke:#000000;stroke-width:1.5;"/>
    <path clip-path="url(#p1962652808)" d="M 188.837627 67.715548 
L 188.837627 56.809714 
" style="fill:none;stroke:#000000;stroke-width:1.5;"/>
    <path clip-path="url(#p1962652808)" d="M 199.062532 70.104113 
L 199.062532 60.377424 
" style="fill:none;stroke:#000000;stroke-width:1.5;"/>
    <path clip-path="url(#p1962652808)" d="M 209.287436 72.002681 
L 209.287436 62.761296 
" style="fill:none;stroke:#000000;stroke-width:1.5;"/>
    <path clip-path="url(#p1962652808)" d="M 219.512341 73.441396 
L 219.512341 65.02008 
" style="fill:none;stroke:#000000;stroke-width:1.5;"/>
    <path clip-path="url(#p1962652808)" d="M 229.737246 75.011345 
L 229.737246 66.060539 
" style="fill:none;stroke:#000000;stroke-width:1.5;"/>
   </g>
   <g id="LineCollection_7">
    <path clip-path="url(#p1962652808)" d="M 158.162913 49.889741 
L 158.162913 13.878805 
" style="fill:none;stroke:#390000;stroke-width:1.5;"/>
    <path clip-path="url(#p1962652808)" d="M 166.244325 65.608915 
L 166.244325 51.819636 
" style="fill:none;stroke:#390000;stroke-width:1.5;"/>
    <path clip-path="url(#p1962652808)" d="M 174.325737 70.727385 
L 174.325737 60.320797 
" style="fill:none;stroke:#390000;stroke-width:1.5;"/>
    <path clip-path="url(#p1962652808)" d="M 182.407149 73.685869 
L 182.407149 64.598507 
" style="fill:none;stroke:#390000;stroke-width:1.5;"/>
    <path clip-path="url(#p1962652808)" d="M 190.488562 75.686902 
L 190.488562 67.292485 
" style="fill:none;stroke:#390000;stroke-width:1.5;"/>
    <path clip-path="url(#p1962652808)" d="M 198.569974 81.128787 
L 198.569974 64.313762 
" style="fill:none;stroke:#390000;stroke-width:1.5;"/>
    <path clip-path="url(#p1962652808)" d="M 206.651386 82.008168 
L 206.651386 66.069955 
" style="fill:none;stroke:#390000;stroke-width:1.5;"/>
    <path clip-path="url(#p1962652808)" d="M 214.732798 82.231725 
L 214.732798 68.181027 
" style="fill:none;stroke:#390000;stroke-width:1.5;"/>
    <path clip-path="url(#p1962652808)" d="M 222.814211 82.355023 
L 222.814211 69.921504 
" style="fill:none;stroke:#390000;stroke-width:1.5;"/>
    <path clip-path="url(#p1962652808)" d="M 230.895623 82.936477 
L 230.895623 70.887344 
" style="fill:none;stroke:#390000;stroke-width:1.5;"/>
    <path clip-path="url(#p1962652808)" d="M 238.977035 83.330948 
L 238.977035 71.916778 
" style="fill:none;stroke:#390000;stroke-width:1.5;"/>
   </g>
   <g id="LineCollection_8">
    <path clip-path="url(#p1962652808)" d="M 158.162913 50.387594 
L 158.162913 13.380952 
" style="fill:none;stroke:#710000;stroke-width:1.5;"/>
    <path clip-path="url(#p1962652808)" d="M 169.269497 72.094606 
L 169.269497 62.283706 
" style="fill:none;stroke:#710000;stroke-width:1.5;"/>
    <path clip-path="url(#p1962652808)" d="M 180.376082 76.352914 
L 180.376082 68.241543 
" style="fill:none;stroke:#710000;stroke-width:1.5;"/>
    <path clip-path="url(#p1962652808)" d="M 191.482666 78.635627 
L 191.482666 71.356496 
" style="fill:none;stroke:#710000;stroke-width:1.5;"/>
    <path clip-path="url(#p1962652808)" d="M 202.589251 80.031003 
L 202.589251 73.416705 
" style="fill:none;stroke:#710000;stroke-width:1.5;"/>
    <path clip-path="url(#p1962652808)" d="M 213.695836 81.02071 
L 213.695836 74.961109 
" style="fill:none;stroke:#710000;stroke-width:1.5;"/>
    <path clip-path="url(#p1962652808)" d="M 224.80242 81.742736 
L 224.80242 76.114901 
" style="fill:none;stroke:#710000;stroke-width:1.5;"/>
    <path clip-path="url(#p1962652808)" d="M 235.909005 82.304973 
L 235.909005 77.084024 
" style="fill:none;stroke:#710000;stroke-width:1.5;"/>
    <path clip-path="url(#p1962652808)" d="M 247.01559 82.774058 
L 247.01559 77.884287 
" style="fill:none;stroke:#710000;stroke-width:1.5;"/>
   </g>
   <g id="LineCollection_9">
    <path clip-path="url(#p1962652808)" d="M 158.162913 46.306275 
L 158.162913 17.462271 
" style="fill:none;stroke:#aa0000;stroke-width:1.5;"/>
    <path clip-path="url(#p1962652808)" d="M 171.748362 76.532521 
L 171.748362 67.613017 
" style="fill:none;stroke:#aa0000;stroke-width:1.5;"/>
    <path clip-path="url(#p1962652808)" d="M 185.333812 80.03981 
L 185.333812 72.498239 
" style="fill:none;stroke:#aa0000;stroke-width:1.5;"/>
    <path clip-path="url(#p1962652808)" d="M 198.919262 81.662301 
L 198.919262 75.031994 
" style="fill:none;stroke:#aa0000;stroke-width:1.5;"/>
    <path clip-path="url(#p1962652808)" d="M 212.504712 82.651955 
L 212.504712 76.677641 
" style="fill:none;stroke:#aa0000;stroke-width:1.5;"/>
    <path clip-path="url(#p1962652808)" d="M 226.090162 83.313576 
L 226.090162 77.888748 
" style="fill:none;stroke:#aa0000;stroke-width:1.5;"/>
    <path clip-path="url(#p1962652808)" d="M 239.675612 83.779005 
L 239.675612 78.867101 
" style="fill:none;stroke:#aa0000;stroke-width:1.5;"/>
    <path clip-path="url(#p1962652808)" d="M 253.261061 84.135153 
L 253.261061 79.635074 
" style="fill:none;stroke:#aa0000;stroke-width:1.5;"/>
   </g>
   <g id="LineCollection_10">
    <path clip-path="url(#p1962652808)" d="M 158.162913 45.109045 
L 158.162913 18.659501 
" style="fill:none;stroke:#e30000;stroke-width:1.5;"/>
    <path clip-path="url(#p1962652808)" d="M 174.12364 77.796933 
L 174.12364 71.195116 
" style="fill:none;stroke:#e30000;stroke-width:1.5;"/>
    <path clip-path="url(#p1962652808)" d="M 190.084367 80.916521 
L 190.084367 75.506431 
" style="fill:none;stroke:#e30000;stroke-width:1.5;"/>
    <path clip-path="url(#p1962652808)" d="M 206.045095 82.428099 
L 206.045095 77.676371 
" style="fill:none;stroke:#e30000;stroke-width:1.5;"/>
    <path clip-path="url(#p1962652808)" d="M 222.005822 83.335696 
L 222.005822 79.062855 
" style="fill:none;stroke:#e30000;stroke-width:1.5;"/>
    <path clip-path="url(#p1962652808)" d="M 237.966549 83.941544 
L 237.966549 80.073429 
" style="fill:none;stroke:#e30000;stroke-width:1.5;"/>
    <path clip-path="url(#p1962652808)" d="M 253.927277 84.393958 
L 253.927277 80.859599 
" style="fill:none;stroke:#e30000;stroke-width:1.5;"/>
    <path clip-path="url(#p1962652808)" d="M 269.888004 84.730387 
L 269.888004 81.478104 
" style="fill:none;stroke:#e30000;stroke-width:1.5;"/>
   </g>
   <g id="line2d_32">
    <g clip-path="url(#p1962652808)">
     <use style="stroke:#000000;" x="158.162913" xlink:href="#ma2a7ec059e" y="31.884273"/>
     <use style="stroke:#000000;" x="168.387817" xlink:href="#ma2a7ec059e" y="50.996908"/>
     <use style="stroke:#000000;" x="178.612722" xlink:href="#ma2a7ec059e" y="57.694046"/>
     <use style="stroke:#000000;" x="188.837627" xlink:href="#ma2a7ec059e" y="62.262631"/>
     <use style="stroke:#000000;" x="199.062532" xlink:href="#ma2a7ec059e" y="65.240768"/>
     <use style="stroke:#000000;" x="209.287436" xlink:href="#ma2a7ec059e" y="67.381989"/>
     <use style="stroke:#000000;" x="219.512341" xlink:href="#ma2a7ec059e" y="69.230738"/>
     <use style="stroke:#000000;" x="229.737246" xlink:href="#ma2a7ec059e" y="70.535942"/>
    </g>
   </g>
   <g id="line2d_33">
    <g clip-path="url(#p1962652808)">
     <use style="fill:#390000;stroke:#390000;" x="158.162913" xlink:href="#m7eb540dd2e" y="31.884273"/>
     <use style="fill:#390000;stroke:#390000;" x="166.244325" xlink:href="#m7eb540dd2e" y="58.714275"/>
     <use style="fill:#390000;stroke:#390000;" x="174.325737" xlink:href="#m7eb540dd2e" y="65.524091"/>
     <use style="fill:#390000;stroke:#390000;" x="182.407149" xlink:href="#m7eb540dd2e" y="69.142188"/>
     <use style="fill:#390000;stroke:#390000;" x="190.488562" xlink:href="#m7eb540dd2e" y="71.489693"/>
     <use style="fill:#390000;stroke:#390000;" x="198.569974" xlink:href="#m7eb540dd2e" y="72.721274"/>
     <use style="fill:#390000;stroke:#390000;" x="206.651386" xlink:href="#m7eb540dd2e" y="74.039061"/>
     <use style="fill:#390000;stroke:#390000;" x="214.732798" xlink:href="#m7eb540dd2e" y="75.206376"/>
     <use style="fill:#390000;stroke:#390000;" x="222.814211" xlink:href="#m7eb540dd2e" y="76.138263"/>
     <use style="fill:#390000;stroke:#390000;" x="230.895623" xlink:href="#m7eb540dd2e" y="76.911911"/>
     <use style="fill:#390000;stroke:#390000;" x="238.977035" xlink:href="#m7eb540dd2e" y="77.623863"/>
    </g>
   </g>
   <g id="line2d_34">
    <g clip-path="url(#p1962652808)">
     <use style="fill:#710000;stroke:#710000;" x="158.162913" xlink:href="#m53447e7db1" y="31.884273"/>
     <use style="fill:#710000;stroke:#710000;" x="169.269497" xlink:href="#m53447e7db1" y="67.189156"/>
     <use style="fill:#710000;stroke:#710000;" x="180.376082" xlink:href="#m53447e7db1" y="72.297229"/>
     <use style="fill:#710000;stroke:#710000;" x="191.482666" xlink:href="#m53447e7db1" y="74.996061"/>
     <use style="fill:#710000;stroke:#710000;" x="202.589251" xlink:href="#m53447e7db1" y="76.723854"/>
     <use style="fill:#710000;stroke:#710000;" x="213.695836" xlink:href="#m53447e7db1" y="77.990909"/>
     <use style="fill:#710000;stroke:#710000;" x="224.80242" xlink:href="#m53447e7db1" y="78.928818"/>
     <use style="fill:#710000;stroke:#710000;" x="235.909005" xlink:href="#m53447e7db1" y="79.694498"/>
     <use style="fill:#710000;stroke:#710000;" x="247.01559" xlink:href="#m53447e7db1" y="80.329173"/>
    </g>
   </g>
   <g id="line2d_35">
    <g clip-path="url(#p1962652808)">
     <use style="fill:#aa0000;stroke:#aa0000;" x="158.162913" xlink:href="#m06af5aa387" y="31.884273"/>
     <use style="fill:#aa0000;stroke:#aa0000;" x="171.748362" xlink:href="#m06af5aa387" y="72.072769"/>
     <use style="fill:#aa0000;stroke:#aa0000;" x="185.333812" xlink:href="#m06af5aa387" y="76.269025"/>
     <use style="fill:#aa0000;stroke:#aa0000;" x="198.919262" xlink:href="#m06af5aa387" y="78.347147"/>
     <use style="fill:#aa0000;stroke:#aa0000;" x="212.504712" xlink:href="#m06af5aa387" y="79.664798"/>
     <use style="fill:#aa0000;stroke:#aa0000;" x="226.090162" xlink:href="#m06af5aa387" y="80.601162"/>
     <use style="fill:#aa0000;stroke:#aa0000;" x="239.675612" xlink:href="#m06af5aa387" y="81.323053"/>
     <use style="fill:#aa0000;stroke:#aa0000;" x="253.261061" xlink:href="#m06af5aa387" y="81.885114"/>
    </g>
   </g>
   <g id="line2d_36">
    <g clip-path="url(#p1962652808)">
     <use style="fill:#e30000;stroke:#e30000;" x="158.162913" xlink:href="#m49ad84eded" y="31.884273"/>
     <use style="fill:#e30000;stroke:#e30000;" x="174.12364" xlink:href="#m49ad84eded" y="74.496024"/>
     <use style="fill:#e30000;stroke:#e30000;" x="190.084367" xlink:href="#m49ad84eded" y="78.211476"/>
     <use style="fill:#e30000;stroke:#e30000;" x="206.045095" xlink:href="#m49ad84eded" y="80.052235"/>
     <use style="fill:#e30000;stroke:#e30000;" x="222.005822" xlink:href="#m49ad84eded" y="81.199275"/>
     <use style="fill:#e30000;stroke:#e30000;" x="237.966549" xlink:href="#m49ad84eded" y="82.007486"/>
     <use style="fill:#e30000;stroke:#e30000;" x="253.927277" xlink:href="#m49ad84eded" y="82.626779"/>
     <use style="fill:#e30000;stroke:#e30000;" x="269.888004" xlink:href="#m49ad84eded" y="83.104245"/>
    </g>
   </g>
   <g id="line2d_37">
    <path clip-path="url(#p1962652808)" d="M 158.162913 31.884273 
L 168.387817 50.996908 
L 178.612722 57.694046 
L 188.837627 62.262631 
L 199.062532 65.240768 
L 209.287436 67.381989 
L 219.512341 69.230738 
L 229.737246 70.535942 
" style="fill:none;stroke:#000000;stroke-linecap:square;stroke-width:1.5;"/>
   </g>
   <g id="line2d_38">
    <path clip-path="url(#p1962652808)" d="M 158.162913 31.884273 
L 160.856717 48.134626 
L 163.550521 54.500986 
L 166.244325 58.714275 
L 168.938129 61.630624 
L 171.631933 63.827732 
L 174.325737 65.524091 
L 177.019541 67.096945 
L 179.713345 68.291028 
L 182.407149 69.142188 
L 185.100953 70.036435 
L 187.794758 70.844621 
L 190.488562 71.489693 
L 193.182366 71.98852 
L 195.87617 72.323637 
L 198.569974 72.721274 
L 201.263778 73.542093 
L 203.957582 73.803204 
L 206.651386 74.039061 
L 209.34519 74.81931 
L 212.038994 75.074452 
L 214.732798 75.206376 
L 217.426602 75.811842 
L 220.120407 75.987738 
L 222.814211 76.138263 
L 225.508015 76.623727 
L 228.201819 76.856304 
L 230.895623 76.911911 
L 233.589427 77.163286 
L 236.283231 77.495282 
L 238.977035 77.623863 
L 241.670839 77.628145 
" style="fill:none;stroke:#390000;stroke-linecap:square;stroke-width:1.5;"/>
   </g>
   <g id="line2d_39">
    <path clip-path="url(#p1962652808)" d="M 158.162913 31.884273 
L 158.903352 43.204672 
L 159.64379 48.087227 
L 160.384229 51.810042 
L 161.124668 54.88832 
L 161.865107 56.939563 
L 163.345985 60.090386 
L 165.567302 63.615019 
L 167.04818 65.232672 
L 169.269497 67.189156 
L 172.231253 69.017156 
L 177.414326 71.306541 
L 179.635643 72.094576 
L 187.780472 74.231174 
L 196.665739 75.90469 
L 209.993641 77.624471 
L 221.840665 78.708788 
L 232.947249 79.502924 
L 251.458224 80.552595 
L 252.198663 80.589525 
L 252.198663 80.589525 
" style="fill:none;stroke:#710000;stroke-linecap:square;stroke-width:1.5;"/>
   </g>
   <g id="line2d_40">
    <path clip-path="url(#p1962652808)" d="M 158.162913 31.884273 
L 158.574593 42.650195 
L 158.986273 48.410054 
L 159.603794 53.357334 
L 160.427154 57.461491 
L 160.838834 59.05677 
L 161.456355 60.865529 
L 162.073875 62.293288 
L 163.720597 65.271412 
L 164.749797 66.65737 
L 165.367318 67.356187 
L 168.24908 69.99552 
L 170.513321 71.470613 
L 172.160043 72.254815 
L 176.071006 73.853688 
L 181.217009 75.350206 
L 186.774693 76.543029 
L 201.183504 78.617639 
L 208.799589 79.361351 
L 212.710552 79.685929 
L 213.328073 79.72853 
L 215.798154 79.929005 
L 218.062396 80.080236 
L 221.973359 80.344008 
L 222.796719 80.392091 
L 227.531043 80.696239 
L 228.148563 80.721137 
L 230.412805 80.858568 
L 234.735448 81.08122 
L 244.204095 81.528189 
L 245.027455 81.561603 
L 255.319463 81.962183 
L 255.936983 81.980176 
L 258.201225 82.07082 
L 263.347229 82.238108 
L 263.347229 82.238108 
" style="fill:none;stroke:#aa0000;stroke-linecap:square;stroke-width:1.5;"/>
   </g>
   <g id="line2d_41">
    <path clip-path="url(#p1962652808)" d="M 158.162913 31.884273 
L 158.388506 44.29088 
L 158.783294 50.824471 
L 159.460074 56.031214 
L 160.024057 58.979879 
L 160.700837 61.218862 
L 161.321219 62.815156 
L 161.772406 63.857779 
L 163.351559 66.767077 
L 163.689949 67.197608 
L 165.099907 68.938167 
L 168.258214 71.616296 
L 170.06296 72.710134 
L 171.41652 73.399252 
L 172.262495 73.762275 
L 175.81559 75.061851 
L 177.16915 75.505543 
L 178.917498 76.000387 
L 180.55305 76.414953 
L 187.490044 77.80377 
L 187.772036 77.847224 
L 190.140766 78.222531 
L 194.934624 78.880161 
L 196.006192 79.024341 
L 197.867337 79.240202 
L 198.713312 79.337996 
L 200.179668 79.497645 
L 203.112382 79.777982 
L 204.127551 79.876453 
L 204.747933 79.936937 
L 206.496281 80.080142 
L 207.116663 80.142322 
L 210.726156 80.427236 
L 212.643699 80.569021 
L 218.227134 80.957214 
L 226.1229 81.437802 
L 248.287444 82.42831 
L 252.009734 82.560332 
L 255.732023 82.688886 
L 256.465202 82.716106 
L 273.610294 83.200623 
L 273.610294 83.200623 
" style="fill:none;stroke:#e30000;stroke-linecap:square;stroke-width:1.5;"/>
   </g>
   <g id="patch_6">
    <path d="M 158.162913 88.297982 
L 158.162913 9.810887 
" style="fill:none;stroke:#000000;stroke-linecap:square;stroke-linejoin:miter;stroke-width:0.25;"/>
   </g>
   <g id="patch_7">
    <path d="M 158.162913 86.700143 
L 273.610294 86.700143 
" style="fill:none;stroke:#000000;stroke-linecap:square;stroke-linejoin:miter;stroke-width:0.25;"/>
   </g>
   <g id="legend_1">
    <g id="LineCollection_11">
     <path d="M 214.587391 15.927831 
L 214.587391 9.927831 
" style="fill:none;stroke:#000000;stroke-width:1.5;"/>
    </g>
    <g id="line2d_42">
     <path d="M 208.587391 12.927831 
L 220.587391 12.927831 
" style="fill:none;stroke:#000000;stroke-linecap:square;stroke-width:1.5;"/>
    </g>
    <g id="line2d_43"/>
    <g id="text_28">
     <!-- 16 -->
     <g transform="translate(225.387391 15.027831)scale(0.06 -0.06)">
      <use xlink:href="#DejaVuSans-31"/>
      <use x="63.623047" xlink:href="#DejaVuSans-36"/>
     </g>
    </g>
    <g id="LineCollection_12">
     <path d="M 214.587391 24.734706 
L 214.587391 18.734706 
" style="fill:none;stroke:#390000;stroke-width:1.5;"/>
    </g>
    <g id="line2d_44">
     <path d="M 208.587391 21.734706 
L 220.587391 21.734706 
" style="fill:none;stroke:#390000;stroke-linecap:square;stroke-width:1.5;"/>
    </g>
    <g id="line2d_45"/>
    <g id="text_29">
     <!-- 32 -->
     <g transform="translate(225.387391 23.834706)scale(0.06 -0.06)">
      <use xlink:href="#DejaVuSans-33"/>
      <use x="63.623047" xlink:href="#DejaVuSans-32"/>
     </g>
    </g>
    <g id="LineCollection_13">
     <path d="M 214.587391 33.541581 
L 214.587391 27.541581 
" style="fill:none;stroke:#710000;stroke-width:1.5;"/>
    </g>
    <g id="line2d_46">
     <path d="M 208.587391 30.541581 
L 220.587391 30.541581 
" style="fill:none;stroke:#710000;stroke-linecap:square;stroke-width:1.5;"/>
    </g>
    <g id="line2d_47"/>
    <g id="text_30">
     <!-- 64 -->
     <g transform="translate(225.387391 32.641581)scale(0.06 -0.06)">
      <use xlink:href="#DejaVuSans-36"/>
      <use x="63.623047" xlink:href="#DejaVuSans-34"/>
     </g>
    </g>
    <g id="LineCollection_14">
     <path d="M 214.587391 42.348456 
L 214.587391 36.348456 
" style="fill:none;stroke:#aa0000;stroke-width:1.5;"/>
    </g>
    <g id="line2d_48">
     <path d="M 208.587391 39.348456 
L 220.587391 39.348456 
" style="fill:none;stroke:#aa0000;stroke-linecap:square;stroke-width:1.5;"/>
    </g>
    <g id="line2d_49"/>
    <g id="text_31">
     <!-- 128 -->
     <g transform="translate(225.387391 41.448456)scale(0.06 -0.06)">
      <use xlink:href="#DejaVuSans-31"/>
      <use x="63.623047" xlink:href="#DejaVuSans-32"/>
      <use x="127.246094" xlink:href="#DejaVuSans-38"/>
     </g>
    </g>
    <g id="LineCollection_15">
     <path d="M 214.587391 51.155331 
L 214.587391 45.155331 
" style="fill:none;stroke:#e30000;stroke-width:1.5;"/>
    </g>
    <g id="line2d_50">
     <path d="M 208.587391 48.155331 
L 220.587391 48.155331 
" style="fill:none;stroke:#e30000;stroke-linecap:square;stroke-width:1.5;"/>
    </g>
    <g id="line2d_51"/>
    <g id="text_32">
     <!-- 256 -->
     <g transform="translate(225.387391 50.255331)scale(0.06 -0.06)">
      <use xlink:href="#DejaVuSans-32"/>
      <use x="63.623047" xlink:href="#DejaVuSans-35"/>
      <use x="127.246094" xlink:href="#DejaVuSans-36"/>
     </g>
    </g>
   </g>
  </g>
 </g>
 <defs>
  <clipPath id="pe801229470">
   <rect height="139.314593" width="238.110224" x="47.622045" y="23.546128"/>
  </clipPath>
  <clipPath id="p1962652808">
   <rect height="78.487095" width="126.99212" x="152.390543" y="9.810887"/>
  </clipPath>
 </defs>
</svg>
