<?xml version="1.0" encoding="utf-8" standalone="no"?>
<!DOCTYPE svg PUBLIC "-//W3C//DTD SVG 1.1//EN"
  "http://www.w3.org/Graphics/SVG/1.1/DTD/svg11.dtd">
<!-- Created with matplotlib (http://matplotlib.org/) -->
<svg height="196pt" version="1.1" viewBox="0 0 317 196" width="317pt" xmlns="http://www.w3.org/2000/svg" xmlns:xlink="http://www.w3.org/1999/xlink">
 <defs>
  <style type="text/css">
*{stroke-linecap:butt;stroke-linejoin:round;}
  </style>
 </defs>
 <g id="figure_1">
  <g id="patch_1">
   <path d="M 0 196.217737 
L 317.480299 196.217737 
L 317.480299 0 
L 0 0 
z
" style="fill:#ffffff;"/>
  </g>
  <g id="axes_1">
   <g id="patch_2">
    <path d="M 30.441808 157.256864 
L 305.340299 157.256864 
L 305.340299 12.14 
L 30.441808 12.14 
z
" style="fill:#ffffff;"/>
   </g>
   <g id="matplotlib.axis_1">
    <g id="xtick_1">
     <g id="line2d_1">
      <defs>
       <path d="M 0 0 
L 0 3.5 
" id="maa2741f778" style="stroke:#000000;stroke-width:0.8;"/>
      </defs>
      <g>
       <use style="stroke:#000000;stroke-width:0.8;" x="42.937194" xlink:href="#maa2741f778" y="154.466155"/>
      </g>
     </g>
     <g id="text_1">
      <!-- 0 -->
      <defs>
       <path d="M 31.78125 66.40625 
Q 24.171875 66.40625 20.328125 58.90625 
Q 16.5 51.421875 16.5 36.375 
Q 16.5 21.390625 20.328125 13.890625 
Q 24.171875 6.390625 31.78125 6.390625 
Q 39.453125 6.390625 43.28125 13.890625 
Q 47.125 21.390625 47.125 36.375 
Q 47.125 51.421875 43.28125 58.90625 
Q 39.453125 66.40625 31.78125 66.40625 
M 31.78125 74.21875 
Q 44.046875 74.21875 50.515625 64.515625 
Q 56.984375 54.828125 56.984375 36.375 
Q 56.984375 17.96875 50.515625 8.265625 
Q 44.046875 -1.421875 31.78125 -1.421875 
Q 19.53125 -1.421875 13.0625 8.265625 
Q 6.59375 17.96875 6.59375 36.375 
Q 6.59375 54.828125 13.0625 64.515625 
Q 19.53125 74.21875 31.78125 74.21875 
" id="DejaVuSans-30"/>
      </defs>
      <g transform="translate(40.392194 167.544905)scale(0.08 -0.08)">
       <use xlink:href="#DejaVuSans-30"/>
      </g>
     </g>
    </g>
    <g id="xtick_2">
     <g id="line2d_2">
      <g>
       <use style="stroke:#000000;stroke-width:0.8;" x="76.196701" xlink:href="#maa2741f778" y="154.466155"/>
      </g>
     </g>
     <g id="text_2">
      <!-- 1 -->
      <defs>
       <path d="M 12.40625 8.296875 
L 28.515625 8.296875 
L 28.515625 63.921875 
L 10.984375 60.40625 
L 10.984375 69.390625 
L 28.421875 72.90625 
L 38.28125 72.90625 
L 38.28125 8.296875 
L 54.390625 8.296875 
L 54.390625 0 
L 12.40625 0 
z
" id="DejaVuSans-31"/>
      </defs>
      <g transform="translate(73.651701 167.544905)scale(0.08 -0.08)">
       <use xlink:href="#DejaVuSans-31"/>
      </g>
     </g>
    </g>
    <g id="xtick_3">
     <g id="line2d_3">
      <g>
       <use style="stroke:#000000;stroke-width:0.8;" x="109.456208" xlink:href="#maa2741f778" y="154.466155"/>
      </g>
     </g>
     <g id="text_3">
      <!-- 2 -->
      <defs>
       <path d="M 19.1875 8.296875 
L 53.609375 8.296875 
L 53.609375 0 
L 7.328125 0 
L 7.328125 8.296875 
Q 12.9375 14.109375 22.625 23.890625 
Q 32.328125 33.6875 34.8125 36.53125 
Q 39.546875 41.84375 41.421875 45.53125 
Q 43.3125 49.21875 43.3125 52.78125 
Q 43.3125 58.59375 39.234375 62.25 
Q 35.15625 65.921875 28.609375 65.921875 
Q 23.96875 65.921875 18.8125 64.3125 
Q 13.671875 62.703125 7.8125 59.421875 
L 7.8125 69.390625 
Q 13.765625 71.78125 18.9375 73 
Q 24.125 74.21875 28.421875 74.21875 
Q 39.75 74.21875 46.484375 68.546875 
Q 53.21875 62.890625 53.21875 53.421875 
Q 53.21875 48.921875 51.53125 44.890625 
Q 49.859375 40.875 45.40625 35.40625 
Q 44.1875 33.984375 37.640625 27.21875 
Q 31.109375 20.453125 19.1875 8.296875 
" id="DejaVuSans-32"/>
      </defs>
      <g transform="translate(106.911208 167.544905)scale(0.08 -0.08)">
       <use xlink:href="#DejaVuSans-32"/>
      </g>
     </g>
    </g>
    <g id="xtick_4">
     <g id="line2d_4">
      <g>
       <use style="stroke:#000000;stroke-width:0.8;" x="142.715716" xlink:href="#maa2741f778" y="154.466155"/>
      </g>
     </g>
     <g id="text_4">
      <!-- 3 -->
      <defs>
       <path d="M 40.578125 39.3125 
Q 47.65625 37.796875 51.625 33 
Q 55.609375 28.21875 55.609375 21.1875 
Q 55.609375 10.40625 48.1875 4.484375 
Q 40.765625 -1.421875 27.09375 -1.421875 
Q 22.515625 -1.421875 17.65625 -0.515625 
Q 12.796875 0.390625 7.625 2.203125 
L 7.625 11.71875 
Q 11.71875 9.328125 16.59375 8.109375 
Q 21.484375 6.890625 26.8125 6.890625 
Q 36.078125 6.890625 40.9375 10.546875 
Q 45.796875 14.203125 45.796875 21.1875 
Q 45.796875 27.640625 41.28125 31.265625 
Q 36.765625 34.90625 28.71875 34.90625 
L 20.21875 34.90625 
L 20.21875 43.015625 
L 29.109375 43.015625 
Q 36.375 43.015625 40.234375 45.921875 
Q 44.09375 48.828125 44.09375 54.296875 
Q 44.09375 59.90625 40.109375 62.90625 
Q 36.140625 65.921875 28.71875 65.921875 
Q 24.65625 65.921875 20.015625 65.03125 
Q 15.375 64.15625 9.8125 62.3125 
L 9.8125 71.09375 
Q 15.4375 72.65625 20.34375 73.4375 
Q 25.25 74.21875 29.59375 74.21875 
Q 40.828125 74.21875 47.359375 69.109375 
Q 53.90625 64.015625 53.90625 55.328125 
Q 53.90625 49.265625 50.4375 45.09375 
Q 46.96875 40.921875 40.578125 39.3125 
" id="DejaVuSans-33"/>
      </defs>
      <g transform="translate(140.170716 167.544905)scale(0.08 -0.08)">
       <use xlink:href="#DejaVuSans-33"/>
      </g>
     </g>
    </g>
    <g id="xtick_5">
     <g id="line2d_5">
      <g>
       <use style="stroke:#000000;stroke-width:0.8;" x="175.975223" xlink:href="#maa2741f778" y="154.466155"/>
      </g>
     </g>
     <g id="text_5">
      <!-- 4 -->
      <defs>
       <path d="M 37.796875 64.3125 
L 12.890625 25.390625 
L 37.796875 25.390625 
z
M 35.203125 72.90625 
L 47.609375 72.90625 
L 47.609375 25.390625 
L 58.015625 25.390625 
L 58.015625 17.1875 
L 47.609375 17.1875 
L 47.609375 0 
L 37.796875 0 
L 37.796875 17.1875 
L 4.890625 17.1875 
L 4.890625 26.703125 
z
" id="DejaVuSans-34"/>
      </defs>
      <g transform="translate(173.430223 167.544905)scale(0.08 -0.08)">
       <use xlink:href="#DejaVuSans-34"/>
      </g>
     </g>
    </g>
    <g id="xtick_6">
     <g id="line2d_6">
      <g>
       <use style="stroke:#000000;stroke-width:0.8;" x="209.23473" xlink:href="#maa2741f778" y="154.466155"/>
      </g>
     </g>
     <g id="text_6">
      <!-- 5 -->
      <defs>
       <path d="M 10.796875 72.90625 
L 49.515625 72.90625 
L 49.515625 64.59375 
L 19.828125 64.59375 
L 19.828125 46.734375 
Q 21.96875 47.46875 24.109375 47.828125 
Q 26.265625 48.1875 28.421875 48.1875 
Q 40.625 48.1875 47.75 41.5 
Q 54.890625 34.8125 54.890625 23.390625 
Q 54.890625 11.625 47.5625 5.09375 
Q 40.234375 -1.421875 26.90625 -1.421875 
Q 22.3125 -1.421875 17.546875 -0.640625 
Q 12.796875 0.140625 7.71875 1.703125 
L 7.71875 11.625 
Q 12.109375 9.234375 16.796875 8.0625 
Q 21.484375 6.890625 26.703125 6.890625 
Q 35.15625 6.890625 40.078125 11.328125 
Q 45.015625 15.765625 45.015625 23.390625 
Q 45.015625 31 40.078125 35.4375 
Q 35.15625 39.890625 26.703125 39.890625 
Q 22.75 39.890625 18.8125 39.015625 
Q 14.890625 38.140625 10.796875 36.28125 
z
" id="DejaVuSans-35"/>
      </defs>
      <g transform="translate(206.68973 167.544905)scale(0.08 -0.08)">
       <use xlink:href="#DejaVuSans-35"/>
      </g>
     </g>
    </g>
    <g id="xtick_7">
     <g id="line2d_7">
      <g>
       <use style="stroke:#000000;stroke-width:0.8;" x="242.494237" xlink:href="#maa2741f778" y="154.466155"/>
      </g>
     </g>
     <g id="text_7">
      <!-- 6 -->
      <defs>
       <path d="M 33.015625 40.375 
Q 26.375 40.375 22.484375 35.828125 
Q 18.609375 31.296875 18.609375 23.390625 
Q 18.609375 15.53125 22.484375 10.953125 
Q 26.375 6.390625 33.015625 6.390625 
Q 39.65625 6.390625 43.53125 10.953125 
Q 47.40625 15.53125 47.40625 23.390625 
Q 47.40625 31.296875 43.53125 35.828125 
Q 39.65625 40.375 33.015625 40.375 
M 52.59375 71.296875 
L 52.59375 62.3125 
Q 48.875 64.0625 45.09375 64.984375 
Q 41.3125 65.921875 37.59375 65.921875 
Q 27.828125 65.921875 22.671875 59.328125 
Q 17.53125 52.734375 16.796875 39.40625 
Q 19.671875 43.65625 24.015625 45.921875 
Q 28.375 48.1875 33.59375 48.1875 
Q 44.578125 48.1875 50.953125 41.515625 
Q 57.328125 34.859375 57.328125 23.390625 
Q 57.328125 12.15625 50.6875 5.359375 
Q 44.046875 -1.421875 33.015625 -1.421875 
Q 20.359375 -1.421875 13.671875 8.265625 
Q 6.984375 17.96875 6.984375 36.375 
Q 6.984375 53.65625 15.1875 63.9375 
Q 23.390625 74.21875 37.203125 74.21875 
Q 40.921875 74.21875 44.703125 73.484375 
Q 48.484375 72.75 52.59375 71.296875 
" id="DejaVuSans-36"/>
      </defs>
      <g transform="translate(239.949237 167.544905)scale(0.08 -0.08)">
       <use xlink:href="#DejaVuSans-36"/>
      </g>
     </g>
    </g>
    <g id="xtick_8">
     <g id="line2d_8">
      <g>
       <use style="stroke:#000000;stroke-width:0.8;" x="275.753745" xlink:href="#maa2741f778" y="154.466155"/>
      </g>
     </g>
     <g id="text_8">
      <!-- 7 -->
      <defs>
       <path d="M 8.203125 72.90625 
L 55.078125 72.90625 
L 55.078125 68.703125 
L 28.609375 0 
L 18.3125 0 
L 43.21875 64.59375 
L 8.203125 64.59375 
z
" id="DejaVuSans-37"/>
      </defs>
      <g transform="translate(273.208745 167.544905)scale(0.08 -0.08)">
       <use xlink:href="#DejaVuSans-37"/>
      </g>
     </g>
    </g>
    <g id="text_9">
     <!-- relative $\ell_0$ pseudo-norm (bits / pixel) -->
     <defs>
      <path d="M 41.109375 46.296875 
Q 39.59375 47.171875 37.8125 47.578125 
Q 36.03125 48 33.890625 48 
Q 26.265625 48 22.1875 43.046875 
Q 18.109375 38.09375 18.109375 28.8125 
L 18.109375 0 
L 9.078125 0 
L 9.078125 54.6875 
L 18.109375 54.6875 
L 18.109375 46.1875 
Q 20.953125 51.171875 25.484375 53.578125 
Q 30.03125 56 36.53125 56 
Q 37.453125 56 38.578125 55.875 
Q 39.703125 55.765625 41.0625 55.515625 
z
" id="DejaVuSans-72"/>
      <path d="M 56.203125 29.59375 
L 56.203125 25.203125 
L 14.890625 25.203125 
Q 15.484375 15.921875 20.484375 11.0625 
Q 25.484375 6.203125 34.421875 6.203125 
Q 39.59375 6.203125 44.453125 7.46875 
Q 49.3125 8.734375 54.109375 11.28125 
L 54.109375 2.78125 
Q 49.265625 0.734375 44.1875 -0.34375 
Q 39.109375 -1.421875 33.890625 -1.421875 
Q 20.796875 -1.421875 13.15625 6.1875 
Q 5.515625 13.8125 5.515625 26.8125 
Q 5.515625 40.234375 12.765625 48.109375 
Q 20.015625 56 32.328125 56 
Q 43.359375 56 49.78125 48.890625 
Q 56.203125 41.796875 56.203125 29.59375 
M 47.21875 32.234375 
Q 47.125 39.59375 43.09375 43.984375 
Q 39.0625 48.390625 32.421875 48.390625 
Q 24.90625 48.390625 20.390625 44.140625 
Q 15.875 39.890625 15.1875 32.171875 
z
" id="DejaVuSans-65"/>
      <path d="M 9.421875 75.984375 
L 18.40625 75.984375 
L 18.40625 0 
L 9.421875 0 
z
" id="DejaVuSans-6c"/>
      <path d="M 34.28125 27.484375 
Q 23.390625 27.484375 19.1875 25 
Q 14.984375 22.515625 14.984375 16.5 
Q 14.984375 11.71875 18.140625 8.90625 
Q 21.296875 6.109375 26.703125 6.109375 
Q 34.1875 6.109375 38.703125 11.40625 
Q 43.21875 16.703125 43.21875 25.484375 
L 43.21875 27.484375 
z
M 52.203125 31.203125 
L 52.203125 0 
L 43.21875 0 
L 43.21875 8.296875 
Q 40.140625 3.328125 35.546875 0.953125 
Q 30.953125 -1.421875 24.3125 -1.421875 
Q 15.921875 -1.421875 10.953125 3.296875 
Q 6 8.015625 6 15.921875 
Q 6 25.140625 12.171875 29.828125 
Q 18.359375 34.515625 30.609375 34.515625 
L 43.21875 34.515625 
L 43.21875 35.40625 
Q 43.21875 41.609375 39.140625 45 
Q 35.0625 48.390625 27.6875 48.390625 
Q 23 48.390625 18.546875 47.265625 
Q 14.109375 46.140625 10.015625 43.890625 
L 10.015625 52.203125 
Q 14.9375 54.109375 19.578125 55.046875 
Q 24.21875 56 28.609375 56 
Q 40.484375 56 46.34375 49.84375 
Q 52.203125 43.703125 52.203125 31.203125 
" id="DejaVuSans-61"/>
      <path d="M 18.3125 70.21875 
L 18.3125 54.6875 
L 36.8125 54.6875 
L 36.8125 47.703125 
L 18.3125 47.703125 
L 18.3125 18.015625 
Q 18.3125 11.328125 20.140625 9.421875 
Q 21.96875 7.515625 27.59375 7.515625 
L 36.8125 7.515625 
L 36.8125 0 
L 27.59375 0 
Q 17.1875 0 13.234375 3.875 
Q 9.28125 7.765625 9.28125 18.015625 
L 9.28125 47.703125 
L 2.6875 47.703125 
L 2.6875 54.6875 
L 9.28125 54.6875 
L 9.28125 70.21875 
z
" id="DejaVuSans-74"/>
      <path d="M 9.421875 54.6875 
L 18.40625 54.6875 
L 18.40625 0 
L 9.421875 0 
z
M 9.421875 75.984375 
L 18.40625 75.984375 
L 18.40625 64.59375 
L 9.421875 64.59375 
z
" id="DejaVuSans-69"/>
      <path d="M 2.984375 54.6875 
L 12.5 54.6875 
L 29.59375 8.796875 
L 46.6875 54.6875 
L 56.203125 54.6875 
L 35.6875 0 
L 23.484375 0 
z
" id="DejaVuSans-76"/>
      <path id="DejaVuSans-20"/>
      <path d="M 14.84375 13.09375 
Q 16.84375 3.328125 21.09375 3.328125 
Q 23.921875 3.328125 27.59375 8.9375 
L 34.078125 8.9375 
Q 31.15625 3.953125 27.734375 1.375 
Q 24.03125 -1.421875 20.609375 -1.421875 
Q 12.984375 -1.421875 9.90625 5.375 
L 6.25 0 
L -1.375 0 
Q 3.90625 7.171875 7.8125 13.875 
Q 7.328125 17.671875 7.328125 21.828125 
Q 7.328125 29.25 8.84375 36.671875 
Q 14.546875 64.546875 19.625 70.265625 
Q 23.140625 74.21875 29.15625 74.21875 
Q 35.25 74.21875 35.25 65.765625 
Q 35.203125 61.96875 34.328125 57.421875 
Q 30.8125 38.8125 14.84375 13.09375 
M 14.796875 25.875 
Q 23.921875 42.875 26.703125 56.453125 
Q 28.171875 63.625 28.171875 65.484375 
Q 28.171875 68.84375 26.953125 68.84375 
Q 21.625 64.59375 16.890625 39.3125 
Q 15.578125 32.234375 14.796875 25.875 
" id="DejaVuSans-Oblique-2113"/>
      <path d="M 18.109375 8.203125 
L 18.109375 -20.796875 
L 9.078125 -20.796875 
L 9.078125 54.6875 
L 18.109375 54.6875 
L 18.109375 46.390625 
Q 20.953125 51.265625 25.265625 53.625 
Q 29.59375 56 35.59375 56 
Q 45.5625 56 51.78125 48.09375 
Q 58.015625 40.1875 58.015625 27.296875 
Q 58.015625 14.40625 51.78125 6.484375 
Q 45.5625 -1.421875 35.59375 -1.421875 
Q 29.59375 -1.421875 25.265625 0.953125 
Q 20.953125 3.328125 18.109375 8.203125 
M 48.6875 27.296875 
Q 48.6875 37.203125 44.609375 42.84375 
Q 40.53125 48.484375 33.40625 48.484375 
Q 26.265625 48.484375 22.1875 42.84375 
Q 18.109375 37.203125 18.109375 27.296875 
Q 18.109375 17.390625 22.1875 11.75 
Q 26.265625 6.109375 33.40625 6.109375 
Q 40.53125 6.109375 44.609375 11.75 
Q 48.6875 17.390625 48.6875 27.296875 
" id="DejaVuSans-70"/>
      <path d="M 44.28125 53.078125 
L 44.28125 44.578125 
Q 40.484375 46.53125 36.375 47.5 
Q 32.28125 48.484375 27.875 48.484375 
Q 21.1875 48.484375 17.84375 46.4375 
Q 14.5 44.390625 14.5 40.28125 
Q 14.5 37.15625 16.890625 35.375 
Q 19.28125 33.59375 26.515625 31.984375 
L 29.59375 31.296875 
Q 39.15625 29.25 43.1875 25.515625 
Q 47.21875 21.78125 47.21875 15.09375 
Q 47.21875 7.46875 41.1875 3.015625 
Q 35.15625 -1.421875 24.609375 -1.421875 
Q 20.21875 -1.421875 15.453125 -0.5625 
Q 10.6875 0.296875 5.421875 2 
L 5.421875 11.28125 
Q 10.40625 8.6875 15.234375 7.390625 
Q 20.0625 6.109375 24.8125 6.109375 
Q 31.15625 6.109375 34.5625 8.28125 
Q 37.984375 10.453125 37.984375 14.40625 
Q 37.984375 18.0625 35.515625 20.015625 
Q 33.0625 21.96875 24.703125 23.78125 
L 21.578125 24.515625 
Q 13.234375 26.265625 9.515625 29.90625 
Q 5.8125 33.546875 5.8125 39.890625 
Q 5.8125 47.609375 11.28125 51.796875 
Q 16.75 56 26.8125 56 
Q 31.78125 56 36.171875 55.265625 
Q 40.578125 54.546875 44.28125 53.078125 
" id="DejaVuSans-73"/>
      <path d="M 8.5 21.578125 
L 8.5 54.6875 
L 17.484375 54.6875 
L 17.484375 21.921875 
Q 17.484375 14.15625 20.5 10.265625 
Q 23.53125 6.390625 29.59375 6.390625 
Q 36.859375 6.390625 41.078125 11.03125 
Q 45.3125 15.671875 45.3125 23.6875 
L 45.3125 54.6875 
L 54.296875 54.6875 
L 54.296875 0 
L 45.3125 0 
L 45.3125 8.40625 
Q 42.046875 3.421875 37.71875 1 
Q 33.40625 -1.421875 27.6875 -1.421875 
Q 18.265625 -1.421875 13.375 4.4375 
Q 8.5 10.296875 8.5 21.578125 
M 31.109375 56 
z
" id="DejaVuSans-75"/>
      <path d="M 45.40625 46.390625 
L 45.40625 75.984375 
L 54.390625 75.984375 
L 54.390625 0 
L 45.40625 0 
L 45.40625 8.203125 
Q 42.578125 3.328125 38.25 0.953125 
Q 33.9375 -1.421875 27.875 -1.421875 
Q 17.96875 -1.421875 11.734375 6.484375 
Q 5.515625 14.40625 5.515625 27.296875 
Q 5.515625 40.1875 11.734375 48.09375 
Q 17.96875 56 27.875 56 
Q 33.9375 56 38.25 53.625 
Q 42.578125 51.265625 45.40625 46.390625 
M 14.796875 27.296875 
Q 14.796875 17.390625 18.875 11.75 
Q 22.953125 6.109375 30.078125 6.109375 
Q 37.203125 6.109375 41.296875 11.75 
Q 45.40625 17.390625 45.40625 27.296875 
Q 45.40625 37.203125 41.296875 42.84375 
Q 37.203125 48.484375 30.078125 48.484375 
Q 22.953125 48.484375 18.875 42.84375 
Q 14.796875 37.203125 14.796875 27.296875 
" id="DejaVuSans-64"/>
      <path d="M 30.609375 48.390625 
Q 23.390625 48.390625 19.1875 42.75 
Q 14.984375 37.109375 14.984375 27.296875 
Q 14.984375 17.484375 19.15625 11.84375 
Q 23.34375 6.203125 30.609375 6.203125 
Q 37.796875 6.203125 41.984375 11.859375 
Q 46.1875 17.53125 46.1875 27.296875 
Q 46.1875 37.015625 41.984375 42.703125 
Q 37.796875 48.390625 30.609375 48.390625 
M 30.609375 56 
Q 42.328125 56 49.015625 48.375 
Q 55.71875 40.765625 55.71875 27.296875 
Q 55.71875 13.875 49.015625 6.21875 
Q 42.328125 -1.421875 30.609375 -1.421875 
Q 18.84375 -1.421875 12.171875 6.21875 
Q 5.515625 13.875 5.515625 27.296875 
Q 5.515625 40.765625 12.171875 48.375 
Q 18.84375 56 30.609375 56 
" id="DejaVuSans-6f"/>
      <path d="M 4.890625 31.390625 
L 31.203125 31.390625 
L 31.203125 23.390625 
L 4.890625 23.390625 
z
" id="DejaVuSans-2d"/>
      <path d="M 54.890625 33.015625 
L 54.890625 0 
L 45.90625 0 
L 45.90625 32.71875 
Q 45.90625 40.484375 42.875 44.328125 
Q 39.84375 48.1875 33.796875 48.1875 
Q 26.515625 48.1875 22.3125 43.546875 
Q 18.109375 38.921875 18.109375 30.90625 
L 18.109375 0 
L 9.078125 0 
L 9.078125 54.6875 
L 18.109375 54.6875 
L 18.109375 46.1875 
Q 21.34375 51.125 25.703125 53.5625 
Q 30.078125 56 35.796875 56 
Q 45.21875 56 50.046875 50.171875 
Q 54.890625 44.34375 54.890625 33.015625 
" id="DejaVuSans-6e"/>
      <path d="M 52 44.1875 
Q 55.375 50.25 60.0625 53.125 
Q 64.75 56 71.09375 56 
Q 79.640625 56 84.28125 50.015625 
Q 88.921875 44.046875 88.921875 33.015625 
L 88.921875 0 
L 79.890625 0 
L 79.890625 32.71875 
Q 79.890625 40.578125 77.09375 44.375 
Q 74.3125 48.1875 68.609375 48.1875 
Q 61.625 48.1875 57.5625 43.546875 
Q 53.515625 38.921875 53.515625 30.90625 
L 53.515625 0 
L 44.484375 0 
L 44.484375 32.71875 
Q 44.484375 40.625 41.703125 44.40625 
Q 38.921875 48.1875 33.109375 48.1875 
Q 26.21875 48.1875 22.15625 43.53125 
Q 18.109375 38.875 18.109375 30.90625 
L 18.109375 0 
L 9.078125 0 
L 9.078125 54.6875 
L 18.109375 54.6875 
L 18.109375 46.1875 
Q 21.1875 51.21875 25.484375 53.609375 
Q 29.78125 56 35.6875 56 
Q 41.65625 56 45.828125 52.96875 
Q 50 49.953125 52 44.1875 
" id="DejaVuSans-6d"/>
      <path d="M 31 75.875 
Q 24.46875 64.65625 21.28125 53.65625 
Q 18.109375 42.671875 18.109375 31.390625 
Q 18.109375 20.125 21.3125 9.0625 
Q 24.515625 -2 31 -13.1875 
L 23.1875 -13.1875 
Q 15.875 -1.703125 12.234375 9.375 
Q 8.59375 20.453125 8.59375 31.390625 
Q 8.59375 42.28125 12.203125 53.3125 
Q 15.828125 64.359375 23.1875 75.875 
z
" id="DejaVuSans-28"/>
      <path d="M 48.6875 27.296875 
Q 48.6875 37.203125 44.609375 42.84375 
Q 40.53125 48.484375 33.40625 48.484375 
Q 26.265625 48.484375 22.1875 42.84375 
Q 18.109375 37.203125 18.109375 27.296875 
Q 18.109375 17.390625 22.1875 11.75 
Q 26.265625 6.109375 33.40625 6.109375 
Q 40.53125 6.109375 44.609375 11.75 
Q 48.6875 17.390625 48.6875 27.296875 
M 18.109375 46.390625 
Q 20.953125 51.265625 25.265625 53.625 
Q 29.59375 56 35.59375 56 
Q 45.5625 56 51.78125 48.09375 
Q 58.015625 40.1875 58.015625 27.296875 
Q 58.015625 14.40625 51.78125 6.484375 
Q 45.5625 -1.421875 35.59375 -1.421875 
Q 29.59375 -1.421875 25.265625 0.953125 
Q 20.953125 3.328125 18.109375 8.203125 
L 18.109375 0 
L 9.078125 0 
L 9.078125 75.984375 
L 18.109375 75.984375 
z
" id="DejaVuSans-62"/>
      <path d="M 25.390625 72.90625 
L 33.6875 72.90625 
L 8.296875 -9.28125 
L 0 -9.28125 
z
" id="DejaVuSans-2f"/>
      <path d="M 54.890625 54.6875 
L 35.109375 28.078125 
L 55.90625 0 
L 45.3125 0 
L 29.390625 21.484375 
L 13.484375 0 
L 2.875 0 
L 24.125 28.609375 
L 4.6875 54.6875 
L 15.28125 54.6875 
L 29.78125 35.203125 
L 44.28125 54.6875 
z
" id="DejaVuSans-78"/>
      <path d="M 8.015625 75.875 
L 15.828125 75.875 
Q 23.140625 64.359375 26.78125 53.3125 
Q 30.421875 42.28125 30.421875 31.390625 
Q 30.421875 20.453125 26.78125 9.375 
Q 23.140625 -1.703125 15.828125 -13.1875 
L 8.015625 -13.1875 
Q 14.5 -2 17.703125 9.0625 
Q 20.90625 20.125 20.90625 31.390625 
Q 20.90625 42.671875 17.703125 53.65625 
Q 14.5 64.65625 8.015625 75.875 
" id="DejaVuSans-29"/>
     </defs>
     <g transform="translate(94.851053 179.288655)scale(0.08 -0.08)">
      <use transform="translate(0 0.015625)" xlink:href="#DejaVuSans-72"/>
      <use transform="translate(41.113281 0.015625)" xlink:href="#DejaVuSans-65"/>
      <use transform="translate(102.636719 0.015625)" xlink:href="#DejaVuSans-6c"/>
      <use transform="translate(130.419922 0.015625)" xlink:href="#DejaVuSans-61"/>
      <use transform="translate(191.699219 0.015625)" xlink:href="#DejaVuSans-74"/>
      <use transform="translate(230.908203 0.015625)" xlink:href="#DejaVuSans-69"/>
      <use transform="translate(258.691406 0.015625)" xlink:href="#DejaVuSans-76"/>
      <use transform="translate(317.871094 0.015625)" xlink:href="#DejaVuSans-65"/>
      <use transform="translate(379.394531 0.015625)" xlink:href="#DejaVuSans-20"/>
      <use transform="translate(411.181641 0.015625)" xlink:href="#DejaVuSans-Oblique-2113"/>
      <use transform="translate(452.490234 -16.390625)scale(0.7)" xlink:href="#DejaVuSans-30"/>
      <use transform="translate(499.760742 0.015625)" xlink:href="#DejaVuSans-20"/>
      <use transform="translate(531.547852 0.015625)" xlink:href="#DejaVuSans-70"/>
      <use transform="translate(595.024414 0.015625)" xlink:href="#DejaVuSans-73"/>
      <use transform="translate(647.124023 0.015625)" xlink:href="#DejaVuSans-65"/>
      <use transform="translate(708.647461 0.015625)" xlink:href="#DejaVuSans-75"/>
      <use transform="translate(772.026367 0.015625)" xlink:href="#DejaVuSans-64"/>
      <use transform="translate(835.50293 0.015625)" xlink:href="#DejaVuSans-6f"/>
      <use transform="translate(896.68457 0.015625)" xlink:href="#DejaVuSans-2d"/>
      <use transform="translate(932.768555 0.015625)" xlink:href="#DejaVuSans-6e"/>
      <use transform="translate(996.147461 0.015625)" xlink:href="#DejaVuSans-6f"/>
      <use transform="translate(1057.329102 0.015625)" xlink:href="#DejaVuSans-72"/>
      <use transform="translate(1098.442383 0.015625)" xlink:href="#DejaVuSans-6d"/>
      <use transform="translate(1195.854492 0.015625)" xlink:href="#DejaVuSans-20"/>
      <use transform="translate(1227.641602 0.015625)" xlink:href="#DejaVuSans-28"/>
      <use transform="translate(1266.655273 0.015625)" xlink:href="#DejaVuSans-62"/>
      <use transform="translate(1330.131836 0.015625)" xlink:href="#DejaVuSans-69"/>
      <use transform="translate(1357.915039 0.015625)" xlink:href="#DejaVuSans-74"/>
      <use transform="translate(1397.124023 0.015625)" xlink:href="#DejaVuSans-73"/>
      <use transform="translate(1449.223633 0.015625)" xlink:href="#DejaVuSans-20"/>
      <use transform="translate(1481.010742 0.015625)" xlink:href="#DejaVuSans-2f"/>
      <use transform="translate(1514.702148 0.015625)" xlink:href="#DejaVuSans-20"/>
      <use transform="translate(1546.489258 0.015625)" xlink:href="#DejaVuSans-70"/>
      <use transform="translate(1609.96582 0.015625)" xlink:href="#DejaVuSans-69"/>
      <use transform="translate(1637.749023 0.015625)" xlink:href="#DejaVuSans-78"/>
      <use transform="translate(1696.928711 0.015625)" xlink:href="#DejaVuSans-65"/>
      <use transform="translate(1758.452148 0.015625)" xlink:href="#DejaVuSans-6c"/>
      <use transform="translate(1786.235352 0.015625)" xlink:href="#DejaVuSans-29"/>
     </g>
    </g>
    <g id="text_10">
     <!-- 1e−1 -->
     <defs>
      <path d="M 10.59375 35.5 
L 73.1875 35.5 
L 73.1875 27.203125 
L 10.59375 27.203125 
z
" id="DejaVuSans-2212"/>
     </defs>
     <g transform="translate(283.534049 178.287405)scale(0.08 -0.08)">
      <use xlink:href="#DejaVuSans-31"/>
      <use x="63.623047" xlink:href="#DejaVuSans-65"/>
      <use x="125.146484" xlink:href="#DejaVuSans-2212"/>
      <use x="208.935547" xlink:href="#DejaVuSans-31"/>
     </g>
    </g>
   </g>
   <g id="matplotlib.axis_2">
    <g id="ytick_1">
     <g id="line2d_9">
      <defs>
       <path d="M 0 0 
L -3.5 0 
" id="mfcf8852c46" style="stroke:#000000;stroke-width:0.8;"/>
      </defs>
      <g>
       <use style="stroke:#000000;stroke-width:0.8;" x="42.937194" xlink:href="#mfcf8852c46" y="154.466155"/>
      </g>
     </g>
     <g id="text_11">
      <!-- 0.0 -->
      <defs>
       <path d="M 10.6875 12.40625 
L 21 12.40625 
L 21 0 
L 10.6875 0 
z
" id="DejaVuSans-2e"/>
      </defs>
      <g transform="translate(23.214694 157.50553)scale(0.08 -0.08)">
       <use xlink:href="#DejaVuSans-30"/>
       <use x="63.623047" xlink:href="#DejaVuSans-2e"/>
       <use x="95.410156" xlink:href="#DejaVuSans-30"/>
      </g>
     </g>
    </g>
    <g id="ytick_2">
     <g id="line2d_10">
      <g>
       <use style="stroke:#000000;stroke-width:0.8;" x="42.937194" xlink:href="#mfcf8852c46" y="126.559066"/>
      </g>
     </g>
     <g id="text_12">
      <!-- 0.2 -->
      <g transform="translate(23.214694 129.598441)scale(0.08 -0.08)">
       <use xlink:href="#DejaVuSans-30"/>
       <use x="63.623047" xlink:href="#DejaVuSans-2e"/>
       <use x="95.410156" xlink:href="#DejaVuSans-32"/>
      </g>
     </g>
    </g>
    <g id="ytick_3">
     <g id="line2d_11">
      <g>
       <use style="stroke:#000000;stroke-width:0.8;" x="42.937194" xlink:href="#mfcf8852c46" y="98.651977"/>
      </g>
     </g>
     <g id="text_13">
      <!-- 0.4 -->
      <g transform="translate(23.214694 101.691352)scale(0.08 -0.08)">
       <use xlink:href="#DejaVuSans-30"/>
       <use x="63.623047" xlink:href="#DejaVuSans-2e"/>
       <use x="95.410156" xlink:href="#DejaVuSans-34"/>
      </g>
     </g>
    </g>
    <g id="ytick_4">
     <g id="line2d_12">
      <g>
       <use style="stroke:#000000;stroke-width:0.8;" x="42.937194" xlink:href="#mfcf8852c46" y="70.744887"/>
      </g>
     </g>
     <g id="text_14">
      <!-- 0.6 -->
      <g transform="translate(23.214694 73.784262)scale(0.08 -0.08)">
       <use xlink:href="#DejaVuSans-30"/>
       <use x="63.623047" xlink:href="#DejaVuSans-2e"/>
       <use x="95.410156" xlink:href="#DejaVuSans-36"/>
      </g>
     </g>
    </g>
    <g id="ytick_5">
     <g id="line2d_13">
      <g>
       <use style="stroke:#000000;stroke-width:0.8;" x="42.937194" xlink:href="#mfcf8852c46" y="42.837798"/>
      </g>
     </g>
     <g id="text_15">
      <!-- 0.8 -->
      <defs>
       <path d="M 31.78125 34.625 
Q 24.75 34.625 20.71875 30.859375 
Q 16.703125 27.09375 16.703125 20.515625 
Q 16.703125 13.921875 20.71875 10.15625 
Q 24.75 6.390625 31.78125 6.390625 
Q 38.8125 6.390625 42.859375 10.171875 
Q 46.921875 13.96875 46.921875 20.515625 
Q 46.921875 27.09375 42.890625 30.859375 
Q 38.875 34.625 31.78125 34.625 
M 21.921875 38.8125 
Q 15.578125 40.375 12.03125 44.71875 
Q 8.5 49.078125 8.5 55.328125 
Q 8.5 64.0625 14.71875 69.140625 
Q 20.953125 74.21875 31.78125 74.21875 
Q 42.671875 74.21875 48.875 69.140625 
Q 55.078125 64.0625 55.078125 55.328125 
Q 55.078125 49.078125 51.53125 44.71875 
Q 48 40.375 41.703125 38.8125 
Q 48.828125 37.15625 52.796875 32.3125 
Q 56.78125 27.484375 56.78125 20.515625 
Q 56.78125 9.90625 50.3125 4.234375 
Q 43.84375 -1.421875 31.78125 -1.421875 
Q 19.734375 -1.421875 13.25 4.234375 
Q 6.78125 9.90625 6.78125 20.515625 
Q 6.78125 27.484375 10.78125 32.3125 
Q 14.796875 37.15625 21.921875 38.8125 
M 18.3125 54.390625 
Q 18.3125 48.734375 21.84375 45.5625 
Q 25.390625 42.390625 31.78125 42.390625 
Q 38.140625 42.390625 41.71875 45.5625 
Q 45.3125 48.734375 45.3125 54.390625 
Q 45.3125 60.0625 41.71875 63.234375 
Q 38.140625 66.40625 31.78125 66.40625 
Q 25.390625 66.40625 21.84375 63.234375 
Q 18.3125 60.0625 18.3125 54.390625 
" id="DejaVuSans-38"/>
      </defs>
      <g transform="translate(23.214694 45.877173)scale(0.08 -0.08)">
       <use xlink:href="#DejaVuSans-30"/>
       <use x="63.623047" xlink:href="#DejaVuSans-2e"/>
       <use x="95.410156" xlink:href="#DejaVuSans-38"/>
      </g>
     </g>
    </g>
    <g id="ytick_6">
     <g id="line2d_14">
      <g>
       <use style="stroke:#000000;stroke-width:0.8;" x="42.937194" xlink:href="#mfcf8852c46" y="14.930709"/>
      </g>
     </g>
     <g id="text_16">
      <!-- 1.0 -->
      <g transform="translate(23.214694 17.970084)scale(0.08 -0.08)">
       <use xlink:href="#DejaVuSans-31"/>
       <use x="63.623047" xlink:href="#DejaVuSans-2e"/>
       <use x="95.410156" xlink:href="#DejaVuSans-30"/>
      </g>
     </g>
    </g>
    <g id="text_17">
     <!-- Squared error -->
     <defs>
      <path d="M 53.515625 70.515625 
L 53.515625 60.890625 
Q 47.90625 63.578125 42.921875 64.890625 
Q 37.9375 66.21875 33.296875 66.21875 
Q 25.25 66.21875 20.875 63.09375 
Q 16.5 59.96875 16.5 54.203125 
Q 16.5 49.359375 19.40625 46.890625 
Q 22.3125 44.4375 30.421875 42.921875 
L 36.375 41.703125 
Q 47.40625 39.59375 52.65625 34.296875 
Q 57.90625 29 57.90625 20.125 
Q 57.90625 9.515625 50.796875 4.046875 
Q 43.703125 -1.421875 29.984375 -1.421875 
Q 24.8125 -1.421875 18.96875 -0.25 
Q 13.140625 0.921875 6.890625 3.21875 
L 6.890625 13.375 
Q 12.890625 10.015625 18.65625 8.296875 
Q 24.421875 6.59375 29.984375 6.59375 
Q 38.421875 6.59375 43.015625 9.90625 
Q 47.609375 13.234375 47.609375 19.390625 
Q 47.609375 24.75 44.3125 27.78125 
Q 41.015625 30.8125 33.5 32.328125 
L 27.484375 33.5 
Q 16.453125 35.6875 11.515625 40.375 
Q 6.59375 45.0625 6.59375 53.421875 
Q 6.59375 63.09375 13.40625 68.65625 
Q 20.21875 74.21875 32.171875 74.21875 
Q 37.3125 74.21875 42.625 73.28125 
Q 47.953125 72.359375 53.515625 70.515625 
" id="DejaVuSans-53"/>
      <path d="M 14.796875 27.296875 
Q 14.796875 17.390625 18.875 11.75 
Q 22.953125 6.109375 30.078125 6.109375 
Q 37.203125 6.109375 41.296875 11.75 
Q 45.40625 17.390625 45.40625 27.296875 
Q 45.40625 37.203125 41.296875 42.84375 
Q 37.203125 48.484375 30.078125 48.484375 
Q 22.953125 48.484375 18.875 42.84375 
Q 14.796875 37.203125 14.796875 27.296875 
M 45.40625 8.203125 
Q 42.578125 3.328125 38.25 0.953125 
Q 33.9375 -1.421875 27.875 -1.421875 
Q 17.96875 -1.421875 11.734375 6.484375 
Q 5.515625 14.40625 5.515625 27.296875 
Q 5.515625 40.1875 11.734375 48.09375 
Q 17.96875 56 27.875 56 
Q 33.9375 56 38.25 53.625 
Q 42.578125 51.265625 45.40625 46.390625 
L 45.40625 54.6875 
L 54.390625 54.6875 
L 54.390625 -20.796875 
L 45.40625 -20.796875 
z
" id="DejaVuSans-71"/>
     </defs>
     <g transform="translate(17.550944 112.518432)rotate(-90)scale(0.08 -0.08)">
      <use xlink:href="#DejaVuSans-53"/>
      <use x="63.476562" xlink:href="#DejaVuSans-71"/>
      <use x="126.953125" xlink:href="#DejaVuSans-75"/>
      <use x="190.332031" xlink:href="#DejaVuSans-61"/>
      <use x="251.611328" xlink:href="#DejaVuSans-72"/>
      <use x="292.693359" xlink:href="#DejaVuSans-65"/>
      <use x="354.216797" xlink:href="#DejaVuSans-64"/>
      <use x="417.693359" xlink:href="#DejaVuSans-20"/>
      <use x="449.480469" xlink:href="#DejaVuSans-65"/>
      <use x="511.003906" xlink:href="#DejaVuSans-72"/>
      <use x="552.101562" xlink:href="#DejaVuSans-72"/>
      <use x="593.183594" xlink:href="#DejaVuSans-6f"/>
      <use x="654.365234" xlink:href="#DejaVuSans-72"/>
     </g>
    </g>
   </g>
   <g id="LineCollection_1">
    <path clip-path="url(#p3b100d2d7a)" d="M 42.937194 14.930709 
L 42.937194 14.930709 
" style="fill:none;stroke:#000000;stroke-width:1.5;"/>
    <path clip-path="url(#p3b100d2d7a)" d="M 65.070937 56.550931 
L 65.070937 33.493039 
" style="fill:none;stroke:#000000;stroke-width:1.5;"/>
    <path clip-path="url(#p3b100d2d7a)" d="M 87.204679 77.493902 
L 87.204679 49.999813 
" style="fill:none;stroke:#000000;stroke-width:1.5;"/>
    <path clip-path="url(#p3b100d2d7a)" d="M 109.338422 90.69699 
L 109.338422 63.014289 
" style="fill:none;stroke:#000000;stroke-width:1.5;"/>
    <path clip-path="url(#p3b100d2d7a)" d="M 131.472165 100.332285 
L 131.472165 73.454078 
" style="fill:none;stroke:#000000;stroke-width:1.5;"/>
    <path clip-path="url(#p3b100d2d7a)" d="M 153.605907 107.659275 
L 153.605907 81.915549 
" style="fill:none;stroke:#000000;stroke-width:1.5;"/>
    <path clip-path="url(#p3b100d2d7a)" d="M 175.73965 113.600927 
L 175.73965 89.173747 
" style="fill:none;stroke:#000000;stroke-width:1.5;"/>
    <path clip-path="url(#p3b100d2d7a)" d="M 197.873393 118.370719 
L 197.873393 95.402402 
" style="fill:none;stroke:#000000;stroke-width:1.5;"/>
   </g>
   <g id="LineCollection_2">
    <path clip-path="url(#p3b100d2d7a)" d="M 42.937194 14.930709 
L 42.937194 14.930709 
" style="fill:none;stroke:#390000;stroke-width:1.5;"/>
    <path clip-path="url(#p3b100d2d7a)" d="M 60.430941 73.656487 
L 60.430941 39.735782 
" style="fill:none;stroke:#390000;stroke-width:1.5;"/>
    <path clip-path="url(#p3b100d2d7a)" d="M 77.924688 93.849063 
L 77.924688 57.304645 
" style="fill:none;stroke:#390000;stroke-width:1.5;"/>
    <path clip-path="url(#p3b100d2d7a)" d="M 95.418436 105.957353 
L 95.418436 69.997973 
" style="fill:none;stroke:#390000;stroke-width:1.5;"/>
    <path clip-path="url(#p3b100d2d7a)" d="M 112.912183 113.959161 
L 112.912183 79.881119 
" style="fill:none;stroke:#390000;stroke-width:1.5;"/>
    <path clip-path="url(#p3b100d2d7a)" d="M 130.40593 119.826699 
L 130.40593 87.924424 
" style="fill:none;stroke:#390000;stroke-width:1.5;"/>
    <path clip-path="url(#p3b100d2d7a)" d="M 147.899677 124.436774 
L 147.899677 94.641025 
" style="fill:none;stroke:#390000;stroke-width:1.5;"/>
    <path clip-path="url(#p3b100d2d7a)" d="M 165.393424 128.146757 
L 165.393424 100.365371 
" style="fill:none;stroke:#390000;stroke-width:1.5;"/>
    <path clip-path="url(#p3b100d2d7a)" d="M 182.887172 131.122026 
L 182.887172 105.294066 
" style="fill:none;stroke:#390000;stroke-width:1.5;"/>
    <path clip-path="url(#p3b100d2d7a)" d="M 200.380919 133.636663 
L 200.380919 109.61906 
" style="fill:none;stroke:#390000;stroke-width:1.5;"/>
    <path clip-path="url(#p3b100d2d7a)" d="M 217.874666 135.736447 
L 217.874666 113.380056 
" style="fill:none;stroke:#390000;stroke-width:1.5;"/>
   </g>
   <g id="LineCollection_3">
    <path clip-path="url(#p3b100d2d7a)" d="M 42.937194 14.930709 
L 42.937194 14.930709 
" style="fill:none;stroke:#710000;stroke-width:1.5;"/>
    <path clip-path="url(#p3b100d2d7a)" d="M 66.9795 94.864119 
L 66.9795 52.945937 
" style="fill:none;stroke:#710000;stroke-width:1.5;"/>
    <path clip-path="url(#p3b100d2d7a)" d="M 91.021805 113.592597 
L 91.021805 73.427575 
" style="fill:none;stroke:#710000;stroke-width:1.5;"/>
    <path clip-path="url(#p3b100d2d7a)" d="M 115.064111 123.465048 
L 115.064111 86.924995 
" style="fill:none;stroke:#710000;stroke-width:1.5;"/>
    <path clip-path="url(#p3b100d2d7a)" d="M 139.106417 129.782727 
L 139.106417 96.937316 
" style="fill:none;stroke:#710000;stroke-width:1.5;"/>
    <path clip-path="url(#p3b100d2d7a)" d="M 163.148722 134.247933 
L 163.148722 104.708571 
" style="fill:none;stroke:#710000;stroke-width:1.5;"/>
    <path clip-path="url(#p3b100d2d7a)" d="M 187.191028 137.55139 
L 187.191028 110.979078 
" style="fill:none;stroke:#710000;stroke-width:1.5;"/>
    <path clip-path="url(#p3b100d2d7a)" d="M 211.233334 140.101773 
L 211.233334 116.174713 
" style="fill:none;stroke:#710000;stroke-width:1.5;"/>
    <path clip-path="url(#p3b100d2d7a)" d="M 235.27564 142.112376 
L 235.27564 120.529579 
" style="fill:none;stroke:#710000;stroke-width:1.5;"/>
   </g>
   <g id="LineCollection_4">
    <path clip-path="url(#p3b100d2d7a)" d="M 42.937194 14.930709 
L 42.937194 14.930709 
" style="fill:none;stroke:#aa0000;stroke-width:1.5;"/>
    <path clip-path="url(#p3b100d2d7a)" d="M 72.345473 101.831517 
L 72.345473 60.986761 
" style="fill:none;stroke:#aa0000;stroke-width:1.5;"/>
    <path clip-path="url(#p3b100d2d7a)" d="M 101.753752 119.487185 
L 101.753752 81.523652 
" style="fill:none;stroke:#aa0000;stroke-width:1.5;"/>
    <path clip-path="url(#p3b100d2d7a)" d="M 131.16203 128.672096 
L 131.16203 94.909958 
" style="fill:none;stroke:#aa0000;stroke-width:1.5;"/>
    <path clip-path="url(#p3b100d2d7a)" d="M 160.570309 134.43723 
L 160.570309 104.578567 
" style="fill:none;stroke:#aa0000;stroke-width:1.5;"/>
    <path clip-path="url(#p3b100d2d7a)" d="M 189.978588 138.420928 
L 189.978588 111.986959 
" style="fill:none;stroke:#aa0000;stroke-width:1.5;"/>
    <path clip-path="url(#p3b100d2d7a)" d="M 219.386867 141.323647 
L 219.386867 117.870563 
" style="fill:none;stroke:#aa0000;stroke-width:1.5;"/>
    <path clip-path="url(#p3b100d2d7a)" d="M 248.795146 143.515896 
L 248.795146 122.665447 
" style="fill:none;stroke:#aa0000;stroke-width:1.5;"/>
   </g>
   <g id="LineCollection_5">
    <path clip-path="url(#p3b100d2d7a)" d="M 42.937194 14.930709 
L 42.937194 14.930709 
" style="fill:none;stroke:#e30000;stroke-width:1.5;"/>
    <path clip-path="url(#p3b100d2d7a)" d="M 77.487211 108.78699 
L 77.487211 68.217032 
" style="fill:none;stroke:#e30000;stroke-width:1.5;"/>
    <path clip-path="url(#p3b100d2d7a)" d="M 112.037228 125.130751 
L 112.037228 88.443102 
" style="fill:none;stroke:#e30000;stroke-width:1.5;"/>
    <path clip-path="url(#p3b100d2d7a)" d="M 146.587244 133.343913 
L 146.587244 101.249249 
" style="fill:none;stroke:#e30000;stroke-width:1.5;"/>
    <path clip-path="url(#p3b100d2d7a)" d="M 181.137261 138.427388 
L 181.137261 110.380562 
" style="fill:none;stroke:#e30000;stroke-width:1.5;"/>
    <path clip-path="url(#p3b100d2d7a)" d="M 215.687278 141.868303 
L 215.687278 117.275692 
" style="fill:none;stroke:#e30000;stroke-width:1.5;"/>
    <path clip-path="url(#p3b100d2d7a)" d="M 250.237295 144.321449 
L 250.237295 122.680602 
" style="fill:none;stroke:#e30000;stroke-width:1.5;"/>
    <path clip-path="url(#p3b100d2d7a)" d="M 284.787312 146.157756 
L 284.787312 127.055299 
" style="fill:none;stroke:#e30000;stroke-width:1.5;"/>
   </g>
   <g id="line2d_15">
    <defs>
     <path d="M 0 1.5 
C 0.397805 1.5 0.77937 1.341951 1.06066 1.06066 
C 1.341951 0.77937 1.5 0.397805 1.5 0 
C 1.5 -0.397805 1.341951 -0.77937 1.06066 -1.06066 
C 0.77937 -1.341951 0.397805 -1.5 0 -1.5 
C -0.397805 -1.5 -0.77937 -1.341951 -1.06066 -1.06066 
C -1.341951 -0.77937 -1.5 -0.397805 -1.5 0 
C -1.5 0.397805 -1.341951 0.77937 -1.06066 1.06066 
C -0.77937 1.341951 -0.397805 1.5 0 1.5 
z
" id="m97e271b791" style="stroke:#000000;"/>
    </defs>
    <g clip-path="url(#p3b100d2d7a)">
     <use style="stroke:#000000;" x="42.937194" xlink:href="#m97e271b791" y="14.930709"/>
     <use style="stroke:#000000;" x="65.070937" xlink:href="#m97e271b791" y="45.021985"/>
     <use style="stroke:#000000;" x="87.204679" xlink:href="#m97e271b791" y="63.746857"/>
     <use style="stroke:#000000;" x="109.338422" xlink:href="#m97e271b791" y="76.855639"/>
     <use style="stroke:#000000;" x="131.472165" xlink:href="#m97e271b791" y="86.893181"/>
     <use style="stroke:#000000;" x="153.605907" xlink:href="#m97e271b791" y="94.787412"/>
     <use style="stroke:#000000;" x="175.73965" xlink:href="#m97e271b791" y="101.387337"/>
     <use style="stroke:#000000;" x="197.873393" xlink:href="#m97e271b791" y="106.886561"/>
    </g>
   </g>
   <g id="line2d_16">
    <defs>
     <path d="M 0 1.5 
C 0.397805 1.5 0.77937 1.341951 1.06066 1.06066 
C 1.341951 0.77937 1.5 0.397805 1.5 0 
C 1.5 -0.397805 1.341951 -0.77937 1.06066 -1.06066 
C 0.77937 -1.341951 0.397805 -1.5 0 -1.5 
C -0.397805 -1.5 -0.77937 -1.341951 -1.06066 -1.06066 
C -1.341951 -0.77937 -1.5 -0.397805 -1.5 0 
C -1.5 0.397805 -1.341951 0.77937 -1.06066 1.06066 
C -0.77937 1.341951 -0.397805 1.5 0 1.5 
z
" id="m08373cf0ca" style="stroke:#390000;"/>
    </defs>
    <g clip-path="url(#p3b100d2d7a)">
     <use style="fill:#390000;stroke:#390000;" x="42.937194" xlink:href="#m08373cf0ca" y="14.930709"/>
     <use style="fill:#390000;stroke:#390000;" x="60.430941" xlink:href="#m08373cf0ca" y="56.696135"/>
     <use style="fill:#390000;stroke:#390000;" x="77.924688" xlink:href="#m08373cf0ca" y="75.576854"/>
     <use style="fill:#390000;stroke:#390000;" x="95.418436" xlink:href="#m08373cf0ca" y="87.977663"/>
     <use style="fill:#390000;stroke:#390000;" x="112.912183" xlink:href="#m08373cf0ca" y="96.92014"/>
     <use style="fill:#390000;stroke:#390000;" x="130.40593" xlink:href="#m08373cf0ca" y="103.875561"/>
     <use style="fill:#390000;stroke:#390000;" x="147.899677" xlink:href="#m08373cf0ca" y="109.538899"/>
     <use style="fill:#390000;stroke:#390000;" x="165.393424" xlink:href="#m08373cf0ca" y="114.256064"/>
     <use style="fill:#390000;stroke:#390000;" x="182.887172" xlink:href="#m08373cf0ca" y="118.208046"/>
     <use style="fill:#390000;stroke:#390000;" x="200.380919" xlink:href="#m08373cf0ca" y="121.627862"/>
     <use style="fill:#390000;stroke:#390000;" x="217.874666" xlink:href="#m08373cf0ca" y="124.558252"/>
    </g>
   </g>
   <g id="line2d_17">
    <defs>
     <path d="M 0 1.5 
C 0.397805 1.5 0.77937 1.341951 1.06066 1.06066 
C 1.341951 0.77937 1.5 0.397805 1.5 0 
C 1.5 -0.397805 1.341951 -0.77937 1.06066 -1.06066 
C 0.77937 -1.341951 0.397805 -1.5 0 -1.5 
C -0.397805 -1.5 -0.77937 -1.341951 -1.06066 -1.06066 
C -1.341951 -0.77937 -1.5 -0.397805 -1.5 0 
C -1.5 0.397805 -1.341951 0.77937 -1.06066 1.06066 
C -0.77937 1.341951 -0.397805 1.5 0 1.5 
z
" id="mee355ab9d2" style="stroke:#710000;"/>
    </defs>
    <g clip-path="url(#p3b100d2d7a)">
     <use style="fill:#710000;stroke:#710000;" x="42.937194" xlink:href="#mee355ab9d2" y="14.930709"/>
     <use style="fill:#710000;stroke:#710000;" x="66.9795" xlink:href="#mee355ab9d2" y="73.905028"/>
     <use style="fill:#710000;stroke:#710000;" x="91.021805" xlink:href="#mee355ab9d2" y="93.510086"/>
     <use style="fill:#710000;stroke:#710000;" x="115.064111" xlink:href="#mee355ab9d2" y="105.195021"/>
     <use style="fill:#710000;stroke:#710000;" x="139.106417" xlink:href="#mee355ab9d2" y="113.360021"/>
     <use style="fill:#710000;stroke:#710000;" x="163.148722" xlink:href="#mee355ab9d2" y="119.478252"/>
     <use style="fill:#710000;stroke:#710000;" x="187.191028" xlink:href="#mee355ab9d2" y="124.265234"/>
     <use style="fill:#710000;stroke:#710000;" x="211.233334" xlink:href="#mee355ab9d2" y="128.138243"/>
     <use style="fill:#710000;stroke:#710000;" x="235.27564" xlink:href="#mee355ab9d2" y="131.320977"/>
    </g>
   </g>
   <g id="line2d_18">
    <defs>
     <path d="M 0 1.5 
C 0.397805 1.5 0.77937 1.341951 1.06066 1.06066 
C 1.341951 0.77937 1.5 0.397805 1.5 0 
C 1.5 -0.397805 1.341951 -0.77937 1.06066 -1.06066 
C 0.77937 -1.341951 0.397805 -1.5 0 -1.5 
C -0.397805 -1.5 -0.77937 -1.341951 -1.06066 -1.06066 
C -1.341951 -0.77937 -1.5 -0.397805 -1.5 0 
C -1.5 0.397805 -1.341951 0.77937 -1.06066 1.06066 
C -0.77937 1.341951 -0.397805 1.5 0 1.5 
z
" id="mbb6b1a2a14" style="stroke:#aa0000;"/>
    </defs>
    <g clip-path="url(#p3b100d2d7a)">
     <use style="fill:#aa0000;stroke:#aa0000;" x="42.937194" xlink:href="#mbb6b1a2a14" y="14.930709"/>
     <use style="fill:#aa0000;stroke:#aa0000;" x="72.345473" xlink:href="#mbb6b1a2a14" y="81.409139"/>
     <use style="fill:#aa0000;stroke:#aa0000;" x="101.753752" xlink:href="#mbb6b1a2a14" y="100.505418"/>
     <use style="fill:#aa0000;stroke:#aa0000;" x="131.16203" xlink:href="#mbb6b1a2a14" y="111.791027"/>
     <use style="fill:#aa0000;stroke:#aa0000;" x="160.570309" xlink:href="#mbb6b1a2a14" y="119.507899"/>
     <use style="fill:#aa0000;stroke:#aa0000;" x="189.978588" xlink:href="#mbb6b1a2a14" y="125.203943"/>
     <use style="fill:#aa0000;stroke:#aa0000;" x="219.386867" xlink:href="#mbb6b1a2a14" y="129.597105"/>
     <use style="fill:#aa0000;stroke:#aa0000;" x="248.795146" xlink:href="#mbb6b1a2a14" y="133.090672"/>
    </g>
   </g>
   <g id="line2d_19">
    <defs>
     <path d="M 0 1.5 
C 0.397805 1.5 0.77937 1.341951 1.06066 1.06066 
C 1.341951 0.77937 1.5 0.397805 1.5 0 
C 1.5 -0.397805 1.341951 -0.77937 1.06066 -1.06066 
C 0.77937 -1.341951 0.397805 -1.5 0 -1.5 
C -0.397805 -1.5 -0.77937 -1.341951 -1.06066 -1.06066 
C -1.341951 -0.77937 -1.5 -0.397805 -1.5 0 
C -1.5 0.397805 -1.341951 0.77937 -1.06066 1.06066 
C -0.77937 1.341951 -0.397805 1.5 0 1.5 
z
" id="md2b44ecbac" style="stroke:#e30000;"/>
    </defs>
    <g clip-path="url(#p3b100d2d7a)">
     <use style="fill:#e30000;stroke:#e30000;" x="42.937194" xlink:href="#md2b44ecbac" y="14.930709"/>
     <use style="fill:#e30000;stroke:#e30000;" x="77.487211" xlink:href="#md2b44ecbac" y="88.502011"/>
     <use style="fill:#e30000;stroke:#e30000;" x="112.037228" xlink:href="#md2b44ecbac" y="106.786927"/>
     <use style="fill:#e30000;stroke:#e30000;" x="146.587244" xlink:href="#md2b44ecbac" y="117.296581"/>
     <use style="fill:#e30000;stroke:#e30000;" x="181.137261" xlink:href="#md2b44ecbac" y="124.403975"/>
     <use style="fill:#e30000;stroke:#e30000;" x="215.687278" xlink:href="#md2b44ecbac" y="129.571998"/>
     <use style="fill:#e30000;stroke:#e30000;" x="250.237295" xlink:href="#md2b44ecbac" y="133.501026"/>
     <use style="fill:#e30000;stroke:#e30000;" x="284.787312" xlink:href="#md2b44ecbac" y="136.606528"/>
    </g>
   </g>
   <g id="line2d_20">
    <path clip-path="url(#p3b100d2d7a)" d="M 42.937194 14.930709 
L 65.070937 45.021985 
L 87.204679 63.746857 
L 109.338422 76.855639 
L 131.472165 86.893181 
L 153.605907 94.787412 
L 175.73965 101.387337 
L 197.873393 106.886561 
" style="fill:none;stroke:#000000;stroke-linecap:square;stroke-width:1.5;"/>
   </g>
   <g id="line2d_21">
    <path clip-path="url(#p3b100d2d7a)" d="M 42.937194 14.930709 
L 48.768443 33.699239 
L 54.599692 46.921573 
L 60.430941 56.696135 
L 66.26219 64.236562 
L 72.093439 70.318887 
L 77.924688 75.576854 
L 83.755937 80.212072 
L 89.587186 84.325335 
L 95.418436 87.977663 
L 101.249685 91.255824 
L 107.080934 94.241091 
L 112.912183 96.92014 
L 118.743432 99.424929 
L 124.574681 101.718723 
L 130.40593 103.875561 
L 136.237179 105.890654 
L 142.068428 107.769471 
L 147.899677 109.538899 
L 153.730926 111.220445 
L 159.562175 112.789589 
L 165.393424 114.256064 
L 171.224673 115.655401 
L 177.055923 116.966311 
L 182.887172 118.208046 
L 188.718421 119.410323 
L 194.54967 120.547242 
L 200.380919 121.627862 
L 206.212168 122.646551 
L 212.043417 123.625815 
L 217.874666 124.558252 
L 223.705915 125.45436 
" style="fill:none;stroke:#390000;stroke-linecap:square;stroke-width:1.5;"/>
   </g>
   <g id="line2d_22">
    <path clip-path="url(#p3b100d2d7a)" d="M 42.937194 14.930709 
L 44.540014 25.083861 
L 46.142835 32.551163 
L 47.745655 38.527349 
L 49.348475 43.533744 
L 50.951296 47.848658 
L 52.554116 51.653476 
L 54.156937 55.053853 
L 57.362577 60.850842 
L 60.568218 65.821735 
L 63.773859 70.12073 
L 66.9795 73.905028 
L 70.18514 77.305126 
L 73.390781 80.409207 
L 76.596422 83.237389 
L 79.802063 85.832988 
L 83.007703 88.239049 
L 87.816165 91.518102 
L 92.624626 94.459387 
L 97.433087 97.137062 
L 102.241548 99.57845 
L 107.050009 101.819831 
L 113.461291 104.549053 
L 119.872572 107.050656 
L 126.283854 109.329065 
L 134.297956 111.91942 
L 142.312058 114.266874 
L 151.92898 116.819619 
L 161.545902 119.116529 
L 171.162824 121.199793 
L 182.382567 123.389218 
L 195.20513 125.642851 
L 208.027693 127.665944 
L 222.453077 129.697456 
L 236.87846 131.512625 
L 246.495382 132.620198 
L 246.495382 132.620198 
" style="fill:none;stroke:#710000;stroke-linecap:square;stroke-width:1.5;"/>
   </g>
   <g id="line2d_23">
    <path clip-path="url(#p3b100d2d7a)" d="M 42.937194 14.930709 
L 43.382774 19.572307 
L 43.828354 23.09995 
L 44.719514 28.867673 
L 46.056254 35.411274 
L 47.392994 40.587847 
L 48.729734 44.892947 
L 50.512054 49.770941 
L 52.294374 53.970841 
L 54.076693 57.670047 
L 56.304593 61.75427 
L 58.532493 65.332606 
L 61.205973 69.156144 
L 63.879453 72.563075 
L 66.552933 75.643748 
L 69.671993 78.874087 
L 73.236633 82.210731 
L 76.801273 85.215692 
L 80.365912 87.931435 
L 84.821712 91.034042 
L 89.277512 93.848151 
L 94.178892 96.658484 
L 99.080272 99.209461 
L 104.427231 101.744771 
L 110.219771 104.258804 
L 116.903471 106.901102 
L 123.587171 109.307836 
L 131.16203 111.791027 
L 138.73689 114.043682 
L 146.75733 116.207966 
L 156.114509 118.496561 
L 165.917269 120.663488 
L 177.056769 122.893516 
L 188.641848 124.977798 
L 201.563668 127.05981 
L 217.604547 129.359499 
L 232.308686 131.227233 
L 248.349566 133.043195 
L 266.172765 134.832528 
L 270.628565 135.246731 
L 270.628565 135.246731 
" style="fill:none;stroke:#aa0000;stroke-linecap:square;stroke-width:1.5;"/>
   </g>
   <g id="line2d_24">
    <path clip-path="url(#p3b100d2d7a)" d="M 42.937194 14.930709 
L 43.425533 21.558385 
L 44.158043 28.228151 
L 45.012637 33.716134 
L 45.989316 38.590534 
L 47.088079 43.054849 
L 48.431013 47.618779 
L 49.896031 51.80638 
L 51.605219 56.007178 
L 53.436492 59.915358 
L 55.511935 63.795191 
L 57.709463 67.423004 
L 60.029075 70.839678 
L 62.592857 74.220483 
L 65.278724 77.38525 
L 68.086676 80.356388 
L 71.138798 83.260951 
L 74.557174 86.201601 
L 78.21972 89.049694 
L 82.126436 91.801301 
L 86.399406 94.534272 
L 90.916546 97.151485 
L 95.799941 99.713134 
L 100.927505 102.157514 
L 106.421324 104.548633 
L 112.647652 107.018974 
L 119.240235 109.391477 
L 126.565327 111.7869 
L 134.378758 114.097686 
L 142.802614 116.352418 
L 151.958979 118.573867 
L 161.359513 120.639278 
L 171.980896 122.749963 
L 183.456874 124.800851 
L 195.66536 126.761725 
L 209.21678 128.713298 
L 223.866964 130.596926 
L 239.615912 132.397279 
L 257.318217 134.194838 
L 276.363456 135.911297 
L 292.844913 137.238943 
L 292.844913 137.238943 
" style="fill:none;stroke:#e30000;stroke-linecap:square;stroke-width:1.5;"/>
   </g>
   <g id="patch_3">
    <path d="M 42.937194 157.256864 
L 42.937194 12.14 
" style="fill:none;stroke:#000000;stroke-linecap:square;stroke-linejoin:miter;stroke-width:0.25;"/>
   </g>
   <g id="patch_4">
    <path d="M 42.937194 154.466155 
L 292.844913 154.466155 
" style="fill:none;stroke:#000000;stroke-linecap:square;stroke-linejoin:miter;stroke-width:0.25;"/>
   </g>
  </g>
  <g id="axes_2">
   <g id="patch_5">
    <path d="M 152.390543 88.297982 
L 279.382663 88.297982 
L 279.382663 9.810887 
L 152.390543 9.810887 
z
" style="fill:#ffffff;"/>
   </g>
   <g id="matplotlib.axis_3">
    <g id="xtick_9">
     <g id="line2d_25">
      <g>
       <use style="stroke:#000000;stroke-width:0.8;" x="158.162913" xlink:href="#maa2741f778" y="86.686565"/>
      </g>
     </g>
     <g id="text_18">
      <!-- 0.00 -->
      <g transform="translate(149.256663 99.765315)scale(0.08 -0.08)">
       <use xlink:href="#DejaVuSans-30"/>
       <use x="63.623047" xlink:href="#DejaVuSans-2e"/>
       <use x="95.410156" xlink:href="#DejaVuSans-30"/>
       <use x="159.033203" xlink:href="#DejaVuSans-30"/>
      </g>
     </g>
    </g>
    <g id="xtick_10">
     <g id="line2d_26">
      <g>
       <use style="stroke:#000000;stroke-width:0.8;" x="196.574321" xlink:href="#maa2741f778" y="86.686565"/>
      </g>
     </g>
     <g id="text_19">
      <!-- 0.25 -->
      <g transform="translate(187.668071 99.765315)scale(0.08 -0.08)">
       <use xlink:href="#DejaVuSans-30"/>
       <use x="63.623047" xlink:href="#DejaVuSans-2e"/>
       <use x="95.410156" xlink:href="#DejaVuSans-32"/>
       <use x="159.033203" xlink:href="#DejaVuSans-35"/>
      </g>
     </g>
    </g>
    <g id="xtick_11">
     <g id="line2d_27">
      <g>
       <use style="stroke:#000000;stroke-width:0.8;" x="234.98573" xlink:href="#maa2741f778" y="86.686565"/>
      </g>
     </g>
     <g id="text_20">
      <!-- 0.50 -->
      <g transform="translate(226.07948 99.765315)scale(0.08 -0.08)">
       <use xlink:href="#DejaVuSans-30"/>
       <use x="63.623047" xlink:href="#DejaVuSans-2e"/>
       <use x="95.410156" xlink:href="#DejaVuSans-35"/>
       <use x="159.033203" xlink:href="#DejaVuSans-30"/>
      </g>
     </g>
    </g>
    <g id="xtick_12">
     <g id="line2d_28">
      <g>
       <use style="stroke:#000000;stroke-width:0.8;" x="273.397139" xlink:href="#maa2741f778" y="86.686565"/>
      </g>
     </g>
     <g id="text_21">
      <!-- 0.75 -->
      <g transform="translate(264.490889 99.765315)scale(0.08 -0.08)">
       <use xlink:href="#DejaVuSans-30"/>
       <use x="63.623047" xlink:href="#DejaVuSans-2e"/>
       <use x="95.410156" xlink:href="#DejaVuSans-37"/>
       <use x="159.033203" xlink:href="#DejaVuSans-35"/>
      </g>
     </g>
    </g>
   </g>
   <g id="matplotlib.axis_4">
    <g id="ytick_7">
     <g id="line2d_29">
      <g>
       <use style="stroke:#000000;stroke-width:0.8;" x="158.162913" xlink:href="#mfcf8852c46" y="86.686565"/>
      </g>
     </g>
     <g id="text_22">
      <!-- 0.0 -->
      <g transform="translate(138.440413 89.72594)scale(0.08 -0.08)">
       <use xlink:href="#DejaVuSans-30"/>
       <use x="63.623047" xlink:href="#DejaVuSans-2e"/>
       <use x="95.410156" xlink:href="#DejaVuSans-30"/>
      </g>
     </g>
    </g>
    <g id="ytick_8">
     <g id="line2d_30">
      <g>
       <use style="stroke:#000000;stroke-width:0.8;" x="158.162913" xlink:href="#mfcf8852c46" y="62.380967"/>
      </g>
     </g>
     <g id="text_23">
      <!-- 0.5 -->
      <g transform="translate(138.440413 65.420342)scale(0.08 -0.08)">
       <use xlink:href="#DejaVuSans-30"/>
       <use x="63.623047" xlink:href="#DejaVuSans-2e"/>
       <use x="95.410156" xlink:href="#DejaVuSans-35"/>
      </g>
     </g>
    </g>
    <g id="ytick_9">
     <g id="line2d_31">
      <g>
       <use style="stroke:#000000;stroke-width:0.8;" x="158.162913" xlink:href="#mfcf8852c46" y="38.075368"/>
      </g>
     </g>
     <g id="text_24">
      <!-- 1.0 -->
      <g transform="translate(138.440413 41.114743)scale(0.08 -0.08)">
       <use xlink:href="#DejaVuSans-31"/>
       <use x="63.623047" xlink:href="#DejaVuSans-2e"/>
       <use x="95.410156" xlink:href="#DejaVuSans-30"/>
      </g>
     </g>
    </g>
    <g id="ytick_10">
     <g id="line2d_32">
      <g>
       <use style="stroke:#000000;stroke-width:0.8;" x="158.162913" xlink:href="#mfcf8852c46" y="13.769769"/>
      </g>
     </g>
     <g id="text_25">
      <!-- 1.5 -->
      <g transform="translate(138.440413 16.809144)scale(0.08 -0.08)">
       <use xlink:href="#DejaVuSans-31"/>
       <use x="63.623047" xlink:href="#DejaVuSans-2e"/>
       <use x="95.410156" xlink:href="#DejaVuSans-35"/>
      </g>
     </g>
    </g>
    <g id="text_26">
     <!-- Coefficient -->
     <defs>
      <path d="M 64.40625 67.28125 
L 64.40625 56.890625 
Q 59.421875 61.53125 53.78125 63.8125 
Q 48.140625 66.109375 41.796875 66.109375 
Q 29.296875 66.109375 22.65625 58.46875 
Q 16.015625 50.828125 16.015625 36.375 
Q 16.015625 21.96875 22.65625 14.328125 
Q 29.296875 6.6875 41.796875 6.6875 
Q 48.140625 6.6875 53.78125 8.984375 
Q 59.421875 11.28125 64.40625 15.921875 
L 64.40625 5.609375 
Q 59.234375 2.09375 53.4375 0.328125 
Q 47.65625 -1.421875 41.21875 -1.421875 
Q 24.65625 -1.421875 15.125 8.703125 
Q 5.609375 18.84375 5.609375 36.375 
Q 5.609375 53.953125 15.125 64.078125 
Q 24.65625 74.21875 41.21875 74.21875 
Q 47.75 74.21875 53.53125 72.484375 
Q 59.328125 70.75 64.40625 67.28125 
" id="DejaVuSans-43"/>
      <path d="M 37.109375 75.984375 
L 37.109375 68.5 
L 28.515625 68.5 
Q 23.6875 68.5 21.796875 66.546875 
Q 19.921875 64.59375 19.921875 59.515625 
L 19.921875 54.6875 
L 34.71875 54.6875 
L 34.71875 47.703125 
L 19.921875 47.703125 
L 19.921875 0 
L 10.890625 0 
L 10.890625 47.703125 
L 2.296875 47.703125 
L 2.296875 54.6875 
L 10.890625 54.6875 
L 10.890625 58.5 
Q 10.890625 67.625 15.140625 71.796875 
Q 19.390625 75.984375 28.609375 75.984375 
z
" id="DejaVuSans-66"/>
      <path d="M 48.78125 52.59375 
L 48.78125 44.1875 
Q 44.96875 46.296875 41.140625 47.34375 
Q 37.3125 48.390625 33.40625 48.390625 
Q 24.65625 48.390625 19.8125 42.84375 
Q 14.984375 37.3125 14.984375 27.296875 
Q 14.984375 17.28125 19.8125 11.734375 
Q 24.65625 6.203125 33.40625 6.203125 
Q 37.3125 6.203125 41.140625 7.25 
Q 44.96875 8.296875 48.78125 10.40625 
L 48.78125 2.09375 
Q 45.015625 0.34375 40.984375 -0.53125 
Q 36.96875 -1.421875 32.421875 -1.421875 
Q 20.0625 -1.421875 12.78125 6.34375 
Q 5.515625 14.109375 5.515625 27.296875 
Q 5.515625 40.671875 12.859375 48.328125 
Q 20.21875 56 33.015625 56 
Q 37.15625 56 41.109375 55.140625 
Q 45.0625 54.296875 48.78125 52.59375 
" id="DejaVuSans-63"/>
     </defs>
     <g transform="translate(132.776663 70.558809)rotate(-90)scale(0.08 -0.08)">
      <use xlink:href="#DejaVuSans-43"/>
      <use x="69.824219" xlink:href="#DejaVuSans-6f"/>
      <use x="131.005859" xlink:href="#DejaVuSans-65"/>
      <use x="192.529297" xlink:href="#DejaVuSans-66"/>
      <use x="227.734375" xlink:href="#DejaVuSans-66"/>
      <use x="262.939453" xlink:href="#DejaVuSans-69"/>
      <use x="290.722656" xlink:href="#DejaVuSans-63"/>
      <use x="345.703125" xlink:href="#DejaVuSans-69"/>
      <use x="373.486328" xlink:href="#DejaVuSans-65"/>
      <use x="435.009766" xlink:href="#DejaVuSans-6e"/>
      <use x="498.388672" xlink:href="#DejaVuSans-74"/>
     </g>
    </g>
   </g>
   <g id="LineCollection_6">
    <path clip-path="url(#pb21158ee48)" d="M 158.162913 62.772254 
L 158.162913 13.378482 
" style="fill:none;stroke:#000000;stroke-width:1.5;"/>
    <path clip-path="url(#pb21158ee48)" d="M 168.387817 69.419621 
L 168.387817 42.343395 
" style="fill:none;stroke:#000000;stroke-width:1.5;"/>
    <path clip-path="url(#pb21158ee48)" d="M 178.612722 72.637025 
L 178.612722 51.196665 
" style="fill:none;stroke:#000000;stroke-width:1.5;"/>
    <path clip-path="url(#pb21158ee48)" d="M 188.837627 74.573271 
L 188.837627 56.89885 
" style="fill:none;stroke:#000000;stroke-width:1.5;"/>
    <path clip-path="url(#pb21158ee48)" d="M 199.062532 76.120523 
L 199.062532 60.662638 
" style="fill:none;stroke:#000000;stroke-width:1.5;"/>
    <path clip-path="url(#pb21158ee48)" d="M 209.287436 77.306865 
L 209.287436 63.365019 
" style="fill:none;stroke:#000000;stroke-width:1.5;"/>
    <path clip-path="url(#pb21158ee48)" d="M 219.512341 78.225018 
L 219.512341 65.502738 
" style="fill:none;stroke:#000000;stroke-width:1.5;"/>
    <path clip-path="url(#pb21158ee48)" d="M 229.737246 78.92281 
L 229.737246 67.227751 
" style="fill:none;stroke:#000000;stroke-width:1.5;"/>
   </g>
   <g id="LineCollection_7">
    <path clip-path="url(#pb21158ee48)" d="M 158.162913 60.546852 
L 158.162913 15.603885 
" style="fill:none;stroke:#390000;stroke-width:1.5;"/>
    <path clip-path="url(#pb21158ee48)" d="M 166.244325 71.528317 
L 166.244325 48.432459 
" style="fill:none;stroke:#390000;stroke-width:1.5;"/>
    <path clip-path="url(#pb21158ee48)" d="M 174.325737 75.528267 
L 174.325737 57.851238 
" style="fill:none;stroke:#390000;stroke-width:1.5;"/>
    <path clip-path="url(#pb21158ee48)" d="M 182.407149 77.487789 
L 182.407149 62.447216 
" style="fill:none;stroke:#390000;stroke-width:1.5;"/>
    <path clip-path="url(#pb21158ee48)" d="M 190.488562 78.815215 
L 190.488562 65.650809 
" style="fill:none;stroke:#390000;stroke-width:1.5;"/>
    <path clip-path="url(#pb21158ee48)" d="M 198.569974 79.742422 
L 198.569974 67.913613 
" style="fill:none;stroke:#390000;stroke-width:1.5;"/>
    <path clip-path="url(#pb21158ee48)" d="M 206.651386 80.49118 
L 206.651386 69.454456 
" style="fill:none;stroke:#390000;stroke-width:1.5;"/>
    <path clip-path="url(#pb21158ee48)" d="M 214.732798 81.129997 
L 214.732798 70.862854 
" style="fill:none;stroke:#390000;stroke-width:1.5;"/>
    <path clip-path="url(#pb21158ee48)" d="M 222.814211 81.641887 
L 222.814211 72.035959 
" style="fill:none;stroke:#390000;stroke-width:1.5;"/>
    <path clip-path="url(#pb21158ee48)" d="M 230.895623 82.073533 
L 230.895623 73.073359 
" style="fill:none;stroke:#390000;stroke-width:1.5;"/>
    <path clip-path="url(#pb21158ee48)" d="M 238.977035 82.437932 
L 238.977035 74.007938 
" style="fill:none;stroke:#390000;stroke-width:1.5;"/>
   </g>
   <g id="LineCollection_8">
    <path clip-path="url(#pb21158ee48)" d="M 158.162913 60.544729 
L 158.162913 15.606007 
" style="fill:none;stroke:#710000;stroke-width:1.5;"/>
    <path clip-path="url(#pb21158ee48)" d="M 169.269497 76.508696 
L 169.269497 59.935187 
" style="fill:none;stroke:#710000;stroke-width:1.5;"/>
    <path clip-path="url(#pb21158ee48)" d="M 180.376082 79.428122 
L 180.376082 66.629337 
" style="fill:none;stroke:#710000;stroke-width:1.5;"/>
    <path clip-path="url(#pb21158ee48)" d="M 191.482666 81.065994 
L 191.482666 70.007183 
" style="fill:none;stroke:#710000;stroke-width:1.5;"/>
    <path clip-path="url(#pb21158ee48)" d="M 202.589251 82.013606 
L 202.589251 72.319841 
" style="fill:none;stroke:#710000;stroke-width:1.5;"/>
    <path clip-path="url(#pb21158ee48)" d="M 213.695836 82.655893 
L 213.695836 74.070789 
" style="fill:none;stroke:#710000;stroke-width:1.5;"/>
    <path clip-path="url(#pb21158ee48)" d="M 224.80242 83.201449 
L 224.80242 75.305743 
" style="fill:none;stroke:#710000;stroke-width:1.5;"/>
    <path clip-path="url(#pb21158ee48)" d="M 235.909005 83.57163 
L 235.909005 76.443744 
" style="fill:none;stroke:#710000;stroke-width:1.5;"/>
    <path clip-path="url(#pb21158ee48)" d="M 247.01559 83.889671 
L 247.01559 77.320666 
" style="fill:none;stroke:#710000;stroke-width:1.5;"/>
   </g>
   <g id="LineCollection_9">
    <path clip-path="url(#pb21158ee48)" d="M 158.162913 58.072829 
L 158.162913 18.077907 
" style="fill:none;stroke:#aa0000;stroke-width:1.5;"/>
    <path clip-path="url(#pb21158ee48)" d="M 171.748362 78.368733 
L 171.748362 66.918799 
" style="fill:none;stroke:#aa0000;stroke-width:1.5;"/>
    <path clip-path="url(#pb21158ee48)" d="M 185.333812 80.705594 
L 185.333812 72.362422 
" style="fill:none;stroke:#aa0000;stroke-width:1.5;"/>
    <path clip-path="url(#pb21158ee48)" d="M 198.919262 81.929128 
L 198.919262 74.935692 
" style="fill:none;stroke:#aa0000;stroke-width:1.5;"/>
    <path clip-path="url(#pb21158ee48)" d="M 212.504712 82.774266 
L 212.504712 76.691335 
" style="fill:none;stroke:#aa0000;stroke-width:1.5;"/>
    <path clip-path="url(#pb21158ee48)" d="M 226.090162 83.332131 
L 226.090162 77.95384 
" style="fill:none;stroke:#aa0000;stroke-width:1.5;"/>
    <path clip-path="url(#pb21158ee48)" d="M 239.675612 83.769759 
L 239.675612 78.896233 
" style="fill:none;stroke:#aa0000;stroke-width:1.5;"/>
    <path clip-path="url(#pb21158ee48)" d="M 253.261061 84.115959 
L 253.261061 79.673256 
" style="fill:none;stroke:#aa0000;stroke-width:1.5;"/>
   </g>
   <g id="LineCollection_10">
    <path clip-path="url(#pb21158ee48)" d="M 158.162913 53.140208 
L 158.162913 23.010528 
" style="fill:none;stroke:#e30000;stroke-width:1.5;"/>
    <path clip-path="url(#pb21158ee48)" d="M 174.12364 79.370811 
L 174.12364 73.303118 
" style="fill:none;stroke:#e30000;stroke-width:1.5;"/>
    <path clip-path="url(#pb21158ee48)" d="M 190.084367 81.723614 
L 190.084367 76.824025 
" style="fill:none;stroke:#e30000;stroke-width:1.5;"/>
    <path clip-path="url(#pb21158ee48)" d="M 206.045095 82.858355 
L 206.045095 78.637586 
" style="fill:none;stroke:#e30000;stroke-width:1.5;"/>
    <path clip-path="url(#pb21158ee48)" d="M 222.005822 83.571793 
L 222.005822 79.820042 
" style="fill:none;stroke:#e30000;stroke-width:1.5;"/>
    <path clip-path="url(#pb21158ee48)" d="M 237.966549 84.074743 
L 237.966549 80.684067 
" style="fill:none;stroke:#e30000;stroke-width:1.5;"/>
    <path clip-path="url(#pb21158ee48)" d="M 253.927277 84.453636 
L 253.927277 81.342947 
" style="fill:none;stroke:#e30000;stroke-width:1.5;"/>
    <path clip-path="url(#pb21158ee48)" d="M 269.888004 84.730387 
L 269.888004 81.864079 
" style="fill:none;stroke:#e30000;stroke-width:1.5;"/>
   </g>
   <g id="line2d_33">
    <g clip-path="url(#pb21158ee48)">
     <use style="stroke:#000000;" x="158.162913" xlink:href="#m97e271b791" y="38.075368"/>
     <use style="stroke:#000000;" x="168.387817" xlink:href="#m97e271b791" y="55.881508"/>
     <use style="stroke:#000000;" x="178.612722" xlink:href="#m97e271b791" y="61.916845"/>
     <use style="stroke:#000000;" x="188.837627" xlink:href="#m97e271b791" y="65.736061"/>
     <use style="stroke:#000000;" x="199.062532" xlink:href="#m97e271b791" y="68.39158"/>
     <use style="stroke:#000000;" x="209.287436" xlink:href="#m97e271b791" y="70.335942"/>
     <use style="stroke:#000000;" x="219.512341" xlink:href="#m97e271b791" y="71.863878"/>
     <use style="stroke:#000000;" x="229.737246" xlink:href="#m97e271b791" y="73.075281"/>
    </g>
   </g>
   <g id="line2d_34">
    <g clip-path="url(#pb21158ee48)">
     <use style="fill:#390000;stroke:#390000;" x="158.162913" xlink:href="#m08373cf0ca" y="38.075368"/>
     <use style="fill:#390000;stroke:#390000;" x="166.244325" xlink:href="#m08373cf0ca" y="59.980388"/>
     <use style="fill:#390000;stroke:#390000;" x="174.325737" xlink:href="#m08373cf0ca" y="66.689753"/>
     <use style="fill:#390000;stroke:#390000;" x="182.407149" xlink:href="#m08373cf0ca" y="69.967502"/>
     <use style="fill:#390000;stroke:#390000;" x="190.488562" xlink:href="#m08373cf0ca" y="72.233012"/>
     <use style="fill:#390000;stroke:#390000;" x="198.569974" xlink:href="#m08373cf0ca" y="73.828018"/>
     <use style="fill:#390000;stroke:#390000;" x="206.651386" xlink:href="#m08373cf0ca" y="74.972818"/>
     <use style="fill:#390000;stroke:#390000;" x="214.732798" xlink:href="#m08373cf0ca" y="75.996426"/>
     <use style="fill:#390000;stroke:#390000;" x="222.814211" xlink:href="#m08373cf0ca" y="76.838923"/>
     <use style="fill:#390000;stroke:#390000;" x="230.895623" xlink:href="#m08373cf0ca" y="77.573446"/>
     <use style="fill:#390000;stroke:#390000;" x="238.977035" xlink:href="#m08373cf0ca" y="78.222935"/>
    </g>
   </g>
   <g id="line2d_35">
    <g clip-path="url(#pb21158ee48)">
     <use style="fill:#710000;stroke:#710000;" x="158.162913" xlink:href="#mee355ab9d2" y="38.075368"/>
     <use style="fill:#710000;stroke:#710000;" x="169.269497" xlink:href="#mee355ab9d2" y="68.221941"/>
     <use style="fill:#710000;stroke:#710000;" x="180.376082" xlink:href="#mee355ab9d2" y="73.02873"/>
     <use style="fill:#710000;stroke:#710000;" x="191.482666" xlink:href="#mee355ab9d2" y="75.536588"/>
     <use style="fill:#710000;stroke:#710000;" x="202.589251" xlink:href="#mee355ab9d2" y="77.166724"/>
     <use style="fill:#710000;stroke:#710000;" x="213.695836" xlink:href="#mee355ab9d2" y="78.363341"/>
     <use style="fill:#710000;stroke:#710000;" x="224.80242" xlink:href="#mee355ab9d2" y="79.253596"/>
     <use style="fill:#710000;stroke:#710000;" x="235.909005" xlink:href="#mee355ab9d2" y="80.007687"/>
     <use style="fill:#710000;stroke:#710000;" x="247.01559" xlink:href="#mee355ab9d2" y="80.605169"/>
    </g>
   </g>
   <g id="line2d_36">
    <g clip-path="url(#pb21158ee48)">
     <use style="fill:#aa0000;stroke:#aa0000;" x="158.162913" xlink:href="#mbb6b1a2a14" y="38.075368"/>
     <use style="fill:#aa0000;stroke:#aa0000;" x="171.748362" xlink:href="#mbb6b1a2a14" y="72.643766"/>
     <use style="fill:#aa0000;stroke:#aa0000;" x="185.333812" xlink:href="#mbb6b1a2a14" y="76.534008"/>
     <use style="fill:#aa0000;stroke:#aa0000;" x="198.919262" xlink:href="#mbb6b1a2a14" y="78.43241"/>
     <use style="fill:#aa0000;stroke:#aa0000;" x="212.504712" xlink:href="#mbb6b1a2a14" y="79.7328"/>
     <use style="fill:#aa0000;stroke:#aa0000;" x="226.090162" xlink:href="#mbb6b1a2a14" y="80.642986"/>
     <use style="fill:#aa0000;stroke:#aa0000;" x="239.675612" xlink:href="#mbb6b1a2a14" y="81.332996"/>
     <use style="fill:#aa0000;stroke:#aa0000;" x="253.261061" xlink:href="#mbb6b1a2a14" y="81.894608"/>
    </g>
   </g>
   <g id="line2d_37">
    <g clip-path="url(#pb21158ee48)">
     <use style="fill:#e30000;stroke:#e30000;" x="158.162913" xlink:href="#md2b44ecbac" y="38.075368"/>
     <use style="fill:#e30000;stroke:#e30000;" x="174.12364" xlink:href="#md2b44ecbac" y="76.336964"/>
     <use style="fill:#e30000;stroke:#e30000;" x="190.084367" xlink:href="#md2b44ecbac" y="79.27382"/>
     <use style="fill:#e30000;stroke:#e30000;" x="206.045095" xlink:href="#md2b44ecbac" y="80.747971"/>
     <use style="fill:#e30000;stroke:#e30000;" x="222.005822" xlink:href="#md2b44ecbac" y="81.695917"/>
     <use style="fill:#e30000;stroke:#e30000;" x="237.966549" xlink:href="#md2b44ecbac" y="82.379405"/>
     <use style="fill:#e30000;stroke:#e30000;" x="253.927277" xlink:href="#md2b44ecbac" y="82.898291"/>
     <use style="fill:#e30000;stroke:#e30000;" x="269.888004" xlink:href="#md2b44ecbac" y="83.297233"/>
    </g>
   </g>
   <g id="line2d_38">
    <path clip-path="url(#pb21158ee48)" d="M 158.162913 38.075368 
L 168.387817 55.881508 
L 178.612722 61.916845 
L 188.837627 65.736061 
L 199.062532 68.39158 
L 209.287436 70.335942 
L 219.512341 71.863878 
L 229.737246 73.075281 
" style="fill:none;stroke:#000000;stroke-linecap:square;stroke-width:1.5;"/>
   </g>
   <g id="line2d_39">
    <path clip-path="url(#pb21158ee48)" d="M 158.162913 38.075368 
L 160.856717 51.220878 
L 163.550521 56.28546 
L 166.244325 59.980388 
L 168.938129 63.024639 
L 171.631933 65.289402 
L 174.325737 66.689753 
L 177.019541 67.86309 
L 179.713345 68.917431 
L 182.407149 69.967502 
L 185.100953 70.73814 
L 187.794758 71.552907 
L 190.488562 72.233012 
L 193.182366 72.81118 
L 195.87617 73.383482 
L 198.569974 73.828018 
L 201.263778 74.222172 
L 203.957582 74.586144 
L 206.651386 74.972818 
L 209.34519 75.323306 
L 212.038994 75.667051 
L 214.732798 75.996426 
L 217.426602 76.284922 
L 220.120407 76.603927 
L 222.814211 76.838923 
L 225.508015 77.096989 
L 228.201819 77.352962 
L 230.895623 77.573446 
L 233.589427 77.80395 
L 236.283231 78.020112 
L 238.977035 78.222935 
L 241.670839 78.402981 
" style="fill:none;stroke:#390000;stroke-linecap:square;stroke-width:1.5;"/>
   </g>
   <g id="line2d_40">
    <path clip-path="url(#pb21158ee48)" d="M 158.162913 38.075368 
L 158.903352 47.181217 
L 159.64379 52.23374 
L 160.384229 55.284359 
L 161.124668 57.7231 
L 162.605546 61.032684 
L 164.826863 64.421857 
L 167.04818 66.578841 
L 168.529058 67.780753 
L 172.231253 69.86576 
L 178.154765 72.292435 
L 181.85696 73.440752 
L 185.559155 74.392511 
L 190.742228 75.410897 
L 198.887056 76.708021 
L 214.436275 78.433147 
L 232.20681 79.763079 
L 241.092078 80.293368 
L 252.198663 80.852096 
L 252.198663 80.852096 
" style="fill:none;stroke:#710000;stroke-linecap:square;stroke-width:1.5;"/>
   </g>
   <g id="line2d_41">
    <path clip-path="url(#pb21158ee48)" d="M 158.162913 38.075368 
L 158.368753 45.143694 
L 158.574593 49.203454 
L 159.192113 55.360834 
L 159.809634 58.377978 
L 160.632994 61.405985 
L 161.250515 63.001508 
L 163.308916 66.397556 
L 164.338117 67.573435 
L 165.573158 68.835715 
L 167.425719 70.317282 
L 169.07244 71.327126 
L 170.101641 71.935714 
L 173.395084 73.377741 
L 176.688526 74.465501 
L 186.157173 76.674014 
L 188.833095 77.116316 
L 191.714857 77.527463 
L 207.564548 79.322991 
L 217.650716 80.099132 
L 220.944158 80.30673 
L 225.472641 80.605705 
L 240.910652 81.389752 
L 263.347229 82.239609 
L 263.347229 82.239609 
" style="fill:none;stroke:#aa0000;stroke-linecap:square;stroke-width:1.5;"/>
   </g>
   <g id="line2d_42">
    <path clip-path="url(#pb21158ee48)" d="M 158.162913 38.075368 
L 158.388506 50.370499 
L 158.783294 56.982774 
L 159.234481 60.878648 
L 159.742066 63.349785 
L 160.136854 64.91534 
L 160.249651 65.228968 
L 160.813634 66.68755 
L 161.716007 68.431895 
L 163.351559 70.590102 
L 165.720289 72.56805 
L 166.171475 72.843541 
L 167.073849 73.417693 
L 167.637832 73.712915 
L 167.919824 73.89383 
L 168.314612 74.095274 
L 171.41652 75.453391 
L 172.43169 75.814519 
L 176.605166 76.991408 
L 176.83076 77.048953 
L 179.255888 77.579477 
L 180.383855 77.809574 
L 190.084367 79.27382 
L 209.880181 81.008662 
L 212.474504 81.168273 
L 213.658869 81.242872 
L 220.088279 81.597194 
L 231.029555 82.103428 
L 234.018666 82.221626 
L 234.977438 82.262485 
L 261.033466 83.087317 
L 261.710246 83.102008 
L 271.467157 83.335495 
L 272.820717 83.366674 
L 273.610294 83.381729 
L 273.610294 83.381729 
" style="fill:none;stroke:#e30000;stroke-linecap:square;stroke-width:1.5;"/>
   </g>
   <g id="patch_6">
    <path d="M 158.162913 88.297982 
L 158.162913 9.810887 
" style="fill:none;stroke:#000000;stroke-linecap:square;stroke-linejoin:miter;stroke-width:0.25;"/>
   </g>
   <g id="patch_7">
    <path d="M 158.162913 86.686565 
L 273.610294 86.686565 
" style="fill:none;stroke:#000000;stroke-linecap:square;stroke-linejoin:miter;stroke-width:0.25;"/>
   </g>
   <g id="legend_1">
    <g id="LineCollection_11">
     <path d="M 218.387391 2.269394 
L 218.387391 -1 
" style="fill:none;stroke:#000000;stroke-width:1.5;"/>
    </g>
    <g id="line2d_43">
     <path style="fill:none;stroke:#000000;stroke-linecap:square;stroke-width:1.5;"/>
    </g>
    <g id="line2d_44"/>
    <g id="text_27">
     <!-- 16 -->
     <g transform="translate(232.787391 1.069394)scale(0.08 -0.08)">
      <use xlink:href="#DejaVuSans-31"/>
      <use x="63.623047" xlink:href="#DejaVuSans-36"/>
     </g>
    </g>
    <g id="LineCollection_12">
     <path d="M 218.387391 14.011894 
L 218.387391 6.011894 
" style="fill:none;stroke:#390000;stroke-width:1.5;"/>
    </g>
    <g id="line2d_45">
     <path d="M 210.387391 10.011894 
L 226.387391 10.011894 
" style="fill:none;stroke:#390000;stroke-linecap:square;stroke-width:1.5;"/>
    </g>
    <g id="line2d_46"/>
    <g id="text_28">
     <!-- 32 -->
     <g transform="translate(232.787391 12.811894)scale(0.08 -0.08)">
      <use xlink:href="#DejaVuSans-33"/>
      <use x="63.623047" xlink:href="#DejaVuSans-32"/>
     </g>
    </g>
    <g id="LineCollection_13">
     <path d="M 218.387391 25.754394 
L 218.387391 17.754394 
" style="fill:none;stroke:#710000;stroke-width:1.5;"/>
    </g>
    <g id="line2d_47">
     <path d="M 210.387391 21.754394 
L 226.387391 21.754394 
" style="fill:none;stroke:#710000;stroke-linecap:square;stroke-width:1.5;"/>
    </g>
    <g id="line2d_48"/>
    <g id="text_29">
     <!-- 64 -->
     <g transform="translate(232.787391 24.554394)scale(0.08 -0.08)">
      <use xlink:href="#DejaVuSans-36"/>
      <use x="63.623047" xlink:href="#DejaVuSans-34"/>
     </g>
    </g>
    <g id="LineCollection_14">
     <path d="M 218.387391 37.496894 
L 218.387391 29.496894 
" style="fill:none;stroke:#aa0000;stroke-width:1.5;"/>
    </g>
    <g id="line2d_49">
     <path d="M 210.387391 33.496894 
L 226.387391 33.496894 
" style="fill:none;stroke:#aa0000;stroke-linecap:square;stroke-width:1.5;"/>
    </g>
    <g id="line2d_50"/>
    <g id="text_30">
     <!-- 128 -->
     <g transform="translate(232.787391 36.296894)scale(0.08 -0.08)">
      <use xlink:href="#DejaVuSans-31"/>
      <use x="63.623047" xlink:href="#DejaVuSans-32"/>
      <use x="127.246094" xlink:href="#DejaVuSans-38"/>
     </g>
    </g>
    <g id="LineCollection_15">
     <path d="M 218.387391 49.239394 
L 218.387391 41.239394 
" style="fill:none;stroke:#e30000;stroke-width:1.5;"/>
    </g>
    <g id="line2d_51">
     <path d="M 210.387391 45.239394 
L 226.387391 45.239394 
" style="fill:none;stroke:#e30000;stroke-linecap:square;stroke-width:1.5;"/>
    </g>
    <g id="line2d_52"/>
    <g id="text_31">
     <!-- 256 -->
     <g transform="translate(232.787391 48.039394)scale(0.08 -0.08)">
      <use xlink:href="#DejaVuSans-32"/>
      <use x="63.623047" xlink:href="#DejaVuSans-35"/>
      <use x="127.246094" xlink:href="#DejaVuSans-36"/>
     </g>
    </g>
   </g>
  </g>
 </g>
 <defs>
  <clipPath id="p3b100d2d7a">
   <rect height="145.116864" width="274.898491" x="30.441808" y="12.14"/>
  </clipPath>
  <clipPath id="pb21158ee48">
   <rect height="78.487095" width="126.99212" x="152.390543" y="9.810887"/>
  </clipPath>
 </defs>
</svg>
